<svg id="Group_136" data-name="Group 136" xmlns="http://www.w3.org/2000/svg" xmlns:xlink="http://www.w3.org/1999/xlink" width="20" height="20" viewBox="0 0 20 20">
  <defs>
    <clipPath id="clip-path">
      <rect id="Rectangle_103" data-name="Rectangle 103" width="20" height="20" fill="#14b85d"/>
    </clipPath>
  </defs>
  <g id="Group_135" data-name="Group 135" clip-path="url(#clip-path)">
    <g id="Group_134" data-name="Group 134" transform="translate(3.333 3.333)">
      <g id="Group_132" data-name="Group 132" transform="translate(0 5.834)">
        <path id="Path_48" data-name="Path 48" d="M4.833,12.667H16.5A.833.833,0,0,0,16.5,11H4.833a.833.833,0,0,0,0,1.667Z" transform="translate(-4 -11)" fill="#14b85d"/>
      </g>
      <g id="Group_133" data-name="Group 133" transform="translate(5.833)">
        <path id="Path_49" data-name="Path 49" d="M4.833,17.333a.831.831,0,0,0,.589-.244l5.833-5.833a.832.832,0,0,0,0-1.178L5.422,4.244A.833.833,0,0,0,4.244,5.422l5.244,5.244L4.244,15.911a.833.833,0,0,0,.589,1.423Z" transform="translate(-4 -4)" fill="#14b85d"/>
      </g>
    </g>
  </g>
</svg>
