<svg width="48" height="48" viewBox="0 0 48 48" fill="none" xmlns="http://www.w3.org/2000/svg">
<g clip-path="url(#clip0_364_5874)">
<path d="M11.0419 16.3448C10.6762 15.9792 10.0819 15.9792 9.71633 16.3448C9.34977 16.7113 9.34977 17.3048 9.71633 17.6704C10.082 18.037 10.6763 18.037 11.0419 17.6704C11.4083 17.3048 11.4083 16.7113 11.0419 16.3448Z" fill="black"/>
<path d="M23.7375 41.9736C24.1508 41.4137 24.3742 40.7392 24.3742 40.0299C24.3742 38.2208 22.9023 36.7488 21.093 36.7488H5.15607C4.27923 36.7488 3.45526 37.09 2.83585 37.7096C2.21616 38.3291 1.87491 39.1531 1.87491 40.0299C1.87491 40.7564 2.11266 41.4282 2.51382 41.9724C1.02103 42.7573 0 44.323 0 46.1234V47.0609C0 47.5787 0.419813 47.9984 0.937502 47.9984H25.3116C25.8293 47.9984 26.2491 47.5787 26.2491 47.0609V46.1234C26.2491 44.3238 25.2291 42.7588 23.7375 41.9736ZM4.16157 39.0353C4.42698 38.7698 4.78023 38.6236 5.15607 38.6236H21.093C21.8685 38.6236 22.4992 39.2544 22.4992 40.0298C22.4992 40.4057 22.353 40.7588 22.0875 41.0243C21.822 41.2898 21.4688 41.436 21.0929 41.436H5.15607C4.38067 41.436 3.74991 40.8052 3.74991 40.0298C3.74991 39.654 3.89607 39.3008 4.16157 39.0353ZM1.87491 46.1234C1.87491 44.5727 3.1366 43.311 4.68732 43.311H5.15607H21.093H21.5618C23.1125 43.311 24.3742 44.5727 24.3742 46.1234H1.87491Z" fill="black"/>
<path d="M47.1275 39.3867C46.8092 38.8933 46.4293 38.457 45.9983 38.0899L41.6178 34.2693C41.5837 34.2179 41.5442 34.1692 41.4989 34.1239C41.4228 34.0478 41.3365 33.9885 41.2448 33.9441L38.5957 31.6336L26.3341 20.9375C26.8361 20.4128 27.1124 19.7267 27.1124 18.997C27.1124 18.2453 26.8199 17.5389 26.288 17.0072C26.0561 16.7755 25.7924 16.5933 25.5107 16.4599L26.6451 15.3256C26.9622 15.4098 27.2879 15.453 27.614 15.453C28.5741 15.4529 29.5343 15.0874 30.2652 14.3566C30.9737 13.6481 31.3639 12.7064 31.3639 11.7048C31.3639 10.7033 30.9737 9.76158 30.2653 9.05311L22.3107 1.09878C21.6023 0.39031 20.6605 0.00012207 19.6586 0.00012207C18.6573 0.00012207 17.7158 0.39031 17.0074 1.09878C16.0283 2.07791 15.706 3.46813 16.0384 4.71894L4.7204 16.0368C4.40765 15.9537 4.08224 15.9098 3.7498 15.9098C2.7478 15.9098 1.80646 16.2997 1.09855 17.0075C-0.363579 18.4697 -0.363579 20.8488 1.09855 22.311L9.05297 30.2655C9.78413 30.9966 10.7444 31.3621 11.7047 31.3621C12.6651 31.3621 13.6254 30.9966 14.3565 30.2655C15.3356 29.2863 15.658 27.8961 15.3255 26.6453L16.4575 25.5132C16.5936 25.7973 16.7782 26.0594 17.0075 26.2886C17.5387 26.8198 18.2449 27.1124 18.9964 27.1124C19.7253 27.1124 20.4112 26.8365 20.9367 26.3351L33.9966 41.3402C34.0326 41.3965 34.0746 41.45 34.1237 41.4991C34.1405 41.5159 34.1583 41.5312 34.1761 41.5464L38.0677 46.0177C38.1645 46.1319 38.2679 46.2442 38.3752 46.3515C39.4441 47.42 40.8558 47.9998 42.338 47.9998C42.5993 47.9998 42.863 47.9818 43.1271 47.9453C44.8924 47.701 46.4179 46.645 47.3125 45.0476C48.2925 43.297 48.2195 41.0745 47.1275 39.3867ZM18.3333 2.4246C18.6876 2.07031 19.1584 1.87513 19.6587 1.87513C20.1597 1.87513 20.6308 2.07031 20.985 2.4246L28.9395 10.379C29.2938 10.7333 29.4889 11.2042 29.4889 11.7049C29.4889 12.2056 29.2938 12.6766 28.9394 13.0308C28.2087 13.7618 27.0194 13.7618 26.2886 13.0308L18.3338 5.07604C18.3336 5.07585 18.3335 5.07576 18.3333 5.07557C17.6023 4.34469 17.6023 3.15547 18.3333 2.4246ZM13.0307 28.9397C12.2996 29.6707 11.1098 29.6708 10.3788 28.9397L2.42436 20.9853C1.69321 20.2541 1.69321 19.0646 2.42436 18.3333C2.77799 17.9796 3.2488 17.7848 3.7498 17.7848C4.25071 17.7848 4.72124 17.9795 5.07478 18.333L13.0306 26.2888C13.7617 27.0196 13.7617 28.2089 13.0307 28.9397ZM16.9778 22.3415L14.3564 24.963L6.40115 17.0077L17.0074 6.40129L24.9626 14.3566L22.3364 16.9828C22.3279 16.9908 22.3196 16.9987 22.3106 17.0076L17.0101 22.3082C16.9991 22.3189 16.9885 22.3302 16.9778 22.3415ZM20.3252 24.2973C20.3233 24.2991 20.3216 24.3009 20.3197 24.3028L19.6595 24.963C19.4824 25.14 19.247 25.2375 18.9963 25.2375C18.7457 25.2375 18.5102 25.14 18.3332 24.9629C18.1559 24.7857 18.0583 24.55 18.0583 24.2992C18.0583 24.0538 18.152 23.8229 18.322 23.6487L23.6471 18.3236C24.012 17.9687 24.6021 17.9731 24.9628 18.3333C25.1399 18.5105 25.2375 18.7462 25.2375 18.997C25.2375 19.2476 25.1402 19.4826 24.9627 19.6597L24.3063 20.3161C24.3018 20.3205 24.2973 20.325 24.2929 20.3295L20.3252 24.2973ZM22.2666 25.0074L25.0065 22.2675L36.6074 32.3864L32.3742 36.6197L22.2666 25.0074ZM33.608 38.0374L38.0236 33.6217L39.4398 34.8571L34.8419 39.4552L33.608 38.0374ZM45.6767 44.1317C45.0716 45.212 44.0487 45.925 42.8702 46.0881C41.6944 46.2508 40.5391 45.8636 39.7008 45.0256C39.6287 44.9536 39.5597 44.8785 39.4953 44.8024C39.4923 44.7988 39.4893 44.7953 39.4863 44.7918L36.0756 40.8729L40.856 36.0923L44.7701 39.5064C44.773 39.5091 44.776 39.5116 44.7791 39.5142C45.0721 39.7633 45.332 40.0625 45.5526 40.4043C46.2616 41.4998 46.3113 42.9979 45.6767 44.1317Z" fill="black"/>
<path d="M17.6708 9.71598C17.3046 9.34988 16.7112 9.34988 16.345 9.71598L12.3673 13.6936C12.0012 14.0597 12.0012 14.6533 12.3673 15.0193C12.5504 15.2024 12.7903 15.2939 13.0303 15.2939C13.2702 15.2939 13.5101 15.2023 13.6932 15.0193L17.6708 11.0417C18.0369 10.6757 18.0369 10.0822 17.6708 9.71598Z" fill="black"/>
</g>
<defs>
<clipPath id="clip0_364_5874">
<rect width="48" height="48" fill="white"/>
</clipPath>
</defs>
</svg>
