<svg width="48" height="48" viewBox="0 0 48 48" fill="none" xmlns="http://www.w3.org/2000/svg">
<g clip-path="url(#clip0_364_6097)">
<path d="M1.17786 29.9128C1.44088 30.0955 1.71864 30.2561 2.00826 30.3928C2.35386 30.5696 2.93386 30.8656 2.97466 31.0728C3.02494 31.3463 2.99206 31.6286 2.88026 31.8832C2.76106 32.1392 2.63626 32.3592 2.52826 32.5488C2.23546 33.0664 1.74506 33.9336 2.48426 34.5376C2.65706 34.6976 2.95546 34.9288 3.22746 35.1376C3.02722 35.4877 2.93665 35.8899 2.96746 36.292C3.00991 36.6087 3.18165 36.8937 3.44186 37.0792C3.61946 37.204 3.80906 37.3128 3.99546 37.4192C4.46906 37.688 4.65386 37.8136 4.71546 38.0648C4.75991 38.3868 4.73259 38.7146 4.63546 39.0248C4.58826 39.2384 4.54266 39.4528 4.51546 39.6648C4.43602 40.3939 4.52609 41.1315 4.77866 41.82C5.13851 43.0911 6.28823 43.9766 7.60906 44C7.82953 43.9993 8.04936 43.976 8.26506 43.9304C10.5505 43.3887 12.8025 42.7147 15.0099 41.912C16.8123 42.9696 17.9507 46.1856 18.2475 47.3928C18.3361 47.7497 18.6566 48.0002 19.0243 48L39.1043 47.944C39.3587 47.9435 39.5978 47.822 39.7481 47.6167C39.8985 47.4114 39.9422 47.1468 39.8659 46.904C39.6681 46.362 39.3953 45.8503 39.0555 45.384C38.8636 45.1075 38.6907 44.8183 38.5379 44.5184C38.1755 43.7852 37.8734 43.0238 37.6347 42.2416C37.1778 40.6961 36.8611 39.1127 36.6883 37.5104C36.4794 35.6574 36.6565 33.7812 37.2083 32H39.2003C40.5257 32 41.6003 30.9255 41.6003 29.6V19.2C41.6003 18.7582 41.2421 18.4 40.8003 18.4H37.5715C37.5903 18.2675 37.5999 18.1338 37.6003 18C37.6003 16.4536 36.3467 15.2 34.8003 15.2C33.2539 15.2 32.0003 16.4536 32.0003 18C32.0006 18.1338 32.0103 18.2675 32.0291 18.4H29.6003V15.972C30.0423 16.035 30.493 15.9925 30.9155 15.848C31.8287 15.537 32.5153 14.7744 32.7291 13.8336C32.9384 12.9326 32.6893 11.9864 32.0634 11.3053C31.4375 10.6242 30.5157 10.2962 29.6003 10.4288V7.2C29.6003 6.75817 29.2421 6.4 28.8003 6.4H18.4003C17.0748 6.4 16.0003 7.47452 16.0003 8.8V29.6C16.0003 30.9255 17.0748 32 18.4003 32H35.5283C35.0248 33.8569 34.88 35.7929 35.1019 37.704C35.2864 39.4028 35.6232 41.0815 36.1083 42.72C36.3715 43.5799 36.7035 44.4173 37.1011 45.224C37.2836 45.5863 37.4907 45.9356 37.7211 46.2696L37.7747 46.3496L19.6291 46.4C19.098 44.5023 18.1341 42.7535 16.8131 41.2912L17.5331 41.0392C18.0691 40.852 18.4731 40.7112 18.6803 40.6448C22.1075 39.5608 23.8211 38 23.7747 36.0048C23.7643 35.563 23.3977 35.2132 22.9559 35.2236C22.514 35.234 22.1643 35.6006 22.1747 36.0424C22.1939 36.8656 21.5195 38.0664 18.1939 39.1184C17.9771 39.188 17.5595 39.3336 17.0051 39.5272C16.4107 39.7352 15.6547 39.9992 14.8211 40.2824H14.8155C12.5641 41.1077 10.2669 41.8021 7.93546 42.3624C7.19101 42.5037 6.46732 42.0336 6.29386 41.296C6.12295 40.8409 6.05864 40.3526 6.10586 39.8688C6.12666 39.7008 6.16506 39.5344 6.20186 39.3672C6.36487 38.8141 6.38878 38.2293 6.27146 37.6648C6.03878 36.9299 5.49802 36.3325 4.78986 36.028L4.62426 35.9336C4.71064 35.7592 4.81379 35.5936 4.93226 35.4392C5.06647 35.2691 5.12597 35.0519 5.09717 34.8372C5.06838 34.6225 4.95373 34.4287 4.77946 34.3C4.58746 34.1592 4.13466 33.82 3.80346 33.5528C3.84186 33.4832 3.88346 33.4064 3.92346 33.3368C4.04906 33.1168 4.19226 32.8608 4.33226 32.5648C4.58542 32.004 4.65999 31.379 4.54586 30.7744C4.35386 29.7984 3.41866 29.32 2.73706 28.9712C2.5069 28.8618 2.28615 28.7337 2.07706 28.588C1.90695 28.473 1.74739 28.3432 1.60026 28.2C1.60026 28.0784 1.73066 27.784 2.34026 27.0424C3.77312 25.1978 5.00164 23.2032 6.00426 21.0936C6.19173 20.7631 6.29734 20.3925 6.31226 20.0128C6.22963 19.2087 5.80349 18.4795 5.14346 18.0128C4.82346 17.716 4.51546 17.436 4.47946 17.1752C4.48477 16.9864 4.52717 16.8004 4.60426 16.628C4.73466 16.2848 4.88506 15.9488 5.03626 15.612C5.3643 14.9356 5.62631 14.2291 5.81866 13.5024L5.89866 13.1616C6.06753 12.3618 6.28527 11.5731 6.55066 10.8C7.1813 9.05941 8.1577 7.46445 9.42106 6.1112C10.9515 4.492 13.3603 3.3464 16.5923 2.704C19.0636 2.16135 21.5714 1.80012 24.0955 1.6232C27.7406 1.44111 31.3493 2.4225 34.4003 4.4256V5.2C34.4003 5.50302 34.5715 5.78003 34.8425 5.91554C35.1135 6.05106 35.4378 6.02181 35.6803 5.84C36.203 5.47116 36.921 5.56321 37.3339 6.052C37.5664 6.34267 37.6517 6.7244 37.5651 7.0864C37.4712 7.48032 37.1828 7.79913 36.8003 7.932C36.4201 8.0659 35.9982 8.00138 35.6755 7.76C35.4331 7.58102 35.1107 7.55341 34.8414 7.68856C34.5721 7.82371 34.4016 8.0987 34.4003 8.4V12C34.4003 12.8837 35.1166 13.6 36.0003 13.6H39.6003C39.9033 13.6 40.1803 13.4288 40.3158 13.1578C40.4513 12.8867 40.4221 12.5624 40.2403 12.32C39.869 11.8249 39.935 11.1287 40.3928 10.7123C40.8506 10.2959 41.5499 10.2959 42.0077 10.7123C42.4655 11.1287 42.5316 11.8249 42.1603 12.32C41.9785 12.5624 41.9492 12.8867 42.0847 13.1578C42.2202 13.4288 42.4972 13.6 42.8003 13.6H47.2003C47.6421 13.6 48.0003 13.2418 48.0003 12.8V2.4C48.0003 1.07452 46.9257 0 45.6003 0H35.2003C34.7584 0 34.4003 0.358172 34.4003 0.8V2.5096C31.2482 0.702896 27.6431 -0.159621 24.0147 0.0248C21.4115 0.205351 18.8251 0.576479 16.2763 1.1352C12.6691 1.8552 10.0475 3.12 8.25786 5.0112C6.84619 6.52174 5.7547 8.30225 5.04906 10.2456C4.76095 11.0818 4.52425 11.9349 4.34026 12.8L4.26026 13.1376C4.08952 13.765 3.86052 14.3752 3.57626 14.96C3.41626 15.3248 3.24986 15.6896 3.10666 16.0672C2.92253 16.4875 2.8498 16.9482 2.89546 17.4048C3.05643 18.1218 3.47021 18.7568 4.06106 19.1936C4.45226 19.552 4.70906 19.8048 4.71226 20.0248C4.68363 20.1464 4.63784 20.2633 4.57626 20.372C3.61824 22.389 2.44474 24.2964 1.07626 26.0608C0.496259 26.7664 -0.111741 27.5896 0.0162589 28.4136C0.185954 29.0493 0.604702 29.5897 1.17786 29.9128ZM17.6003 8.8C17.6003 8.35817 17.9584 8 18.4003 8H28.0003V11.6C28.0003 11.903 28.1715 12.18 28.4425 12.3155C28.7135 12.4511 29.0378 12.4218 29.2803 12.24C29.803 11.8712 30.521 11.9632 30.9339 12.452C31.1664 12.7427 31.2517 13.1244 31.1651 13.4864C31.0712 13.8803 30.7828 14.1991 30.4003 14.332C30.0189 14.4659 29.5958 14.4001 29.2731 14.1568C29.0302 13.9789 28.7081 13.9524 28.4394 14.0881C28.1708 14.2239 28.0011 14.499 28.0003 14.8V18.4H25.5731C25.635 17.9584 25.5923 17.5084 25.4483 17.0864C25.1379 16.1725 24.3757 15.485 23.4347 15.2704C22.6023 15.0768 21.7271 15.2739 21.0581 15.8056C20.3891 16.3373 19.9995 17.1454 20.0003 18C20.0006 18.1338 20.0103 18.2675 20.0291 18.4H17.6003V8.8ZM17.6003 29.6V20H21.2003C21.5033 20 21.7803 19.8288 21.9158 19.5578C22.0513 19.2867 22.0221 18.9624 21.8403 18.72C21.4535 18.2015 21.5473 17.4698 22.0523 17.0656C22.3433 16.8332 22.7253 16.7482 23.0875 16.8352C23.4815 16.9285 23.8003 17.2171 23.9323 17.6C24.0671 17.9811 24.0009 18.4046 23.7563 18.7264C23.5778 18.9693 23.5511 19.292 23.6871 19.561C23.8231 19.83 24.0988 19.9997 24.4003 20H28.0003V22.4288C26.9148 22.2719 25.8377 22.7632 25.2446 23.6856C24.6514 24.6081 24.6514 25.7919 25.2446 26.7144C25.8377 27.6368 26.9148 28.1281 28.0003 27.9712V30.4H18.4003C17.9584 30.4 17.6003 30.0418 17.6003 29.6ZM29.1563 26.08C28.8838 25.9463 28.5593 25.9772 28.3171 26.16C27.822 26.5313 27.1258 26.4652 26.7094 26.0075C26.293 25.5497 26.293 24.8503 26.7094 24.3925C27.1258 23.9348 27.822 23.8687 28.3171 24.24C28.5595 24.4218 28.8838 24.4511 29.1548 24.3155C29.4259 24.18 29.5971 23.903 29.5971 23.6V20H33.1971C33.5001 20 33.7771 19.8288 33.9126 19.5578C34.0481 19.2867 34.0189 18.9624 33.8371 18.72C33.4658 18.2249 33.5318 17.5287 33.9896 17.1123C34.4474 16.6959 35.1467 16.6959 35.6045 17.1123C36.0623 17.5287 36.1284 18.2249 35.7571 18.72C35.5752 18.9624 35.546 19.2867 35.6815 19.5578C35.817 19.8288 36.094 20 36.3971 20H40.0003V29.6C40.0003 30.0418 39.6421 30.4 39.2003 30.4H29.6003V26.8C29.6016 26.495 29.4294 26.2157 29.1563 26.08ZM36.0003 1.6H45.6003C46.0421 1.6 46.4003 1.95817 46.4003 2.4V12H43.9715C43.9903 11.8675 43.9999 11.7338 44.0003 11.6C44.0003 10.0536 42.7467 8.8 41.2003 8.8C39.6539 8.8 38.4003 10.0536 38.4003 11.6C38.4006 11.7338 38.4103 11.8675 38.4291 12H36.0003V9.572C36.4423 9.63498 36.893 9.59249 37.3155 9.448C38.2287 9.13696 38.9153 8.37441 39.1291 7.4336C39.3384 6.53262 39.0893 5.58638 38.4634 4.9053C37.8375 4.22421 36.9157 3.89618 36.0003 4.0288V1.6Z" fill="black"/>
<path d="M8.93259 14.2329L9.01259 13.8857C9.15456 13.217 9.33459 12.557 9.55179 11.9089C10.033 10.5718 10.7819 9.34681 11.7526 8.30889C12.3751 7.68282 13.1144 7.18489 13.9286 6.84329C14.1984 6.73227 14.3864 6.48316 14.4191 6.19323C14.4519 5.9033 14.3242 5.61854 14.0859 5.45015C13.8476 5.28176 13.5366 5.25644 13.2742 5.38409C12.2675 5.81046 11.3548 6.4314 10.5886 7.21129C9.46838 8.40694 8.60407 9.8187 8.04859 11.3601C7.80718 12.0707 7.60764 12.7949 7.45099 13.5289L7.37099 13.8809C7.32322 14.0883 7.3601 14.3063 7.47346 14.4864C7.58682 14.6666 7.76731 14.7942 7.97499 14.8409C8.03298 14.8542 8.09229 14.8609 8.15179 14.8609C8.52716 14.8607 8.85189 14.5995 8.93259 14.2329Z" fill="black"/>
<path d="M7.20039 17.6C7.64222 17.6 8.00039 17.2418 8.00039 16.8C8.00039 16.3582 7.64222 16 7.20039 16C6.75856 16 6.40039 16.3582 6.40039 16.8C6.40039 17.2418 6.75856 17.6 7.20039 17.6Z" fill="black"/>
</g>
<defs>
<clipPath id="clip0_364_6097">
<rect width="48" height="48" fill="white"/>
</clipPath>
</defs>
</svg>
