<svg width="48" height="48" viewBox="0 0 48 48" fill="none" xmlns="http://www.w3.org/2000/svg">
<path d="M12 16H8C7.73478 16 7.48043 16.1054 7.29289 16.2929C7.10536 16.4804 7 16.7348 7 17C7 17.2652 7.10536 17.5196 7.29289 17.7071C7.48043 17.8946 7.73478 18 8 18H10V19C10 19.2652 10.1054 19.5196 10.2929 19.7071C10.4804 19.8946 10.7348 20 11 20C11.2652 20 11.5196 19.8946 11.7071 19.7071C11.8946 19.5196 12 19.2652 12 19V18C12.7956 18 13.5587 17.6839 14.1213 17.1213C14.6839 16.5587 15 15.7957 15 15C15 14.2044 14.6839 13.4413 14.1213 12.8787C13.5587 12.3161 12.7956 12 12 12H10C9.73478 12 9.48043 11.8946 9.29289 11.7071C9.10536 11.5196 9 11.2652 9 11C9 10.7348 9.10536 10.4804 9.29289 10.2929C9.48043 10.1054 9.73478 10 10 10H14C14.2652 10 14.5196 9.89464 14.7071 9.70711C14.8946 9.51957 15 9.26522 15 9C15 8.73478 14.8946 8.48043 14.7071 8.29289C14.5196 8.10536 14.2652 8 14 8H12V7C12 6.73478 11.8946 6.48043 11.7071 6.29289C11.5196 6.10536 11.2652 6 11 6C10.7348 6 10.4804 6.10536 10.2929 6.29289C10.1054 6.48043 10 6.73478 10 7V8C9.20435 8 8.44129 8.31607 7.87868 8.87868C7.31607 9.44129 7 10.2044 7 11C7 11.7957 7.31607 12.5587 7.87868 13.1213C8.44129 13.6839 9.20435 14 10 14H12C12.2652 14 12.5196 14.1054 12.7071 14.2929C12.8946 14.4804 13 14.7348 13 15C13 15.2652 12.8946 15.5196 12.7071 15.7071C12.5196 15.8946 12.2652 16 12 16Z" fill="white"/>
<path d="M44 17H37V4C36.9991 3.20463 36.6827 2.44209 36.1203 1.87967C35.5579 1.31726 34.7954 1.0009 34 1H4C3.20463 1.0009 2.44209 1.31726 1.87967 1.87967C1.31726 2.44209 1.0009 3.20463 1 4V44C1.0009 44.7954 1.31726 45.5579 1.87967 46.1203C2.44209 46.6827 3.20463 46.9991 4 47H44C44.7954 46.9991 45.5579 46.6827 46.1203 46.1203C46.6827 45.5579 46.9991 44.7954 47 44V20C46.9991 19.2046 46.6827 18.4421 46.1203 17.8797C45.5579 17.3173 44.7954 17.0009 44 17V17ZM3 44V4C3.00032 3.73488 3.10578 3.48071 3.29324 3.29324C3.48071 3.10578 3.73488 3.00032 4 3H34C34.2651 3.00032 34.5193 3.10578 34.7068 3.29324C34.8942 3.48071 34.9997 3.73488 35 4V17H24C23.2046 17.0009 22.4421 17.3173 21.8797 17.8797C21.3173 18.4421 21.0009 19.2046 21 20V44C21.0034 44.3414 21.0657 44.6797 21.1842 45H4C3.73488 44.9997 3.48071 44.8942 3.29324 44.7068C3.10578 44.5193 3.00032 44.2651 3 44V44ZM45 44C44.9997 44.2651 44.8942 44.5193 44.7068 44.7068C44.5193 44.8942 44.2651 44.9997 44 45H24C23.7349 44.9997 23.4807 44.8942 23.2932 44.7068C23.1058 44.5193 23.0003 44.2651 23 44V20C23.0003 19.7349 23.1058 19.4807 23.2932 19.2932C23.4807 19.1058 23.7349 19.0003 24 19H44C44.2651 19.0003 44.5193 19.1058 44.7068 19.2932C44.8942 19.4807 44.9997 19.7349 45 20V44Z" fill="white"/>
<path d="M40 23H28C27.4697 23.0005 26.9613 23.2113 26.5863 23.5863C26.2113 23.9613 26.0005 24.4697 26 25V29C26.0005 29.5303 26.2113 30.0387 26.5863 30.4137C26.9613 30.7887 27.4697 30.9995 28 31H40C40.5303 30.9995 41.0387 30.7887 41.4137 30.4137C41.7887 30.0387 41.9995 29.5303 42 29V25C41.9995 24.4697 41.7887 23.9613 41.4137 23.5863C41.0387 23.2113 40.5303 23.0005 40 23V23ZM40 30V29H28V25H40V29H40.002L40 30Z" fill="white"/>
<path d="M32 37H28C27.7348 37 27.4804 37.1054 27.2929 37.2929C27.1054 37.4804 27 37.7348 27 38C27 38.2652 27.1054 38.5196 27.2929 38.7071C27.4804 38.8946 27.7348 39 28 39H32C32.2652 39 32.5196 38.8946 32.7071 38.7071C32.8946 38.5196 33 38.2652 33 38C33 37.7348 32.8946 37.4804 32.7071 37.2929C32.5196 37.1054 32.2652 37 32 37Z" fill="white"/>
<path d="M40 37H36C35.7348 37 35.4804 37.1054 35.2929 37.2929C35.1054 37.4804 35 37.7348 35 38C35 38.2652 35.1054 38.5196 35.2929 38.7071C35.4804 38.8946 35.7348 39 36 39H40C40.2652 39 40.5196 38.8946 40.7071 38.7071C40.8946 38.5196 41 38.2652 41 38C41 37.7348 40.8946 37.4804 40.7071 37.2929C40.5196 37.1054 40.2652 37 40 37Z" fill="white"/>
<path d="M32 33H28C27.7348 33 27.4804 33.1054 27.2929 33.2929C27.1054 33.4804 27 33.7348 27 34C27 34.2652 27.1054 34.5196 27.2929 34.7071C27.4804 34.8946 27.7348 35 28 35H32C32.2652 35 32.5196 34.8946 32.7071 34.7071C32.8946 34.5196 33 34.2652 33 34C33 33.7348 32.8946 33.4804 32.7071 33.2929C32.5196 33.1054 32.2652 33 32 33Z" fill="white"/>
<path d="M40 33H36C35.7348 33 35.4804 33.1054 35.2929 33.2929C35.1054 33.4804 35 33.7348 35 34C35 34.2652 35.1054 34.5196 35.2929 34.7071C35.4804 34.8946 35.7348 35 36 35H40C40.2652 35 40.5196 34.8946 40.7071 34.7071C40.8946 34.5196 41 34.2652 41 34C41 33.7348 40.8946 33.4804 40.7071 33.2929C40.5196 33.1054 40.2652 33 40 33Z" fill="white"/>
<path d="M18 23H8C7.73478 23 7.48043 23.1054 7.29289 23.2929C7.10536 23.4804 7 23.7348 7 24C7 24.2652 7.10536 24.5196 7.29289 24.7071C7.48043 24.8946 7.73478 25 8 25H18C18.2652 25 18.5196 24.8946 18.7071 24.7071C18.8946 24.5196 19 24.2652 19 24C19 23.7348 18.8946 23.4804 18.7071 23.2929C18.5196 23.1054 18.2652 23 18 23Z" fill="white"/>
<path d="M18 29H8C7.73478 29 7.48043 29.1054 7.29289 29.2929C7.10536 29.4804 7 29.7348 7 30C7 30.2652 7.10536 30.5196 7.29289 30.7071C7.48043 30.8946 7.73478 31 8 31H18C18.2652 31 18.5196 30.8946 18.7071 30.7071C18.8946 30.5196 19 30.2652 19 30C19 29.7348 18.8946 29.4804 18.7071 29.2929C18.5196 29.1054 18.2652 29 18 29Z" fill="white"/>
<path d="M18 35H8C7.73478 35 7.48043 35.1054 7.29289 35.2929C7.10536 35.4804 7 35.7348 7 36C7 36.2652 7.10536 36.5196 7.29289 36.7071C7.48043 36.8946 7.73478 37 8 37H18C18.2652 37 18.5196 36.8946 18.7071 36.7071C18.8946 36.5196 19 36.2652 19 36C19 35.7348 18.8946 35.4804 18.7071 35.2929C18.5196 35.1054 18.2652 35 18 35Z" fill="white"/>
<path d="M31 14C31 13.7348 30.8946 13.4804 30.7071 13.2929C30.5196 13.1054 30.2652 13 30 13H20C19.7348 13 19.4804 13.1054 19.2929 13.2929C19.1054 13.4804 19 13.7348 19 14C19 14.2652 19.1054 14.5196 19.2929 14.7071C19.4804 14.8946 19.7348 15 20 15H30C30.2652 15 30.5196 14.8946 30.7071 14.7071C30.8946 14.5196 31 14.2652 31 14Z" fill="white"/>
</svg>
