<svg width="49" height="48" viewBox="0 0 49 48" fill="none" xmlns="http://www.w3.org/2000/svg">
<g clip-path="url(#clip0_297_5189)">
<path d="M47.1869 29.2687C46.6702 29.2687 46.249 29.6887 46.249 30.2054C46.249 30.4559 46.3468 30.6562 46.5229 30.8335C46.7002 31.0107 46.9357 31.0723 47.1862 31.0723H47.1869C47.7036 31.0723 48.1237 30.6881 48.1248 30.171C48.1248 29.6536 47.7047 29.2687 47.1869 29.2687Z" fill="#28293D"/>
<path d="M43.4371 29.2657L39.1763 29.2632L35.3878 22.6904L39.4279 15.7031C39.5956 15.4127 39.5959 15.0553 39.4286 14.7653L35.4017 7.78051L38.174 3.40905C38.4512 2.97143 38.3215 2.39208 37.8839 2.11486C37.4467 1.83727 36.8673 1.96691 36.5897 2.40453L33.7933 6.7987L25.6572 6.78332H25.6569C25.3218 6.78332 25.0123 6.97155 24.845 7.26122L20.802 14.2397L13.3013 14.2214L11.3486 10.6446C11.1846 10.3429 10.8685 10.1572 10.5243 10.1572C10.3687 10.1572 10.2137 10.1971 10.076 10.2722C9.85632 10.3923 9.69629 10.5904 9.62561 10.8314C9.55457 11.0716 9.58167 11.3247 9.70178 11.5452L11.6614 15.13L7.8125 21.7881H1.06287C0.544678 21.7881 0.125 22.2081 0.125 22.7259C0.125 23.2438 0.544678 23.6638 1.06287 23.6638H7.88647L11.6211 30.1501L9.32568 33.4592C9.18323 33.6643 9.12866 33.9155 9.17297 34.1612C9.21802 34.4081 9.35571 34.6234 9.56116 34.7659C9.71863 34.8757 9.9032 34.9343 10.0947 34.9343C10.4023 34.9343 10.6913 34.7845 10.8663 34.5322L13.246 31.1059L20.7987 31.1111L24.5762 37.6637L22.2577 41.4027C21.986 41.8425 22.1218 42.4219 22.5609 42.694C22.71 42.7859 22.8806 42.8346 23.0542 42.8346C23.3812 42.8346 23.6804 42.6687 23.8522 42.3911L26.2065 38.592L33.6824 38.6052L37.7374 45.639C37.9114 45.9404 38.2263 46.1085 38.5508 46.1085C38.7097 46.1085 38.8708 46.0682 39.0184 45.9833C39.467 45.7244 39.6212 45.1509 39.3623 44.7023L35.3373 37.7208L39.1407 31.1389L43.436 31.1415C43.9528 31.1415 44.3728 30.7214 44.3739 30.2047C44.3739 29.9542 44.2765 29.7187 44.0992 29.5415C43.9227 29.3642 43.6873 29.2668 43.4371 29.2657ZM26.1974 8.67883L33.7574 8.68359L37.5334 15.2329L33.7699 21.7419L26.2098 21.7372L22.4342 15.1875L26.1974 8.67883ZM20.7797 29.2364L13.2515 29.2317L9.47546 22.682L13.2599 16.1374L20.7771 16.1422L24.5586 22.7007L20.7797 29.2364ZM33.749 36.7115L26.1893 36.7068L22.4294 30.1849L26.2087 23.6484L33.7783 23.6532L37.5334 30.1666L33.749 36.7115Z" fill="#28293D"/>
<path d="M8.72895 8.75281H8.73005C8.88569 8.75281 9.04059 8.70666 9.17719 8.63159C9.39765 8.51147 9.55732 8.31079 9.62836 8.07056C9.69867 7.82959 9.67157 7.57507 9.55146 7.35571C9.38739 7.05359 9.07135 6.86536 8.72821 6.86536C8.57257 6.86536 8.41694 6.90454 8.27997 6.98035C8.05951 7.09973 7.89911 7.29822 7.8288 7.53809C7.75849 7.77905 7.78559 8.03796 7.9057 8.25732C8.06977 8.55945 8.38581 8.75281 8.72895 8.75281Z" fill="#28293D"/>
<path d="M8.49106 36.3076C8.33359 36.1978 8.14866 36.1399 7.9564 36.1399C7.64878 36.1399 7.36094 36.2908 7.18552 36.5431C6.89109 36.9679 6.99619 37.5531 7.421 37.8486C7.57847 37.9581 7.7634 38.0164 7.95566 38.0164C8.26328 38.0164 8.55112 37.8655 8.72654 37.6132C9.02097 37.1884 8.91587 36.6031 8.49106 36.3076Z" fill="#28293D"/>
<path d="M21.5734 44.2881C21.4243 44.1962 21.2537 44.1475 21.0801 44.1475C20.7527 44.1475 20.4546 44.3137 20.2821 44.5909C20.1499 44.8041 20.1085 45.056 20.1657 45.3003C20.2232 45.5438 20.3722 45.7511 20.585 45.8826C20.734 45.9741 20.9039 46.0232 21.0783 46.0232C21.4057 46.0232 21.7037 45.8569 21.8762 45.5797C22.0084 45.3666 22.0498 45.1154 21.9927 44.8715C21.9345 44.6276 21.7861 44.4207 21.5734 44.2881Z" fill="#28293D"/>
<path d="M15.2885 8.73669C15.4071 8.80554 15.5448 8.83997 15.7136 8.83997C15.8762 8.83997 16.0278 8.80554 16.1494 8.73669C16.2714 8.66785 16.3413 8.5741 16.3413 8.45544V5.75171H18.4045V8.45544C18.4045 8.5741 18.476 8.66785 18.595 8.73669C18.7136 8.80554 18.8634 8.83997 19.0322 8.83997C19.1948 8.83997 19.3281 8.80554 19.4501 8.73669C19.572 8.66785 19.6237 8.5741 19.6237 8.45544V2.35657C19.6237 2.23169 19.5764 2.13757 19.4578 2.07495C19.3387 2.0127 19.2011 1.9812 19.0322 1.9812C18.8634 1.9812 18.7103 2.0127 18.592 2.07495C18.473 2.13757 18.4045 2.23169 18.4045 2.35657V4.81384H16.3417V2.35657C16.3417 2.23169 16.2699 2.13757 16.1512 2.07495C16.0326 2.0127 15.8824 1.9812 15.7136 1.9812C15.5448 1.9812 15.41 2.0127 15.2914 2.07495C15.1724 2.13757 15.1226 2.23169 15.1226 2.35657V8.45508C15.1222 8.5741 15.1694 8.66785 15.2885 8.73669Z" fill="#28293D"/>
<path d="M44.9717 18.6823C44.8527 18.6196 44.7179 18.5881 44.5491 18.5881C44.3802 18.5881 44.2228 18.6196 44.1041 18.6823C43.9851 18.7445 43.9122 18.8386 43.9122 18.9635V21.4127H41.849V18.9635C41.849 18.8386 41.7838 18.7445 41.6652 18.6823C41.5461 18.6196 41.3993 18.5881 41.2305 18.5881C41.0616 18.5881 40.9225 18.6196 40.8035 18.6823C40.6848 18.7445 40.6299 18.8386 40.6299 18.9635V25.062C40.6299 25.181 40.6833 25.2748 40.802 25.3436C40.921 25.4125 41.0616 25.4469 41.2308 25.4469C41.3931 25.4469 41.5399 25.4125 41.6619 25.3436C41.7838 25.2748 41.849 25.181 41.849 25.062V22.3506H43.9122V25.0624C43.9122 25.181 43.9899 25.2748 44.1085 25.3436C44.2275 25.4125 44.3802 25.4469 44.5494 25.4469C44.7117 25.4469 44.8406 25.4125 44.9622 25.3436C45.0841 25.2748 45.1313 25.181 45.1313 25.0624V18.9635C45.1313 18.8386 45.0903 18.7445 44.9717 18.6823Z" fill="#28293D"/>
<path d="M4.46619 27.4453C4.63501 27.4453 4.77527 27.4687 4.90051 27.5156C5.02576 27.5625 5.11621 27.6189 5.17883 27.6844C5.24146 27.7504 5.29126 27.8317 5.33228 27.9287C5.37256 28.0258 5.39709 28.1038 5.40625 28.1631C5.41577 28.2228 5.4231 28.2931 5.42932 28.3744C5.43555 28.6307 5.63879 28.7589 6.03906 28.7589C6.25806 28.7589 6.41443 28.7168 6.50818 28.6322C6.60193 28.5476 6.6488 28.3898 6.6488 28.1583C6.6488 27.6207 6.4408 27.189 6.02478 26.8638C5.60876 26.5386 5.07263 26.3756 4.41565 26.3756C3.77148 26.3756 3.26209 26.5496 2.86182 26.8964C2.46155 27.2435 2.27441 27.7863 2.27441 28.5242V31.1422C2.27441 31.8801 2.46008 32.4229 2.85742 32.77C3.25439 33.1168 3.76855 33.2908 4.41309 33.2908C5.07593 33.2908 5.61206 33.1216 6.02808 32.7839C6.44409 32.4463 6.65063 31.9958 6.65063 31.433C6.65063 31.2015 6.6012 31.0437 6.50415 30.9591C6.4071 30.8749 6.2489 30.8324 6.02991 30.8324C5.64832 30.8324 5.448 30.9606 5.42932 31.2169C5.4231 31.3484 5.40881 31.4597 5.38721 31.5502C5.36523 31.641 5.32422 31.7443 5.26489 31.86C5.20557 31.9757 5.10852 32.0647 4.97412 32.1273C4.83972 32.1899 4.68518 32.2211 4.48486 32.2211C3.81543 32.2211 3.4939 31.8614 3.4939 31.1422V28.5245C3.49353 27.8053 3.8092 27.4453 4.46619 27.4453Z" fill="#28293D"/>
</g>
<defs>
<clipPath id="clip0_297_5189">
<rect width="48" height="48" fill="white" transform="translate(0.125)"/>
</clipPath>
</defs>
</svg>
