<svg width="49" height="48" viewBox="0 0 49 48" fill="none" xmlns="http://www.w3.org/2000/svg">
<path d="M11.2193 18.0253L7.83647 18.0253C7.84122 19.6742 7.85305 21.2144 7.87663 22.6366C7.90497 24.368 7.94988 26.05 8.00421 27.6634C8.01605 28.0083 7.7443 28.2964 7.40188 28.3058C7.05697 28.3177 6.77113 28.0483 6.7593 27.7034C6.70497 26.1018 6.66005 24.4129 6.63172 22.6577C6.60563 21.0419 6.58914 19.4568 6.5868 17.9167C6.31514 17.8198 6.0718 17.6592 5.87105 17.4561C5.52855 17.1088 5.3183 16.6293 5.3183 16.1048C5.3183 15.5804 5.52855 15.1032 5.87105 14.7536C6.02222 14.6001 6.20172 14.4703 6.39547 14.3757C5.7388 13.5583 5.4813 12.5 5.47655 11.411C5.4718 9.97952 5.90889 8.48186 6.41197 7.45886C6.49697 7.28878 6.57022 7.14703 6.63639 7.03603C6.86555 6.64394 6.88914 6.20919 6.81355 5.79353C6.68597 5.11078 6.29613 4.46362 6.01505 4.06912C5.91347 3.9462 5.83556 3.77612 5.80714 3.61795C5.77639 3.4337 5.80481 3.25645 5.8898 3.09828C5.97722 2.93295 6.11655 2.80529 6.29847 2.73204C6.44263 2.67537 6.58197 2.6612 6.73555 2.66837C7.89538 2.75803 8.97972 3.11953 9.92696 3.6887C10.9002 4.27695 11.7294 5.08486 12.346 6.0487C12.5325 6.3392 12.4499 6.72411 12.1593 6.91086C11.8688 7.09736 11.4837 7.01244 11.2971 6.72186C10.7821 5.92111 10.0923 5.24778 9.28205 4.75878C8.72455 4.42336 8.1128 4.17528 7.46313 4.03353C7.70405 4.47295 7.93322 5.00211 8.03955 5.56903C8.16472 6.25411 8.11513 6.98161 7.71347 7.6667C7.64263 7.78961 7.58122 7.90303 7.53155 8.00461C7.09689 8.89053 6.71664 10.1802 6.7213 11.4063C6.72838 12.5306 7.06855 13.5936 8.03472 14.1583L8.0843 14.1867L10.8387 14.1867C11.2757 13.6645 11.6277 13.0692 11.8734 12.4268C12.145 11.7229 12.2939 10.9527 12.2939 10.1424C12.2939 9.80002 12.2679 9.45269 12.2135 9.11494C12.1592 8.77478 12.3907 8.45578 12.7309 8.40152C13.071 8.34703 13.39 8.57861 13.4443 8.91877C13.5081 9.32502 13.5435 9.73144 13.5435 10.1424C13.5435 11.0991 13.364 12.0204 13.0356 12.8708C12.849 13.3597 12.6128 13.8204 12.3364 14.2528C12.5631 14.3143 12.7734 14.4181 12.9576 14.5574C14.5522 12.977 16.4443 11.6945 18.5397 10.8014C20.6941 9.88269 23.061 9.37469 25.5462 9.37469C27.7076 9.37469 29.7818 9.75978 31.7046 10.466C33.696 11.1983 35.5221 12.2732 37.1118 13.6219C37.374 13.8441 37.4072 14.2364 37.1851 14.5009C36.963 14.7631 36.5686 14.7961 36.3063 14.5741C34.8275 13.3197 33.129 12.3181 31.2747 11.6378C29.4912 10.9834 27.5612 10.6244 25.5462 10.6244C23.2288 10.6244 21.0271 11.0968 19.0287 11.9496C17.0066 12.8094 15.19 14.0614 13.6735 15.6063C13.716 15.7647 13.7373 15.9323 13.7373 16.1048C13.7373 16.6293 13.527 17.1088 13.1845 17.4561C12.9837 17.6593 12.7404 17.8198 12.4687 17.9167C12.4593 23.0711 12.3317 27.8807 12.112 31.9674C12.6057 31.5068 13.175 31.1264 13.7963 30.8429C14.597 30.4767 15.483 30.2736 16.4113 30.2736C16.9853 30.2736 17.5452 30.3516 18.0838 30.5005C18.6341 30.6516 19.1539 30.876 19.6334 31.1618C19.9287 31.3368 20.0279 31.7172 19.8508 32.0124C19.6759 32.3077 19.2956 32.4069 19.0003 32.2297C18.6153 32.0029 18.1995 31.8234 17.7554 31.7005C17.3349 31.5847 16.8837 31.5234 16.4113 31.5234C15.66 31.5234 14.949 31.6863 14.3136 31.9746C13.6499 32.2768 13.0616 32.721 12.5892 33.2643C12.4097 33.4699 12.216 33.6658 12.0034 33.8359C11.9372 34.8706 11.8663 35.8461 11.7884 36.7604C11.3398 42.0566 10.5507 45.3331 9.52788 45.3331C8.7318 45.3331 8.12471 43.7527 7.73255 40.9983C7.37113 38.4872 7.07588 34.8682 6.87272 30.5405C6.85855 30.1956 7.12547 29.9051 7.46797 29.8909C7.81288 29.8745 8.10338 30.1414 8.11763 30.4863C8.31838 34.7621 8.6113 38.3408 8.96563 40.8236C9.26329 42.893 9.46413 44.0835 9.52788 44.0835C9.78529 44.0835 10.1539 41.2464 10.5435 36.6588C10.95 31.8706 11.2051 25.3011 11.2193 18.0253ZM18.7573 26.0666C20.7439 26.5153 22.518 27.5192 23.9094 28.9107C25.2984 30.2997 26.3024 32.0737 26.7513 34.0628C27.3938 33.6139 27.9395 33.0376 28.3528 32.3737C28.8938 31.4973 29.208 30.4625 29.208 29.3523C29.208 27.7649 28.5655 26.331 27.5261 25.2916C26.4867 24.2522 25.0528 23.6096 23.4654 23.6096C22.3551 23.6096 21.3204 23.9237 20.444 24.4647C19.7801 24.8782 19.2037 25.4238 18.7573 26.0666ZM23.0235 29.7941C21.6204 28.3887 19.7754 27.4295 17.7179 27.1437C17.2809 27.1107 17.0044 26.6428 17.2029 26.2413C17.784 25.0742 18.684 24.0916 19.7896 23.4065C20.8597 22.7428 22.1212 22.3599 23.4653 22.3599C25.3976 22.3599 27.1457 23.1418 28.4095 24.4081C29.6757 25.6719 30.4576 27.42 30.4576 29.3522C30.4576 30.6963 30.0749 31.9579 29.4111 33.028C28.7473 34.1004 27.8023 34.9791 26.6803 35.5602C26.5811 35.6123 26.4984 35.6571 26.3803 35.6736C26.0401 35.7186 25.7259 35.48 25.681 35.1373C25.3999 33.0659 24.4362 31.2068 23.0235 29.7941ZM34.601 38.2723C33.538 38.2723 32.5742 37.84 31.8749 37.1432C31.1781 36.4463 30.7458 35.4801 30.7458 34.4171C30.7458 33.3517 31.1781 32.388 31.8749 31.6911C32.5742 30.9917 33.538 30.5618 34.601 30.5618C35.6664 30.5618 36.6302 30.9917 37.3271 31.6911C38.0263 32.388 38.4586 33.3517 38.4586 34.4171C38.4586 35.4801 38.0263 36.4463 37.3271 37.1432C36.6302 37.84 35.6663 38.2723 34.601 38.2723ZM32.7584 36.2596C33.2308 36.7296 33.8829 37.0227 34.601 37.0227C35.3215 37.0227 35.9735 36.7296 36.4436 36.2596C36.916 35.7872 37.2066 35.1352 37.2066 34.4171C37.2066 33.6966 36.916 33.0446 36.4436 32.5746C35.9735 32.1021 35.3215 31.8116 34.601 31.8116C33.8829 31.8116 33.2309 32.1021 32.7584 32.5746C32.2883 33.0447 31.9954 33.6966 31.9954 34.4171C31.9954 35.1352 32.2883 35.7872 32.7584 36.2596ZM36.2923 28.2563C35.227 28.2563 34.2632 27.8263 33.5663 27.1271C32.867 26.4303 32.4372 25.4664 32.4372 24.401C32.4372 23.338 32.8671 22.3742 33.5663 21.6749C34.2632 20.9782 35.227 20.5458 36.2923 20.5458C37.3553 20.5458 38.3192 20.9782 39.0184 21.6749C39.7153 22.3742 40.1476 23.338 40.1476 24.401C40.1476 25.4664 39.7152 26.4303 39.0184 27.1271C38.3192 27.8263 37.3554 28.2563 36.2923 28.2563ZM34.4498 26.2437C34.9198 26.7162 35.5718 27.0067 36.2923 27.0067C37.0105 27.0067 37.6624 26.7162 38.1349 26.2437C38.605 25.7736 38.8979 25.1216 38.8979 24.4011C38.8979 23.683 38.605 23.0309 38.1349 22.5585C37.6624 22.0884 37.0104 21.7957 36.2923 21.7957C35.5718 21.7957 34.9198 22.0885 34.4498 22.5585C33.9773 23.031 33.6868 23.683 33.6868 24.4011C33.6868 25.1216 33.9773 25.7736 34.4498 26.2437ZM29.1843 20.6286C28.1189 20.6286 27.1551 20.1963 26.4582 19.4993C25.7614 18.8001 25.3291 17.8363 25.3291 16.7733C25.3291 15.708 25.7614 14.7441 26.4582 14.0472C27.1551 13.3479 28.1189 12.9179 29.1843 12.9179C30.2497 12.9179 31.2135 13.3479 31.9103 14.0472C32.6073 14.7441 33.0395 15.708 33.0395 16.7733C33.0395 17.8363 32.6073 18.8001 31.9103 19.4993C31.2135 20.1963 30.2497 20.6286 29.1843 20.6286ZM27.3417 18.6159C27.8141 19.086 28.4638 19.3789 29.1843 19.3789C29.9048 19.3789 30.5543 19.0859 31.0268 18.6159C31.4993 18.1434 31.7898 17.4914 31.7898 16.7733C31.7898 16.0528 31.4993 15.4009 31.0268 14.9309C30.5543 14.4584 29.9048 14.1679 29.1843 14.1679C28.4638 14.1679 27.8142 14.4584 27.3417 14.9309C26.8716 15.401 26.5787 16.0528 26.5787 16.7733C26.5788 17.4913 26.8717 18.1434 27.3417 18.6159ZM19.069 21.7223C18.006 21.7223 17.0422 21.29 16.343 20.5931C15.6461 19.8938 15.2138 18.93 15.2138 17.867C15.2138 16.8016 15.6461 15.8378 16.343 15.1387C17.0422 14.4418 18.006 14.0094 19.069 14.0094C20.1344 14.0094 21.0983 14.4418 21.7974 15.1387C22.4944 15.8379 22.9266 16.8016 22.9266 17.867C22.9266 18.93 22.4944 19.8938 21.7974 20.5931C21.0983 21.29 20.1344 21.7223 19.069 21.7223ZM17.2289 19.7095C17.6989 20.1798 18.3509 20.4727 19.069 20.4727C19.7895 20.4727 20.4415 20.1797 20.9116 19.7095C21.384 19.2372 21.6746 18.5852 21.6746 17.8671C21.6746 17.1466 21.384 16.4945 20.9116 16.0245C20.4414 15.5522 19.7895 15.2615 19.069 15.2615C18.3509 15.2615 17.6989 15.5522 17.2289 16.0245C16.7565 16.4946 16.4659 17.1466 16.4659 17.8671C16.4659 18.5851 16.7565 19.2372 17.2289 19.7095ZM38.2318 16.5017C38.0097 16.2372 38.0428 15.8449 38.3051 15.6207C38.5697 15.3985 38.9617 15.4315 39.1838 15.6938C40.5327 17.2836 41.6099 19.1096 42.3398 21.1012C43.0462 23.024 43.4312 25.0979 43.4312 27.2618C43.4312 32.199 41.428 36.6708 38.1917 39.9071C34.9553 43.1434 30.4835 45.1465 25.5464 45.1465C24.6488 45.1465 23.7605 45.0615 22.8724 44.9458C22.1708 44.8536 21.5754 44.641 21.103 44.3315C20.1084 43.682 19.6691 42.619 19.8203 41.452C19.9054 40.7928 20.1769 40.0841 20.6541 39.3566C20.9187 38.9503 21.1266 38.5061 21.2684 38.0361C21.403 37.5801 21.4762 37.0935 21.4762 36.588C21.4762 36.1155 21.4148 35.6643 21.299 35.2437C21.1762 34.7997 20.9967 34.3841 20.7699 33.999C20.595 33.7036 20.6919 33.3234 20.9872 33.1486C21.2825 32.9713 21.6628 33.0706 21.8376 33.3658C22.1258 33.8453 22.3479 34.3651 22.4991 34.9155C22.6479 35.4541 22.7259 36.014 22.7259 36.588C22.7259 37.2092 22.6338 37.8141 22.4637 38.3881C22.2865 38.9833 22.0266 39.5386 21.6983 40.0416C21.3274 40.6086 21.1172 41.1401 21.0558 41.6126C20.966 42.3119 21.188 42.8954 21.7857 43.2875C22.1094 43.4977 22.5274 43.6442 23.033 43.7103C23.8645 43.819 24.7055 43.897 25.5465 43.897C30.1388 43.897 34.2987 42.0353 37.3082 39.0236C40.3202 36.0141 42.1816 31.8542 42.1816 27.2617C42.1816 25.2443 41.8225 23.3145 41.1682 21.5309C40.4877 19.6764 39.4862 17.978 38.2318 16.5017ZM7.21289 16.7733L11.843 16.7733C12.0201 16.7733 12.1808 16.7 12.2965 16.5818C12.4146 16.4614 12.4879 16.2913 12.4879 16.1048C12.4879 15.9181 12.4146 15.748 12.2965 15.6275C12.1808 15.5093 12.0201 15.4361 11.843 15.4361L7.21289 15.4361C7.03572 15.4361 6.87514 15.5093 6.75939 15.6275C6.6413 15.7479 6.56805 15.918 6.56805 16.1048C6.56805 16.2913 6.6413 16.4613 6.75939 16.5818C6.87505 16.7 7.03572 16.7733 7.21289 16.7733Z" fill="#28293D"/>
</svg>
