<svg width="49" height="48" viewBox="0 0 49 48" fill="none" xmlns="http://www.w3.org/2000/svg">
<path d="M45.407 13.2839C45.2671 13.1433 45.0773 13.0636 44.8789 13.0622C44.6806 13.0608 44.4897 13.1379 44.3479 13.2766C43.9376 13.63 43.4886 13.9358 43.0095 14.1882L38.7177 9.8965C38.5762 9.76015 38.3868 9.68478 38.1903 9.68661C37.9938 9.68845 37.8059 9.76732 37.6669 9.90629C37.528 10.0452 37.4491 10.2332 37.4473 10.4297C37.4455 10.6262 37.5209 10.8156 37.6572 10.9571L41.5729 14.8728C40.7352 15.2074 39.8732 15.4779 38.9945 15.6818L32.9421 9.62944C33.8272 5.91451 35.3164 4.3105 35.3486 4.27736C35.4881 4.13652 35.566 3.94617 35.5655 3.74797C35.565 3.54977 35.4859 3.35985 35.3457 3.21976C34.3104 1.82016 30.6078 7.15179 30.806 16.2467C28.5739 16.0317 25.8746 15.6911 23.8808 16.3642C22.4391 16.8049 21.1163 17.5674 20.0123 18.5942C18.9083 19.6209 18.052 20.885 17.5081 22.2911C16.3616 25.1145 15.8015 28.1416 15.8618 31.1882C13.0091 30.7622 7.68079 31.1165 4.81076 33.5786C4.21632 34.1396 3.01565 35.2561 4.02285 35.9371C4.6971 36.2644 5.00056 35.6821 5.32216 35.1982L9.64609 39.5215C9.71573 39.5912 9.7984 39.6464 9.88938 39.6841C9.98037 39.7218 10.0779 39.7412 10.1764 39.7412C10.2748 39.7412 10.3724 39.7218 10.4633 39.6841C10.5543 39.6464 10.637 39.5912 10.7066 39.5215C10.7763 39.4519 10.8315 39.3692 10.8692 39.2782C10.9069 39.1872 10.9263 39.0897 10.9263 38.9912C10.9263 38.8928 10.9069 38.7952 10.8692 38.7043C10.8315 38.6133 10.7763 38.5306 10.7066 38.461L6.46601 34.221C7.20456 33.7754 7.99966 33.4312 8.82995 33.1975L15.428 39.7948C14.9153 41.5244 14.1099 42.9963 12.998 43.5879C12.9108 43.634 12.8336 43.6969 12.7708 43.7729C12.7079 43.849 12.6607 43.9366 12.6318 44.0309C12.6029 44.1252 12.5929 44.2243 12.6023 44.3225C12.6117 44.4207 12.6404 44.516 12.6867 44.6031C12.7331 44.6902 12.7961 44.7672 12.8723 44.8299C12.9484 44.8926 13.0362 44.9396 13.1306 44.9683C13.2249 44.997 13.324 45.0068 13.4222 44.9972C13.5203 44.9876 13.6156 44.9586 13.7026 44.9121C17.2336 43.0335 17.9144 36.2227 17.4826 33.1626C17.4669 33.051 17.4514 32.9165 17.4372 32.7636C21.2039 32.8391 27.9391 31.8487 30.8634 27.6133C32.8857 25.0885 32.8562 21.2759 32.3779 17.8196C41.4695 18.0169 46.7913 14.3238 45.407 13.2839ZM15.9973 33.3721C16.1754 34.9391 16.1185 36.5239 15.8282 38.0741L10.5509 32.7973C12.1012 32.5071 13.6863 32.45 15.2535 32.6279C15.4426 32.6546 15.675 32.6781 15.9261 32.6992C15.9472 32.9504 15.9706 33.1829 15.9973 33.3721ZM17.3698 31.2561C17.3281 28.7509 17.7078 26.2566 18.493 23.8773L22.8279 28.2122C22.8975 28.2818 22.9802 28.337 23.0712 28.3747C23.1622 28.4124 23.2597 28.4318 23.3582 28.4318C23.4566 28.4318 23.5542 28.4124 23.6451 28.3747C23.7361 28.337 23.8188 28.2818 23.8884 28.2122C23.9581 28.1425 24.0133 28.0599 24.051 27.9689C24.0887 27.8779 24.1081 27.7804 24.1081 27.6819C24.1081 27.5834 24.0887 27.4859 24.051 27.3949C24.0133 27.3039 23.9581 27.2213 23.8884 27.1516L19.1148 22.378C19.2978 22.0114 19.5008 21.6551 19.7229 21.3107L27.3148 28.9029C26.1249 29.6396 24.829 30.189 23.4722 30.5319L20.5116 27.5713C20.37 27.4352 20.1807 27.3601 19.9844 27.3621C19.788 27.364 19.6003 27.4429 19.4614 27.5817C19.3226 27.7206 19.2437 27.9083 19.2418 28.1047C19.2399 28.301 19.315 28.4903 19.4511 28.6319L21.728 30.9088C20.2883 31.1528 18.8299 31.269 17.3698 31.2561H17.3698ZM31.0808 20.0493C31.3935 22.0321 31.0827 24.063 30.1912 25.8614L24.8164 20.4866C24.6757 20.3459 24.485 20.2669 24.2861 20.2669C24.0872 20.2669 23.8965 20.3459 23.7558 20.4866C23.6152 20.6272 23.5362 20.818 23.5362 21.0169C23.5362 21.2157 23.6152 21.4065 23.7558 21.5471L29.3439 27.1352C29.1715 27.3433 28.6097 27.902 28.5176 27.9846L20.6411 20.1079C21.5197 19.0955 22.6576 18.3417 23.9324 17.9275L27.3154 21.3098C27.457 21.4459 27.6463 21.5211 27.8426 21.5192C28.039 21.5172 28.2268 21.4384 28.3657 21.2995C28.5045 21.1606 28.5834 20.9728 28.5853 20.7765C28.5872 20.5801 28.512 20.3908 28.3759 20.2492L25.6647 17.5385C27.2552 17.2852 29.2363 17.6647 30.8702 17.7553C30.9169 18.4887 30.9851 19.2516 31.0808 20.0493ZM32.315 16.3094C32.2657 14.6689 32.3593 13.0273 32.5947 11.4031L37.2206 16.029C35.5966 16.2646 33.9552 16.3584 32.315 16.3094Z" fill="#28293D"/>
</svg>
