<svg width="48" height="48" viewBox="0 0 48 48" fill="none" xmlns="http://www.w3.org/2000/svg">
<path d="M47.2727 23.2695H43.6364V12.3604C43.6329 12.2443 43.6015 12.1308 43.5447 12.0295C43.488 11.9283 43.4077 11.8422 43.3106 11.7785L34.5833 5.96036C34.4744 5.88667 34.3472 5.84442 34.2158 5.83826C34.0845 5.83211 33.9539 5.86227 33.8386 5.92545C33.7223 5.98698 33.6251 6.07913 33.5574 6.19193C33.4897 6.30474 33.4541 6.4339 33.4546 6.56545V17.4513H32V0.723993C31.9995 0.603512 31.969 0.485054 31.9114 0.379262C31.8537 0.273469 31.7707 0.183657 31.6697 0.117894C31.5688 0.0521316 31.4531 0.0124789 31.333 0.00249934C31.2129 -0.00748022 31.0923 0.0125257 30.9818 0.0607197L17.8909 5.8789C17.7617 5.93528 17.6517 6.02799 17.5742 6.14574C17.4968 6.2635 17.4552 6.40123 17.4546 6.54218V8.724H15.2727C15.0798 8.724 14.8949 8.80062 14.7585 8.93701C14.6221 9.0734 14.5455 9.25838 14.5455 9.45127V29.0876H13.0909V17.1836C13.092 17.04 13.0498 16.8994 12.9699 16.7801C12.8901 16.6608 12.7761 16.5682 12.6429 16.5145L1.00655 11.6913C0.894955 11.6471 0.773981 11.6319 0.654934 11.6472C0.535886 11.6624 0.422652 11.7076 0.325819 11.7785C0.228706 11.8422 0.148377 11.9283 0.0916549 12.0295C0.0349323 12.1308 0.00349079 12.2443 0 12.3604V47.2695C0 47.4623 0.0766232 47.6473 0.213013 47.7837C0.349404 47.9201 0.534388 47.9967 0.727273 47.9967H47.2727C47.4656 47.9967 47.6506 47.9201 47.787 47.7837C47.9234 47.6473 48 47.4623 48 47.2695V23.9967C48 23.8038 47.9234 23.6189 47.787 23.4825C47.6506 23.3461 47.4656 23.2695 47.2727 23.2695V23.2695ZM34.9091 7.90363L42.1818 12.7502V23.2695H37.8182V18.1785C37.8182 17.9857 37.7416 17.8007 37.6052 17.6643C37.4688 17.5279 37.2838 17.4513 37.0909 17.4513H34.9091V7.90363ZM18.9091 7.01345L30.5455 1.84108V8.724H18.9091V7.01345ZM5.81818 29.8149V46.5422H1.45455V13.4484L11.6364 17.6665V29.0876H6.54546C6.35257 29.0876 6.16759 29.1643 6.0312 29.3007C5.89481 29.437 5.81818 29.622 5.81818 29.8149V29.8149ZM7.27273 30.5422H17.4546V46.5422H15.1622V41.5036C15.1622 41.3108 15.0856 41.1258 14.9492 40.9894C14.8128 40.853 14.6278 40.7764 14.4349 40.7764H10.2924C10.0995 40.7764 9.9145 40.853 9.77811 40.9894C9.64172 41.1258 9.5651 41.3108 9.5651 41.5036V46.5422H7.27273V30.5422ZM11.0196 46.4898V42.2309H13.7076V46.4898H11.0196ZM23.2727 18.1785V46.5422H18.9091V29.8149C18.9091 29.622 18.8325 29.437 18.6961 29.3007C18.5597 29.1643 18.3747 29.0876 18.1818 29.0876H16V10.1785H30.5455V17.4513H24C23.8071 17.4513 23.6221 17.5279 23.4858 17.6643C23.3494 17.8007 23.2727 17.9857 23.2727 18.1785V18.1785ZM24.7273 18.9058H36.3637V46.5422H33.344V41.5036C33.344 41.3108 33.2674 41.1258 33.131 40.9894C32.9946 40.853 32.8096 40.7764 32.6167 40.7764H28.4742C28.2813 40.7764 28.0963 40.853 27.9599 40.9894C27.8235 41.1258 27.7469 41.3108 27.7469 41.5036V46.5422H24.7273V18.9058ZM29.2015 46.4898V42.2309H31.8895V46.4898H29.2015ZM46.5455 46.5422H37.8182V24.724H46.5455V46.5422Z" fill="white"/>
<path d="M26.2341 23.2695H29.1432C29.3361 23.2695 29.5211 23.1929 29.6575 23.0565C29.7939 22.9201 29.8705 22.7351 29.8705 22.5422C29.8705 22.3493 29.7939 22.1643 29.6575 22.028C29.5211 21.8916 29.3361 21.8149 29.1432 21.8149H26.2341C26.0412 21.8149 25.8562 21.8916 25.7198 22.028C25.5835 22.1643 25.5068 22.3493 25.5068 22.5422C25.5068 22.7351 25.5835 22.9201 25.7198 23.0565C25.8562 23.1929 26.0412 23.2695 26.2341 23.2695V23.2695Z" fill="white"/>
<path d="M31.948 23.2695H34.8571C35.05 23.2695 35.2349 23.1929 35.3713 23.0565C35.5077 22.9201 35.5843 22.7351 35.5843 22.5422C35.5843 22.3493 35.5077 22.1643 35.3713 22.028C35.2349 21.8916 35.05 21.8149 34.8571 21.8149H31.948C31.7551 21.8149 31.5701 21.8916 31.4337 22.028C31.2973 22.1643 31.2207 22.3493 31.2207 22.5422C31.2207 22.7351 31.2973 22.9201 31.4337 23.0565C31.5701 23.1929 31.7551 23.2695 31.948 23.2695V23.2695Z" fill="white"/>
<path d="M26.2341 27.2434H29.1432C29.3361 27.2434 29.5211 27.1667 29.6575 27.0303C29.7939 26.894 29.8705 26.709 29.8705 26.5161C29.8705 26.3232 29.7939 26.1382 29.6575 26.0018C29.5211 25.8654 29.3361 25.7888 29.1432 25.7888H26.2341C26.0412 25.7888 25.8562 25.8654 25.7198 26.0018C25.5835 26.1382 25.5068 26.3232 25.5068 26.5161C25.5068 26.709 25.5835 26.894 25.7198 27.0303C25.8562 27.1667 26.0412 27.2434 26.2341 27.2434V27.2434Z" fill="white"/>
<path d="M31.948 27.2434H34.8571C35.05 27.2434 35.2349 27.1667 35.3713 27.0303C35.5077 26.894 35.5843 26.709 35.5843 26.5161C35.5843 26.3232 35.5077 26.1382 35.3713 26.0018C35.2349 25.8654 35.05 25.7888 34.8571 25.7888H31.948C31.7551 25.7888 31.5701 25.8654 31.4337 26.0018C31.2973 26.1382 31.2207 26.3232 31.2207 26.5161C31.2207 26.709 31.2973 26.894 31.4337 27.0303C31.5701 27.1667 31.7551 27.2434 31.948 27.2434V27.2434Z" fill="white"/>
<path d="M26.2341 31.2229H29.1432C29.3361 31.2229 29.5211 31.1462 29.6575 31.0098C29.7939 30.8735 29.8705 30.6885 29.8705 30.4956C29.8705 30.3027 29.7939 30.1177 29.6575 29.9813C29.5211 29.8449 29.3361 29.7683 29.1432 29.7683H26.2341C26.0412 29.7683 25.8562 29.8449 25.7198 29.9813C25.5835 30.1177 25.5068 30.3027 25.5068 30.4956C25.5068 30.6885 25.5835 30.8735 25.7198 31.0098C25.8562 31.1462 26.0412 31.2229 26.2341 31.2229V31.2229Z" fill="white"/>
<path d="M31.948 31.2229H34.8571C35.05 31.2229 35.2349 31.1462 35.3713 31.0098C35.5077 30.8735 35.5843 30.6885 35.5843 30.4956C35.5843 30.3027 35.5077 30.1177 35.3713 29.9813C35.2349 29.8449 35.05 29.7683 34.8571 29.7683H31.948C31.7551 29.7683 31.5701 29.8449 31.4337 29.9813C31.2973 30.1177 31.2207 30.3027 31.2207 30.4956C31.2207 30.6885 31.2973 30.8735 31.4337 31.0098C31.5701 31.1462 31.7551 31.2229 31.948 31.2229V31.2229Z" fill="white"/>
<path d="M29.1432 35.2026C29.3361 35.2026 29.5211 35.126 29.6575 34.9896C29.7939 34.8532 29.8705 34.6682 29.8705 34.4753C29.8705 34.2824 29.7939 34.0974 29.6575 33.9611C29.5211 33.8247 29.3361 33.748 29.1432 33.748H26.2341C26.0412 33.748 25.8562 33.8247 25.7198 33.9611C25.5835 34.0974 25.5068 34.2824 25.5068 34.4753C25.5068 34.6682 25.5835 34.8532 25.7198 34.9896C25.8562 35.126 26.0412 35.2026 26.2341 35.2026H29.1432Z" fill="white"/>
<path d="M31.948 35.2026H34.8571C35.05 35.2026 35.2349 35.126 35.3713 34.9896C35.5077 34.8532 35.5843 34.6682 35.5843 34.4753C35.5843 34.2824 35.5077 34.0974 35.3713 33.9611C35.2349 33.8247 35.05 33.748 34.8571 33.748H31.948C31.7551 33.748 31.5701 33.8247 31.4337 33.9611C31.2973 34.0974 31.2207 34.2824 31.2207 34.4753C31.2207 34.6682 31.2973 34.8532 31.4337 34.9896C31.5701 35.126 31.7551 35.2026 31.948 35.2026V35.2026Z" fill="white"/>
<path d="M9.45481 33.4514H15.273C15.4659 33.4514 15.6509 33.3747 15.7873 33.2384C15.9236 33.102 16.0003 32.917 16.0003 32.7241C16.0003 32.5312 15.9236 32.3462 15.7873 32.2098C15.6509 32.0735 15.4659 31.9968 15.273 31.9968H9.45481C9.26193 31.9968 9.07694 32.0735 8.94055 32.2098C8.80416 32.3462 8.72754 32.5312 8.72754 32.7241C8.72754 32.917 8.80416 33.102 8.94055 33.2384C9.07694 33.3747 9.26193 33.4514 9.45481 33.4514Z" fill="white"/>
<path d="M9.45481 36.3605H15.273C15.4659 36.3605 15.6509 36.2839 15.7873 36.1475C15.9236 36.0111 16.0003 35.8262 16.0003 35.6333C16.0003 35.4404 15.9236 35.2554 15.7873 35.119C15.6509 34.9826 15.4659 34.906 15.273 34.906H9.45481C9.26193 34.906 9.07694 34.9826 8.94055 35.119C8.80416 35.2554 8.72754 35.4404 8.72754 35.6333C8.72754 35.8262 8.80416 36.0111 8.94055 36.1475C9.07694 36.2839 9.26193 36.3605 9.45481 36.3605Z" fill="white"/>
<path d="M15.273 39.2695C15.4659 39.2695 15.6509 39.1929 15.7873 39.0565C15.9236 38.9201 16.0003 38.7351 16.0003 38.5422C16.0003 38.3493 15.9236 38.1643 15.7873 38.028C15.6509 37.8916 15.4659 37.8149 15.273 37.8149H9.45481C9.26193 37.8149 9.07694 37.8916 8.94055 38.028C8.80416 38.1643 8.72754 38.3493 8.72754 38.5422C8.72754 38.7351 8.80416 38.9201 8.94055 39.0565C9.07694 39.1929 9.26193 39.2695 9.45481 39.2695H15.273Z" fill="white"/>
<path d="M3.63645 18.9057H7.61609C7.80898 18.9057 7.99396 18.8291 8.13035 18.6927C8.26674 18.5563 8.34336 18.3713 8.34336 18.1784C8.34336 17.9856 8.26674 17.8006 8.13035 17.6642C7.99396 17.5278 7.80898 17.4512 7.61609 17.4512H3.63645C3.44357 17.4512 3.25858 17.5278 3.12219 17.6642C2.9858 17.8006 2.90918 17.9856 2.90918 18.1784C2.90918 18.3713 2.9858 18.5563 3.12219 18.6927C3.25858 18.8291 3.44357 18.9057 3.63645 18.9057Z" fill="white"/>
<path d="M3.63645 21.6694H7.61609C7.80898 21.6694 7.99396 21.5928 8.13035 21.4564C8.26674 21.32 8.34336 21.135 8.34336 20.9421C8.34336 20.7492 8.26674 20.5642 8.13035 20.4279C7.99396 20.2915 7.80898 20.2148 7.61609 20.2148H3.63645C3.44357 20.2148 3.25858 20.2915 3.12219 20.4279C2.9858 20.5642 2.90918 20.7492 2.90918 20.9421C2.90918 21.135 2.9858 21.32 3.12219 21.4564C3.25858 21.5928 3.44357 21.6694 3.63645 21.6694V21.6694Z" fill="white"/>
<path d="M3.63645 24.468H7.61609C7.80898 24.468 7.99396 24.3913 8.13035 24.255C8.26674 24.1186 8.34336 23.9336 8.34336 23.7407C8.34336 23.5478 8.26674 23.3628 8.13035 23.2264C7.99396 23.0901 7.80898 23.0134 7.61609 23.0134H3.63645C3.44357 23.0134 3.25858 23.0901 3.12219 23.2264C2.9858 23.3628 2.90918 23.5478 2.90918 23.7407C2.90918 23.9336 2.9858 24.1186 3.12219 24.255C3.25858 24.3913 3.44357 24.468 3.63645 24.468Z" fill="white"/>
<path d="M8.34336 26.5161C8.34336 26.3232 8.26674 26.1382 8.13035 26.0018C7.99396 25.8654 7.80898 25.7888 7.61609 25.7888H3.63645C3.44357 25.7888 3.25858 25.8654 3.12219 26.0018C2.9858 26.1382 2.90918 26.3232 2.90918 26.5161C2.90918 26.709 2.9858 26.894 3.12219 27.0303C3.25858 27.1667 3.44357 27.2434 3.63645 27.2434H7.61609C7.71181 27.2441 7.80673 27.2259 7.89532 27.1896C7.98391 27.1533 8.06439 27.0998 8.13208 27.0321C8.19977 26.9644 8.25331 26.8839 8.28958 26.7953C8.32586 26.7067 8.34414 26.6118 8.34336 26.5161V26.5161Z" fill="white"/>
<path d="M40.7275 27.0979C40.7275 27.2908 40.8042 27.4757 40.9406 27.6121C41.0769 27.7485 41.2619 27.8252 41.4548 27.8252H44.3639C44.5568 27.8252 44.7418 27.7485 44.8782 27.6121C45.0146 27.4757 45.0912 27.2908 45.0912 27.0979C45.0912 26.905 45.0146 26.72 44.8782 26.5836C44.7418 26.4472 44.5568 26.3706 44.3639 26.3706H41.4548C41.2619 26.3706 41.0769 26.4472 40.9406 26.5836C40.8042 26.72 40.7275 26.905 40.7275 27.0979Z" fill="white"/>
<path d="M44.3639 30.1873H41.4548C41.2619 30.1873 41.0769 30.2639 40.9406 30.4003C40.8042 30.5367 40.7275 30.7216 40.7275 30.9145C40.7275 31.1074 40.8042 31.2924 40.9406 31.4288C41.0769 31.5652 41.2619 31.6418 41.4548 31.6418H44.3639C44.5568 31.6418 44.7418 31.5652 44.8782 31.4288C45.0146 31.2924 45.0912 31.1074 45.0912 30.9145C45.0912 30.7216 45.0146 30.5367 44.8782 30.4003C44.7418 30.2639 44.5568 30.1873 44.3639 30.1873V30.1873Z" fill="white"/>
<path d="M44.3639 33.9983H41.4548C41.2619 33.9983 41.0769 34.0749 40.9406 34.2113C40.8042 34.3477 40.7275 34.5327 40.7275 34.7256C40.7275 34.9184 40.8042 35.1034 40.9406 35.2398C41.0769 35.3762 41.2619 35.4528 41.4548 35.4528H44.3639C44.5568 35.4528 44.7418 35.3762 44.8782 35.2398C45.0146 35.1034 45.0912 34.9184 45.0912 34.7256C45.0912 34.5327 45.0146 34.3477 44.8782 34.2113C44.7418 34.0749 44.5568 33.9983 44.3639 33.9983Z" fill="white"/>
<path d="M44.3639 37.8149H41.4548C41.2619 37.8149 41.0769 37.8916 40.9406 38.028C40.8042 38.1643 40.7275 38.3493 40.7275 38.5422C40.7275 38.7351 40.8042 38.9201 40.9406 39.0565C41.0769 39.1929 41.2619 39.2695 41.4548 39.2695H44.3639C44.5568 39.2695 44.7418 39.1929 44.8782 39.0565C45.0146 38.9201 45.0912 38.7351 45.0912 38.5422C45.0912 38.3493 45.0146 38.1643 44.8782 38.028C44.7418 37.8916 44.5568 37.8149 44.3639 37.8149Z" fill="white"/>
</svg>
