<svg width="48" height="48" viewBox="0 0 48 48" fill="none" xmlns="http://www.w3.org/2000/svg">
<g clip-path="url(#clip0_381_5838)">
<path d="M34.091 24.5874C34.0083 24.3047 33.7957 24.0738 33.5133 23.9705C33.4563 23.9496 32.9942 23.7861 32.2764 23.6811C35.3428 20.4184 34.3304 16.6064 34.091 15.8619C34.0083 15.5791 33.7957 15.3482 33.5133 15.2449C33.3816 15.1967 31.0865 14.3874 28.4717 15.2975C28.6193 14.6917 28.7057 14.0258 28.7057 13.2951C28.7057 8.62011 25.1654 6.5653 24.4549 6.20052C24.1965 6.05896 23.8827 6.04602 23.6101 6.17277C23.4343 6.25443 19.3042 8.23096 19.3042 13.2951C19.3042 14.0273 19.3909 14.6946 19.5392 15.3013C16.9197 14.3852 14.6184 15.1966 14.4866 15.2449C14.2041 15.3482 13.9916 15.5791 13.9088 15.8619C13.6695 16.6064 12.6571 20.4184 15.7234 23.6811C15.0057 23.7861 14.5436 23.9496 14.4866 23.9705C14.2041 24.0738 13.9915 24.3048 13.9087 24.5875C13.6644 25.3475 12.6138 29.3042 15.9197 32.61C17.8327 34.523 19.956 34.9794 21.5467 34.9794C22.1357 34.9794 22.6504 34.9167 23.0557 34.8423V40.9766C23.0557 41.4943 23.4754 41.9141 23.9932 41.9141C24.511 41.9141 24.9307 41.4943 24.9307 40.9766V34.8399C25.3379 34.9153 25.8577 34.9793 26.453 34.9793C28.0437 34.9793 30.1672 34.5228 32.0801 32.6099C35.3859 29.304 34.3353 25.3475 34.091 24.5874ZM23.0557 31.9198C23.0349 32.3453 22.9752 32.703 22.9181 32.9601C21.916 33.1828 19.4087 33.4474 17.2456 31.2841C15.1149 29.1536 15.3382 26.6879 15.5741 25.612C16.2042 25.4751 17.4337 25.3224 18.795 25.7642C18.8846 25.7977 18.9739 25.8294 19.0628 25.859C19.7837 26.1323 20.5322 26.5786 21.2417 27.2879C22.5934 28.6397 22.9971 30.1256 23.0557 31.2943V31.9198ZM23.0557 23.1944C23.0349 23.6199 22.9752 23.9776 22.9181 24.2346C22.2972 24.3727 21.0985 24.526 19.7619 24.1088C19.6264 24.0566 19.4917 24.0091 19.3579 23.9661C18.6587 23.6899 17.9347 23.2477 17.2455 22.5586C15.1149 20.428 15.3382 17.9624 15.5741 16.8866C16.5752 16.6689 19.0895 16.4104 21.2417 18.5625C21.2553 18.5762 21.2677 18.59 21.2811 18.6035C21.3633 18.6958 21.4458 18.784 21.5282 18.8688C22.6503 20.1354 23.0015 21.4879 23.0557 22.5689V23.1944V23.1944ZM24.0064 18.4906C23.7126 18.3021 23.2892 17.9915 22.8592 17.5426C22.8153 17.4945 22.771 17.4464 22.7254 17.3985C21.9422 16.5284 21.1791 15.1937 21.1791 13.2951C21.1791 10.2392 23.1347 8.65358 24.0002 8.10158C24.927 8.69464 26.8306 10.2802 26.8306 13.2951C26.8306 15.0867 26.1583 16.3722 25.4278 17.2411C25.2759 17.3931 25.1338 17.5467 24.9998 17.701C24.625 18.0654 24.266 18.3252 24.0064 18.4906ZM24.9365 22.8906C24.9352 21.7899 25.2199 20.3334 26.3856 18.9656C26.5237 18.8284 26.6626 18.6807 26.8002 18.522C28.9515 16.406 31.4295 16.6644 32.4253 16.8847C32.6613 17.9596 32.8861 20.4268 30.7542 22.5586C30.0662 23.2466 29.3436 23.6884 28.6457 23.9647C28.5096 24.0084 28.3727 24.0567 28.2348 24.1099C26.8984 24.5264 25.7005 24.3725 25.082 24.2349C25.0127 23.9225 24.9392 23.4635 24.9364 22.9145C24.9364 22.9065 24.9365 22.8985 24.9365 22.8906ZM30.7542 31.2841C28.5906 33.4477 26.0833 33.1827 25.0835 32.9609C24.8656 31.9636 24.602 29.444 26.7581 27.2879C27.4479 26.5981 28.1725 26.1559 28.8722 25.8797C29.0057 25.8367 29.1401 25.7895 29.2752 25.7374C30.6089 25.3211 31.8048 25.473 32.4253 25.6101C32.6613 26.6851 32.8861 29.1523 30.7542 31.2841Z" fill="white"/>
<path d="M29.0021 0.522281C27.368 0.175781 25.685 0 24 0C17.5894 0 11.5625 2.49638 7.02947 7.02947C2.49647 11.5625 0 17.5894 0 24C0 29.3417 1.79719 34.556 5.0715 38.7545C4.70316 39.3243 4.50487 39.988 4.50487 40.6827C4.50487 41.6343 4.87547 42.5288 5.54831 43.2018C6.22116 43.8746 7.11581 44.2452 8.06738 44.2452C9.01894 44.2452 9.91359 43.8746 10.5864 43.2018C11.2594 42.5288 11.6299 41.6343 11.6299 40.6827C11.6299 39.7312 11.2593 38.8366 10.5864 38.1637C9.91359 37.4907 9.01894 37.1201 8.06738 37.1201C7.50338 37.1201 6.95972 37.2513 6.47006 37.4975C3.50269 33.6455 1.875 28.8807 1.875 24C1.875 11.8002 11.8002 1.875 24 1.875C25.5546 1.875 27.1066 2.037 28.6132 2.3565C29.12 2.46384 29.6173 2.14031 29.7247 1.63387C29.8322 1.12734 29.5087 0.629719 29.0021 0.522281ZM6.87412 39.4894C7.20309 39.1603 7.63519 38.9959 8.06738 38.9959C8.49956 38.9959 8.93166 39.1604 9.26062 39.4894C9.57937 39.808 9.75488 40.2319 9.75488 40.6826C9.75488 41.1334 9.57937 41.5571 9.26062 41.8759C8.60269 42.534 7.53206 42.5338 6.87412 41.8759C6.55537 41.5572 6.37988 41.1334 6.37988 40.6826C6.37988 40.2319 6.55537 39.8081 6.87412 39.4894Z" fill="white"/>
<path d="M42.9281 9.24563C43.2965 8.67582 43.4947 8.01207 43.4947 7.31738C43.4947 6.36582 43.1241 5.47116 42.4513 4.79832C41.7785 4.12538 40.8838 3.75488 39.9322 3.75488C38.9807 3.75488 38.086 4.12548 37.4132 4.79832C36.7403 5.47116 36.3697 6.36582 36.3697 7.31738C36.3697 8.26895 36.7403 9.1636 37.4132 9.83644C38.086 10.5094 38.9807 10.8799 39.9322 10.8799C40.4963 10.8799 41.0399 10.7487 41.5296 10.5025C44.4969 14.3546 46.1246 19.1194 46.1246 24.0001C46.1246 36.1999 36.1994 46.1251 23.9996 46.1251C22.6872 46.1251 21.3723 46.0094 20.0914 45.7811C19.5819 45.6905 19.0947 46.0298 19.004 46.5397C18.9131 47.0494 19.2527 47.5362 19.7624 47.6271C21.1517 47.8746 22.5772 48.0001 23.9996 48.0001C30.4102 48.0001 36.4371 45.5036 40.9702 40.9707C45.5033 36.4378 47.9996 30.4107 47.9996 24.0001C47.9996 18.6584 46.2024 13.4441 42.9281 9.24563ZM41.1256 8.51063C40.8069 8.82938 40.3831 9.00488 39.9323 9.00488C39.4816 9.00488 39.0577 8.82948 38.7391 8.51063C38.0811 7.8527 38.0811 6.78216 38.7391 6.12413C39.0577 5.80538 39.4816 5.62988 39.9323 5.62988C40.3831 5.62988 40.8068 5.80538 41.1256 6.12413C41.4443 6.44279 41.6198 6.86663 41.6198 7.31738C41.6198 7.76813 41.4443 8.19188 41.1256 8.51063Z" fill="white"/>
<path d="M15.7624 44.5407L15.4084 45.4089L15.7598 44.5397C15.2795 44.3458 14.7334 44.5775 14.5393 45.0575C14.3452 45.5375 14.5771 46.084 15.0571 46.2781L15.086 46.2895C15.1966 46.3318 15.3104 46.3519 15.4223 46.3519C15.7999 46.3519 16.1569 46.1233 16.2997 45.7505C16.485 45.2668 16.246 44.7259 15.7624 44.5407Z" fill="white"/>
<path d="M32.9833 1.7383L32.9667 1.73164C32.486 1.53927 31.9404 1.77317 31.748 2.25392C31.5556 2.73467 31.7895 3.28011 32.2703 3.47249L32.281 3.4768C32.3961 3.5233 32.5149 3.54524 32.6319 3.54524C33.0028 3.54524 33.3539 3.32371 33.5014 2.95874C33.6954 2.47864 33.4634 1.93227 32.9833 1.7383Z" fill="white"/>
</g>
<defs>
<clipPath id="clip0_381_5838">
<rect width="48" height="48" fill="white"/>
</clipPath>
</defs>
</svg>
