<svg width="49" height="48" viewBox="0 0 49 48" fill="none" xmlns="http://www.w3.org/2000/svg">
<g clip-path="url(#clip0_297_5185)">
<path d="M48.875 20.129H47.1353L44.5425 21.4933C44.2506 21.3323 43.9471 21.1958 43.6197 21.1138L40.3581 20.2976V19.9268C41.801 18.9197 42.6815 17.2561 42.6815 15.4839V14.1305C42.6815 11.123 40.3249 8.6061 37.4284 8.5184C37.2814 8.51462 37.1366 8.51991 36.9911 8.52709L37.8367 6.54738L33.737 2.44884L31.3203 4.0218C30.4021 3.50466 29.4309 3.10207 28.4224 2.81968L27.8255 0H21.9253L21.3284 2.82044C20.3198 3.10282 19.3479 3.50542 18.4304 4.02256L16.0137 2.4496L11.9175 6.54587L12.7487 8.52709C12.717 8.52558 12.6867 8.51991 12.655 8.51915C11.1724 8.47606 9.77596 9.01701 8.71522 10.0467C7.65297 11.0757 7.06855 12.4567 7.06855 13.9355V15.4839C7.06855 17.2561 7.94821 18.919 9.39113 19.926V20.2976L7.26361 20.8295L3.40738 18.5806H0.875V34.6229L8.49143 37.1613H9.9748L10.16 36.5126L12.4947 37.9139C12.5329 39.1833 13.5509 40.2048 14.8192 40.2494C14.8638 41.5124 15.8788 42.5273 17.1418 42.572C17.1864 43.8349 18.2014 44.8499 19.4643 44.8945C19.5105 46.187 20.5689 47.2258 21.872 47.2258C22.3558 47.2258 22.8303 47.075 23.2291 46.8062L23.9148 47.4118C24.3446 47.7902 24.8981 48 25.4727 48H25.6159C26.9042 48 27.9525 46.9585 27.9688 45.6744C29.2431 45.6581 30.2751 44.6261 30.2913 43.3518C31.5664 43.3356 32.5992 42.302 32.6139 41.027C33.9007 40.9967 34.9395 39.9454 34.9395 38.6515C34.9395 38.5736 34.9357 38.4969 34.9278 38.4194L48.875 31.4463V20.129ZM41.1331 14.1305V15.4839C41.1331 16.858 40.3906 18.1418 39.1953 18.8339L38.8082 19.0577L38.8112 21.5077L42.6792 22.4739L34.1653 26.955V24.8695C34.1653 23.8288 33.745 22.8758 33.0566 22.1715L35.7137 21.5077V19.0558L35.3274 18.8324C34.1328 18.1418 33.3911 16.858 33.3911 15.4839V13.9355C33.3911 12.8797 33.8085 11.8923 34.5672 11.157C35.3251 10.4221 36.3306 10.026 37.3819 10.0668C39.4501 10.1288 41.1331 11.952 41.1331 14.1305ZM26.0423 26.3464L22.5377 25.2263C20.9405 24.7145 19.2118 24.6381 17.5769 25.0003L17.1331 25.0985V24.8695C17.1331 23.8019 17.857 22.875 18.892 22.6157L23.3266 21.5077V19.0558L22.9403 18.8324C21.7457 18.1418 21.004 16.858 21.004 15.4839V13.9355C21.004 12.8797 21.4214 11.8923 22.1801 11.157C22.938 10.4221 23.95 10.026 24.9948 10.0668C27.063 10.1288 28.746 11.952 28.746 14.1305V15.4839C28.746 16.858 28.0035 18.1418 26.8082 18.8339L26.4211 19.0577L26.4241 21.5077L30.858 22.6157C31.893 22.875 32.6169 23.8019 32.6169 24.8695V27.7704L32.4257 27.871H31.9512L27.1915 26.5108C26.8165 26.4046 26.4302 26.3611 26.0423 26.3464ZM17.3066 11.5872C18.7605 8.77016 21.6867 6.96774 24.875 6.96774C28.033 6.96774 30.9468 8.74597 32.4117 11.5248C32.0431 12.2639 31.8427 13.0823 31.8427 13.9355V15.4839C31.8427 17.2561 32.7224 18.919 34.1653 19.926V20.2976L31.0686 21.073L27.971 20.2976V19.9268C29.4139 18.9197 30.2944 17.2561 30.2944 15.4839V14.1305C30.2944 11.123 27.9378 8.6061 25.0413 8.5184C23.5595 8.47493 22.1623 9.01626 21.1016 10.046C20.0401 11.0757 19.4556 12.4567 19.4556 13.9355V15.4839C19.4556 17.2561 20.3353 18.919 21.7782 19.926V20.2976L18.6815 21.073L15.5839 20.2976V19.9268C17.0268 18.9197 17.9073 17.2561 17.9073 15.4839V14.1305C17.9073 13.2195 17.688 12.3546 17.3066 11.5872ZM13.746 6.90499L16.2194 4.43158L18.3964 5.84841L18.813 5.59287C19.8567 4.95325 20.9848 4.48488 22.1653 4.2025L22.6416 4.08833L23.1803 1.54839H26.5704L27.1076 4.08758L27.5839 4.20136C28.7645 4.48412 29.8925 4.9525 30.9362 5.59211L31.3528 5.84766L33.5299 4.43082L36.0003 6.90197L35.1221 8.95804C34.5244 9.2151 33.9703 9.57687 33.4879 10.0445C33.4562 10.0755 33.4289 10.1087 33.3979 10.1405C31.574 7.24105 28.3494 5.41935 24.875 5.41935C21.3756 5.41935 18.142 7.25806 16.3226 10.187C15.8357 9.67742 15.2566 9.26462 14.6147 8.97618L13.746 6.90499ZM10.9395 21.5077V19.0558L10.5532 18.8324C9.35862 18.1418 8.61694 16.858 8.61694 15.4839V13.9355C8.61694 12.8797 9.03427 11.8923 9.79297 11.157C10.5509 10.4221 11.5587 10.026 12.6077 10.0668C14.6759 10.1288 16.3589 11.952 16.3589 14.1305V15.4839C16.3589 16.858 15.6164 18.1418 14.4211 18.8339L14.034 19.0577L14.037 21.5077L16.6934 22.1715C16.005 22.8758 15.5847 23.8288 15.5847 24.8695V25.4429L13.1699 25.9797L13.2326 25.7605L13.2621 24.3296L9.17906 21.9477L10.9395 21.5077ZM2.42339 20.129H2.98778L8.5557 23.3766L5.74622 34.6142L2.42339 33.5062V20.129ZM8.74244 35.6129L7.21862 35.1052L9.94796 24.189L11.7137 25.2188V25.4399L8.80746 35.6129H8.74244ZM14.0363 37.8417C14.0363 37.6134 14.1285 37.3896 14.2903 37.2278L15.6512 35.8669C15.813 35.7051 16.0368 35.6129 16.2651 35.6129C16.7437 35.6129 17.1331 36.0023 17.1331 36.4809C17.1331 36.7092 17.0408 36.933 16.879 37.0948L15.5181 38.4556C15.3564 38.6174 15.1326 38.7097 14.9042 38.7097C14.4257 38.7097 14.0363 38.3203 14.0363 37.8417ZM16.3589 40.1643C16.3589 39.936 16.4511 39.7122 16.6129 39.5504L17.9738 38.1895C18.1356 38.0277 18.3594 37.9355 18.5877 37.9355C19.0663 37.9355 19.4556 38.3249 19.4556 38.8034C19.4556 39.0318 19.3634 39.2555 19.2016 39.4173L17.8407 40.7782C17.6789 40.94 17.4551 41.0323 17.2268 41.0323C16.7482 41.0323 16.3589 40.6429 16.3589 40.1643ZM18.6815 42.4869C18.6815 42.2586 18.7737 42.0348 18.9355 41.873L20.2964 40.5121C20.4582 40.3503 20.682 40.2581 20.9103 40.2581C21.3889 40.2581 21.7782 40.6474 21.7782 41.126C21.7782 41.3543 21.686 41.5781 21.5242 41.7399L20.1633 43.1008C20.0015 43.2626 19.7777 43.3548 19.5494 43.3548C19.0708 43.3548 18.6815 42.9655 18.6815 42.4869ZM21.872 45.6774C21.3934 45.6774 21.004 45.2881 21.004 44.8095C21.004 44.5812 21.0963 44.3574 21.2581 44.1956L22.619 42.8347C22.7807 42.6729 23.0045 42.5806 23.2329 42.5806C23.7114 42.5806 24.1008 42.97 24.1008 43.4486C24.1008 43.6769 24.0086 43.9007 23.8468 44.0625L22.4859 45.4234C22.3241 45.5852 22.1003 45.6774 21.872 45.6774ZM25.6159 46.4516H25.4727C25.2753 46.4516 25.0863 46.3798 24.9393 46.2494L24.3601 45.7387L24.9415 45.1573C25.1491 44.9497 25.3101 44.7029 25.4292 44.4379L26.1331 45.0238C26.3172 45.1773 26.4234 45.4034 26.4234 45.6442C26.4234 46.0895 26.0612 46.4516 25.6159 46.4516ZM32.5587 39.4839H32.4249C32.2306 39.4839 32.0408 39.4151 31.8923 39.2903L27.6939 35.7917L26.702 36.9817L30.779 40.3787C30.9623 40.5321 31.0686 40.7582 31.0686 40.999C31.0686 41.4443 30.7064 41.8065 30.2611 41.8065H30.0921C29.9042 41.8065 29.7205 41.7399 29.5757 41.619L25.3706 38.115L24.3787 39.3051L28.4556 42.7024C28.6397 42.8547 28.746 43.0808 28.746 43.3216C28.746 43.7669 28.3838 44.129 27.9385 44.129C27.6414 44.129 27.3518 44.0236 27.1239 43.8342L25.3959 42.3939C25.0152 41.6159 24.2331 41.0735 23.3172 41.041C23.2726 39.778 22.2576 38.763 20.9946 38.7184C20.95 37.4554 19.935 36.4404 18.672 36.3958C18.6266 35.1033 17.5682 34.0645 16.2651 34.0645C15.6289 34.0645 15.0063 34.3223 14.5565 34.7722L13.1956 36.1331C13.1143 36.2143 13.047 36.3066 12.9786 36.3981L10.6004 34.971L12.6852 27.6744L17.9118 26.5124C19.2829 26.2058 20.7285 26.2723 22.0655 26.7002L23.206 27.065L19.3396 28.9982C18.4562 29.4409 17.9073 30.3296 17.9073 31.3178V31.4709C17.9073 32.901 19.0708 34.0645 20.5009 34.0645C20.9708 34.0645 21.4331 33.9367 21.8349 33.6944L24.7177 31.9657C25.2969 31.6187 26.0741 31.6947 26.5742 32.1445L33.1156 38.0315C33.2906 38.1903 33.3911 38.4156 33.3911 38.6515C33.3911 39.1108 33.018 39.4839 32.5587 39.4839ZM47.3266 30.4892L34.2836 37.0112C34.2413 36.9662 34.1971 36.9235 34.1506 36.8819L27.6104 30.995C27.0373 30.4778 26.2964 30.1936 25.5244 30.1936C24.9601 30.1936 24.4059 30.347 23.9205 30.6381L21.0365 32.3676C20.8747 32.4651 20.6899 32.5161 20.5009 32.5161C19.924 32.5161 19.4556 32.0478 19.4556 31.4709V31.3178C19.4556 30.919 19.6772 30.5614 20.0333 30.3833L24.3518 28.224C25.0909 27.854 25.9682 27.7712 26.7647 28.0003L31.6299 29.3899L32.8082 29.4194L47.3266 21.778V30.4892Z" fill="#28293D"/>
</g>
<defs>
<clipPath id="clip0_297_5185">
<rect width="48" height="48" fill="white" transform="translate(0.875)"/>
</clipPath>
</defs>
</svg>
