<svg width="49" height="48" viewBox="0 0 49 48" fill="none" xmlns="http://www.w3.org/2000/svg">
<g clip-path="url(#clip0_297_5133)">
<path d="M34.966 24.5875C34.8833 24.3048 34.6707 24.0739 34.3883 23.9706C34.3313 23.9498 33.8692 23.7863 33.1514 23.6813C36.2178 20.4185 35.2054 16.6065 34.966 15.862C34.8833 15.5792 34.6707 15.3483 34.3883 15.245C34.2566 15.1968 31.9615 14.3875 29.3467 15.2976C29.4943 14.6919 29.5807 14.026 29.5807 13.2953C29.5807 8.62023 26.0404 6.56542 25.3299 6.20064C25.0715 6.05908 24.7577 6.04614 24.4851 6.17289C24.3093 6.25455 20.1792 8.23108 20.1792 13.2953C20.1792 14.0275 20.2659 14.6948 20.4142 15.3014C17.7947 14.3853 15.4934 15.1967 15.3616 15.245C15.0791 15.3483 14.8666 15.5792 14.7838 15.862C14.5445 16.6065 13.5321 20.4185 16.5984 23.6813C15.8807 23.7863 15.4186 23.9498 15.3616 23.9706C15.0791 24.0739 14.8665 24.3049 14.7837 24.5876C14.5394 25.3477 13.4888 29.3043 16.7947 32.6101C18.7077 34.5232 20.831 34.9795 22.4217 34.9795C23.0107 34.9795 23.5254 34.9168 23.9307 34.8424V40.9767C23.9307 41.4944 24.3504 41.9142 24.8682 41.9142C25.386 41.9142 25.8057 41.4944 25.8057 40.9767V34.84C26.2129 34.9154 26.7327 34.9795 27.328 34.9795C28.9187 34.9795 31.0422 34.5229 32.9551 32.61C36.2609 29.3041 35.2103 25.3476 34.966 24.5875ZM23.9307 31.9199C23.9099 32.3455 23.8502 32.7031 23.7931 32.9603C22.791 33.1829 20.2837 33.4475 18.1206 31.2842C15.9899 29.1537 16.2132 26.688 16.4491 25.6121C17.0792 25.4752 18.3087 25.3225 19.67 25.7643C19.7596 25.7979 19.8489 25.8295 19.9378 25.8591C20.6587 26.1325 21.4072 26.5787 22.1167 27.288C23.4684 28.6398 23.8721 30.1257 23.9307 31.2944V31.9199ZM23.9307 23.1945C23.9099 23.62 23.8502 23.9777 23.7931 24.2348C23.1722 24.3729 21.9735 24.5261 20.6369 24.109C20.5014 24.0567 20.3667 24.0092 20.2329 23.9662C19.5337 23.69 18.8097 23.2479 18.1205 22.5587C15.9899 20.4281 16.2132 17.9625 16.4491 16.8867C17.4502 16.669 19.9645 16.4105 22.1167 18.5626C22.1303 18.5763 22.1427 18.5901 22.1561 18.6037C22.2383 18.6959 22.3208 18.7841 22.4032 18.8689C23.5253 20.1355 23.8765 21.488 23.9307 22.569V23.1945ZM24.8814 18.4907C24.5876 18.3023 24.1642 17.9917 23.7342 17.5427C23.6903 17.4946 23.646 17.4465 23.6004 17.3986C22.8172 16.5285 22.0541 15.1938 22.0541 13.2953C22.0541 10.2393 24.0097 8.6537 24.8752 8.1017C25.802 8.69477 27.7056 10.2804 27.7056 13.2953C27.7056 15.0868 27.0333 16.3723 26.3028 17.2412C26.1509 17.3933 26.0088 17.5468 25.8748 17.7011C25.5 18.0655 25.141 18.3253 24.8814 18.4907ZM25.8115 22.8907C25.8102 21.79 26.0949 20.3335 27.2606 18.9657C27.3987 18.8285 27.5376 18.6808 27.6752 18.5221C29.8265 16.4061 32.3045 16.6645 33.3003 16.8849C33.5363 17.9597 33.7611 20.4269 31.6292 22.5587C30.9412 23.2467 30.2186 23.6885 29.5207 23.9649C29.3846 24.0085 29.2477 24.0568 29.1098 24.11C27.7734 24.5265 26.5755 24.3727 25.957 24.235C25.8877 23.9226 25.8142 23.4637 25.8114 22.9146C25.8114 22.9066 25.8115 22.8986 25.8115 22.8907ZM31.6292 31.2842C29.4656 33.4479 26.9583 33.1828 25.9585 32.961C25.7406 31.9637 25.477 29.4441 27.6331 27.288C28.3229 26.5982 29.0475 26.156 29.7472 25.8798C29.8807 25.8369 30.0151 25.7896 30.1502 25.7375C31.4839 25.3212 32.6798 25.4731 33.3003 25.6103C33.5363 26.6852 33.7611 29.1524 31.6292 31.2842Z" fill="#28293D"/>
<path d="M29.8771 0.522281C28.243 0.175781 26.56 0 24.875 0C18.4644 0 12.4375 2.49638 7.90447 7.02947C3.37147 11.5625 0.875 17.5894 0.875 24C0.875 29.3417 2.67219 34.556 5.9465 38.7545C5.57816 39.3243 5.37987 39.988 5.37987 40.6827C5.37987 41.6343 5.75047 42.5288 6.42331 43.2018C7.09616 43.8746 7.99081 44.2452 8.94238 44.2452C9.89394 44.2452 10.7886 43.8746 11.4614 43.2018C12.1344 42.5288 12.5049 41.6343 12.5049 40.6827C12.5049 39.7312 12.1343 38.8366 11.4614 38.1637C10.7886 37.4907 9.89394 37.1201 8.94238 37.1201C8.37838 37.1201 7.83472 37.2513 7.34506 37.4975C4.37769 33.6455 2.75 28.8807 2.75 24C2.75 11.8002 12.6752 1.875 24.875 1.875C26.4296 1.875 27.9816 2.037 29.4882 2.3565C29.995 2.46384 30.4923 2.14031 30.5998 1.63387C30.7072 1.12734 30.3837 0.629719 29.8771 0.522281ZM7.74912 39.4894C8.07809 39.1603 8.51019 38.9959 8.94238 38.9959C9.37456 38.9959 9.80666 39.1604 10.1356 39.4894C10.4544 39.808 10.6299 40.2319 10.6299 40.6826C10.6299 41.1334 10.4544 41.5571 10.1356 41.8759C9.47769 42.534 8.40706 42.5338 7.74912 41.8759C7.43037 41.5572 7.25488 41.1334 7.25488 40.6826C7.25488 40.2319 7.43037 39.8081 7.74912 39.4894Z" fill="#28293D"/>
<path d="M43.8036 9.24551C44.1719 8.6757 44.3702 8.01195 44.3702 7.31726C44.3702 6.3657 43.9996 5.47104 43.3268 4.7982C42.6539 4.12526 41.7593 3.75476 40.8077 3.75476C39.8562 3.75476 38.9615 4.12535 38.2887 4.7982C37.6158 5.47104 37.2452 6.3657 37.2452 7.31726C37.2452 8.26882 37.6158 9.16348 38.2887 9.83632C38.9615 10.5093 39.8562 10.8798 40.8077 10.8798C41.3718 10.8798 41.9154 10.7486 42.4051 10.5024C45.3724 14.3545 47.0001 19.1193 47.0001 24C47.0001 36.1998 37.0749 46.125 24.8751 46.125C23.5627 46.125 22.2478 46.0093 20.9669 45.781C20.4574 45.6904 19.9702 46.0296 19.8794 46.5395C19.7886 47.0493 20.1282 47.5361 20.6379 47.6269C22.0272 47.8744 23.4527 48 24.8751 48C31.2857 48 37.3126 45.5035 41.8457 40.9706C46.3788 36.4377 48.8751 30.4106 48.8751 24C48.8751 18.6583 47.0779 13.444 43.8036 9.24551ZM42.0011 8.51051C41.6824 8.82926 41.2586 9.00476 40.8078 9.00476C40.3571 9.00476 39.9332 8.82935 39.6146 8.51051C38.9565 7.85257 38.9565 6.78204 39.6146 6.12401C39.9332 5.80526 40.3571 5.62976 40.8078 5.62976C41.2586 5.62976 41.6823 5.80526 42.0011 6.12401C42.3198 6.44267 42.4953 6.86651 42.4953 7.31726C42.4953 7.76801 42.3198 8.19176 42.0011 8.51051Z" fill="#28293D"/>
<path d="M16.6374 44.5409L16.2834 45.409L16.6348 44.5398C16.1545 44.3459 15.6084 44.5776 15.4143 45.0576C15.2202 45.5376 15.4521 46.0841 15.9321 46.2782L15.961 46.2897C16.0716 46.3319 16.1854 46.352 16.2973 46.352C16.6749 46.352 17.0319 46.1234 17.1747 45.7506C17.36 45.2669 17.121 44.726 16.6374 44.5409Z" fill="#28293D"/>
<path d="M33.8583 1.73842L33.8417 1.73176C33.361 1.53939 32.8154 1.7733 32.623 2.25405C32.4306 2.7348 32.6645 3.28023 33.1453 3.47261L33.156 3.47692C33.2711 3.52342 33.3899 3.54536 33.5069 3.54536C33.8778 3.54536 34.2289 3.32383 34.3764 2.95886C34.5704 2.47877 34.3384 1.93239 33.8583 1.73842Z" fill="#28293D"/>
</g>
<defs>
<clipPath id="clip0_297_5133">
<rect width="48" height="48" fill="white" transform="translate(0.875)"/>
</clipPath>
</defs>
</svg>
