<svg width="49" height="48" viewBox="0 0 49 48" fill="none" xmlns="http://www.w3.org/2000/svg">
<path d="M12.4167 48H8.49963C8.04676 47.9996 7.61257 47.8344 7.29234 47.5408C6.97211 47.2472 6.79199 46.8491 6.7915 46.4338V37.5662C6.79199 37.1509 6.97211 36.7528 7.29234 36.4592C7.61257 36.1656 8.04676 36.0004 8.49963 36H12.4167C12.8696 36.0004 13.3038 36.1656 13.624 36.4592C13.9442 36.7528 14.1244 37.1509 14.1248 37.5662V46.4338C14.1244 46.8491 13.9442 47.2472 13.624 47.5408C13.3038 47.8344 12.8696 47.9996 12.4167 48ZM8.73878 46.2145H12.1776V37.786H8.73878V46.2145Z" fill="#28293D"/>
<path d="M21.1117 48H17.8055C17.36 47.9996 16.9329 47.8165 16.6179 47.491C16.3028 47.1655 16.1256 46.7241 16.125 46.2637V33.0697C16.1256 32.6093 16.3028 32.1679 16.6179 31.8424C16.9329 31.5169 17.36 31.3338 17.8055 31.3334H21.1117C21.5571 31.334 21.9841 31.5171 22.299 31.8426C22.6139 32.1681 22.7911 32.6094 22.7917 33.0697V46.2637C22.7911 46.724 22.6139 47.1653 22.299 47.4908C21.9841 47.8163 21.5571 47.9994 21.1117 48ZM17.8951 46.1705H21.0216V33.1629H17.8951V46.1705Z" fill="#28293D"/>
<path d="M30.3351 48H27.248C26.7735 47.9995 26.3186 47.8017 25.9831 47.4501C25.6476 47.0984 25.4589 46.6216 25.4585 46.1243V28.5422C25.4589 28.0449 25.6476 27.5681 25.9831 27.2165C26.3186 26.8648 26.7735 26.6671 27.248 26.6666H30.3351C30.8097 26.6671 31.2646 26.8648 31.6002 27.2165C31.9358 27.5681 32.1246 28.0449 32.1252 28.5422V46.1243C32.1246 46.6217 31.9358 47.0985 31.6002 47.4501C31.2646 47.8018 30.8097 47.9995 30.3351 48ZM27.248 28.5191C27.2431 28.5198 27.2385 28.5221 27.235 28.5258C27.2315 28.5295 27.2293 28.5342 27.2286 28.5393V46.1243C27.2293 46.1295 27.2315 46.1342 27.235 46.1379C27.2385 46.1416 27.2431 46.1439 27.248 46.1446H30.3351C30.3401 46.144 30.3448 46.1417 30.3484 46.1381C30.352 46.1344 30.3544 46.1296 30.3551 46.1243V28.5422C30.3544 28.537 30.352 28.5322 30.3484 28.5285C30.3448 28.5249 30.3401 28.5225 30.3351 28.522L27.248 28.5191Z" fill="#28293D"/>
<path d="M39.3851 48H36.1982C35.6485 47.9995 35.1215 47.7938 34.7328 47.428C34.3441 47.0622 34.1255 46.5662 34.125 46.0489V24.6177C34.1255 24.1004 34.3441 23.6044 34.7328 23.2386C35.1215 22.8728 35.6485 22.6671 36.1982 22.6666H39.3851C39.9348 22.6671 40.4619 22.8728 40.8506 23.2386C41.2393 23.6044 41.4578 24.1004 41.4583 24.6177V46.0489C41.4578 46.5662 41.2393 47.0622 40.8506 47.428C40.4619 47.7938 39.9348 47.9995 39.3851 48ZM36.1982 24.4991C36.1651 24.5 36.1336 24.5128 36.1102 24.5348C36.0868 24.5569 36.0732 24.5865 36.0723 24.6177V46.0489C36.0732 46.0801 36.0868 46.1097 36.1102 46.1318C36.1336 46.1538 36.1651 46.1666 36.1982 46.1674H39.3851C39.4182 46.1666 39.4497 46.1538 39.4731 46.1318C39.4966 46.1097 39.5101 46.0801 39.5111 46.0489V24.6177C39.5101 24.5865 39.4966 24.5569 39.4731 24.5348C39.4497 24.5128 39.4182 24.5 39.3851 24.4991H36.1982Z" fill="#28293D"/>
<path d="M39.9825 18.6667C39.8584 18.6668 39.7354 18.6424 39.6206 18.595C39.5059 18.5476 39.4016 18.478 39.3138 18.3903L32.4019 11.4792C32.2846 11.3619 32.2002 11.2158 32.1572 11.0556C32.1143 10.8953 32.1143 10.7266 32.1572 10.5663C32.2001 10.4061 32.2845 10.2599 32.4018 10.1426C32.5191 10.0253 32.6653 9.94089 32.8255 9.89794L42.2682 7.36567C42.4285 7.32266 42.5973 7.32261 42.7576 7.36553C42.9179 7.40846 43.0641 7.49284 43.1815 7.61019C43.2989 7.72754 43.3832 7.87372 43.4262 8.03403C43.4691 8.19434 43.4691 8.36313 43.426 8.52341L40.8952 17.9661C40.8524 18.1264 40.7681 18.2726 40.6508 18.39C40.5335 18.5074 40.3874 18.5918 40.2271 18.6348C40.1473 18.6559 40.0651 18.6666 39.9825 18.6667ZM34.8943 11.2979L39.4928 15.8958L41.1758 9.615L34.8943 11.2979Z" fill="#28293D"/>
<path d="M9.64848 25.3334C7.27224 25.3334 5.74933 25.1783 5.6332 25.1661C5.51153 25.1545 5.39322 25.1176 5.28513 25.0575C5.17704 24.9973 5.0813 24.9151 5.00346 24.8156C4.92561 24.7161 4.86721 24.6013 4.83161 24.4778C4.79602 24.3543 4.78394 24.2245 4.79608 24.0961C4.80822 23.9676 4.84434 23.843 4.90234 23.7293C4.96035 23.6157 5.03909 23.5154 5.13402 23.4341C5.22895 23.3528 5.33818 23.2923 5.45539 23.2559C5.57261 23.2195 5.69549 23.208 5.81692 23.2222C5.8851 23.2295 11.0905 23.7533 17.3867 22.8174C23.13 21.9626 30.9912 19.6854 35.8298 13.6771C35.9887 13.4798 36.2152 13.3573 36.4596 13.3365C36.704 13.3157 36.9462 13.3984 37.1329 13.5663C37.3196 13.7342 37.4355 13.9736 37.4552 14.2319C37.4748 14.4901 37.3966 14.7461 37.2377 14.9434C34.9193 17.8214 31.7995 20.1487 27.9674 21.8607C24.9337 23.2154 21.4464 24.1905 17.6022 24.7589C14.9665 25.1426 12.309 25.3345 9.64848 25.3334Z" fill="#28293D"/>
<path d="M10.1249 10.6667C7.55157 10.6667 5.4585 8.72249 5.4585 6.33333C5.4585 3.94418 7.55157 2 10.1249 2C12.6982 2 14.7918 3.94356 14.7918 6.33333C14.7918 6.59342 14.6931 6.84286 14.5174 7.02677C14.3417 7.21068 14.1033 7.314 13.8548 7.314C13.6063 7.314 13.368 7.21068 13.1922 7.02677C13.0165 6.84286 12.9178 6.59342 12.9178 6.33333C12.9178 5.02537 11.6645 3.96134 10.1249 3.96134C8.58522 3.96134 7.33254 5.02537 7.33254 6.33333C7.33254 7.6413 8.58522 8.70533 10.1249 8.70533C10.3734 8.70533 10.6117 8.80865 10.7874 8.99256C10.9632 9.17647 11.0619 9.42591 11.0619 9.686C11.0619 9.94609 10.9632 10.1955 10.7874 10.3794C10.6117 10.5633 10.3734 10.6667 10.1249 10.6667Z" fill="#28293D"/>
<path d="M10.1249 16.6666C7.55157 16.6666 5.4585 14.8721 5.4585 12.6663C5.4585 12.4263 5.55722 12.196 5.73294 12.0263C5.90867 11.8565 6.14701 11.7612 6.39552 11.7612C6.64403 11.7612 6.88237 11.8565 7.05809 12.0263C7.23382 12.196 7.33254 12.4263 7.33254 12.6663C7.33254 13.8736 8.58522 14.8563 10.1249 14.8563C11.6645 14.8563 12.9178 13.8736 12.9178 12.6663C12.9178 11.4591 11.6645 10.477 10.1249 10.477C9.87636 10.477 9.63802 10.3816 9.4623 10.2118C9.28657 10.0421 9.18785 9.81186 9.18785 9.5718C9.18785 9.33173 9.28657 9.1015 9.4623 8.93174C9.63802 8.76199 9.87636 8.66663 10.1249 8.66663C12.6982 8.66663 14.7918 10.4611 14.7918 12.6663C14.7918 14.8716 12.6982 16.6666 10.1249 16.6666Z" fill="#28293D"/>
<path d="M10.4585 4C10.1933 4 9.93893 3.90969 9.75139 3.74893C9.56385 3.58817 9.4585 3.37013 9.4585 3.14278V0.857219C9.4585 0.629871 9.56385 0.411834 9.75139 0.251074C9.93893 0.0903141 10.1933 0 10.4585 0C10.7237 0 10.9781 0.0903141 11.1656 0.251074C11.3531 0.411834 11.4585 0.629871 11.4585 0.857219V3.14278C11.4585 3.37013 11.3531 3.58817 11.1656 3.74893C10.9781 3.90969 10.7237 4 10.4585 4Z" fill="#28293D"/>
<path d="M10.4585 19.3334C10.1933 19.3334 9.93893 19.243 9.75139 19.0823C9.56385 18.9215 9.4585 18.7034 9.4585 18.476V16.1907C9.4585 15.9633 9.56385 15.7453 9.75139 15.5845C9.93893 15.4237 10.1933 15.3334 10.4585 15.3334C10.7237 15.3334 10.9781 15.4237 11.1656 15.5845C11.3531 15.7453 11.4585 15.9633 11.4585 16.1907V18.476C11.4585 18.7034 11.3531 18.9215 11.1656 19.0823C10.9781 19.243 10.7237 19.3334 10.4585 19.3334Z" fill="#28293D"/>
</svg>
