<svg width="49" height="48" viewBox="0 0 49 48" fill="none" xmlns="http://www.w3.org/2000/svg">
<path d="M17.1251 36.18C18.7766 34.3242 20.0299 32.1494 20.8076 29.79C21.4156 27.9434 21.7245 26.0116 21.7226 24.0675C21.7275 23.3745 21.9908 22.7082 22.4611 22.1991C22.9313 21.69 23.5746 21.3747 24.2651 21.315C24.645 21.2863 25.0267 21.3357 25.3868 21.4601C25.7469 21.5846 26.0777 21.7815 26.3587 22.0387C26.6398 22.2959 26.8652 22.6079 27.0211 22.9555C27.177 23.3032 27.26 23.679 27.2651 24.06C27.2646 25.3589 27.1592 26.6556 26.9501 27.9375C26.9198 28.1333 26.9683 28.3332 27.085 28.4934C27.2016 28.6536 27.3769 28.7611 27.5726 28.7925H27.6926C27.8723 28.7948 28.047 28.7325 28.1846 28.6168C28.3223 28.5012 28.4138 28.3399 28.4426 28.1625C28.6611 26.8034 28.7714 25.4291 28.7726 24.0525C28.7686 22.9213 28.3165 21.8378 27.5152 21.0393C26.7139 20.2408 25.6288 19.7925 24.4976 19.7925C24.3851 19.7925 24.2726 19.7925 24.1601 19.7925C23.0949 19.884 22.1022 20.37 21.3767 21.1553C20.6511 21.9405 20.2449 22.9684 20.2376 24.0375C20.2382 25.821 19.9546 27.5932 19.3976 29.2875C19.0439 30.381 18.5711 31.4323 17.9876 32.4225C17.4292 33.3983 16.7707 34.3132 16.0226 35.1525C15.2498 36.0231 14.3876 36.8099 13.4501 37.5C12.4941 38.2212 11.4632 38.8373 10.3751 39.3375C10.2846 39.378 10.2031 39.436 10.1353 39.5082C10.0674 39.5804 10.0145 39.6653 9.97961 39.758C9.94474 39.8508 9.9286 39.9495 9.93211 40.0486C9.93563 40.1476 9.95873 40.2449 10.0001 40.335C10.0609 40.4663 10.1583 40.5773 10.2808 40.6545C10.4032 40.7317 10.5454 40.7718 10.6901 40.77C10.7962 40.7695 10.901 40.7465 10.9976 40.7025C12.1863 40.1637 13.3129 39.4973 14.3576 38.715C15.3659 37.9687 16.2934 37.1191 17.1251 36.18Z" fill="#28293D"/>
<path d="M20.3576 37.785C21.1542 36.7963 21.8667 35.7426 22.4876 34.635C23.0852 33.5508 23.5871 32.4165 23.9876 31.245C24.4012 30.0906 24.7075 28.9006 24.9026 27.69C25.1113 26.4939 25.2142 25.2817 25.2101 24.0675C25.2101 23.8686 25.131 23.6778 24.9904 23.5372C24.8497 23.3965 24.659 23.3175 24.4601 23.3175C24.2612 23.3175 24.0704 23.3965 23.9297 23.5372C23.7891 23.6778 23.7101 23.8686 23.7101 24.0675C23.7139 25.1987 23.6186 26.328 23.4251 27.4425C23.2507 28.5684 22.972 29.6757 22.5926 30.75C22.2148 31.8449 21.7404 32.9041 21.1751 33.915C20.5998 34.9472 19.9374 35.9282 19.1951 36.8475C18.4233 37.7978 17.5646 38.6741 16.6301 39.465C15.6722 40.2974 14.6347 41.0335 13.5326 41.6625C13.3886 41.7441 13.2757 41.8709 13.2114 42.0233C13.1471 42.1757 13.1349 42.3451 13.1768 42.5051C13.2188 42.6651 13.3124 42.8068 13.4432 42.9081C13.574 43.0093 13.7346 43.0645 13.9001 43.065C14.0309 43.0619 14.1593 43.0285 14.2751 42.9675C15.4589 42.2896 16.5741 41.4984 17.6051 40.605C18.6098 39.7543 19.5314 38.81 20.3576 37.785Z" fill="#28293D"/>
<path d="M24.2127 38.505C24.8935 37.5371 25.5002 36.5192 26.0277 35.46C26.0836 35.3714 26.1204 35.2721 26.1356 35.1684C26.1508 35.0647 26.1441 34.959 26.1159 34.8581C26.0878 34.7572 26.0388 34.6633 25.9722 34.5824C25.9055 34.5016 25.8226 34.4356 25.7289 34.3888C25.6352 34.3419 25.5327 34.3152 25.428 34.3104C25.3234 34.3055 25.2189 34.3227 25.1212 34.3607C25.0236 34.3988 24.935 34.4568 24.8612 34.5312C24.7874 34.6056 24.73 34.6946 24.6927 34.7925C24.1907 35.7841 23.6193 36.7389 22.9827 37.65C22.2142 38.7512 21.3563 39.7872 20.4177 40.7475C19.4524 41.7265 18.4062 42.6221 17.2902 43.425C17.1621 43.5177 17.0666 43.6485 17.0174 43.7987C16.9681 43.9489 16.9675 44.1108 17.0158 44.2614C17.064 44.4119 17.1586 44.5434 17.286 44.6369C17.4134 44.7305 17.5671 44.7815 17.7252 44.7825C17.8827 44.7819 18.0366 44.7349 18.1677 44.6475C19.354 43.7934 20.4655 42.8399 21.4902 41.7975C22.4876 40.7775 23.3982 39.6762 24.2127 38.505Z" fill="#28293D"/>
<path d="M27.2723 38.9175C27.107 38.8089 26.9054 38.7701 26.7116 38.8094C26.5177 38.8487 26.3473 38.9631 26.2373 39.1275C25.7648 39.8325 25.2773 40.5075 24.7373 41.1375C23.7847 42.3265 22.7308 43.4306 21.5873 44.4375C21.5124 44.5026 21.4512 44.582 21.4072 44.671C21.3633 44.76 21.3374 44.8568 21.3311 44.9559C21.3248 45.0549 21.3383 45.1543 21.3707 45.2481C21.4031 45.3419 21.4538 45.4284 21.5198 45.5025C21.5908 45.5811 21.6776 45.6438 21.7746 45.6865C21.8715 45.7291 21.9764 45.7508 22.0823 45.75C22.2637 45.7518 22.4395 45.6878 22.5773 45.57C23.7846 44.5017 24.8987 43.3325 25.9073 42.075C26.4398 41.415 26.9648 40.7025 27.4523 39.96C27.5662 39.7977 27.6112 39.5969 27.5774 39.4016C27.5437 39.2062 27.434 39.0322 27.2723 38.9175Z" fill="#28293D"/>
<path d="M14.4624 33.8475C15.3256 32.8779 16.0569 31.7986 16.6374 30.6375C17.6419 28.5914 18.1555 26.3393 18.1374 24.06C18.1357 23.1193 18.3473 22.1905 18.7566 21.3434C19.1658 20.4964 19.7619 19.7533 20.4999 19.17C21.337 18.506 22.3272 18.0625 23.3799 17.88C24.5373 17.6759 25.7289 17.806 26.8149 18.255C27.9255 18.7024 28.8845 19.4587 29.5783 20.4344C30.2722 21.4101 30.6719 22.5642 30.7299 23.76V24.06C30.7299 24.06 30.7299 24.27 30.7299 24.42C30.7299 24.57 30.7299 24.825 30.7299 25.02V25.335C30.7299 25.5339 30.809 25.7247 30.9496 25.8653C31.0903 26.006 31.281 26.085 31.4799 26.085C31.6789 26.085 31.8696 26.006 32.0103 25.8653C32.1509 25.7247 32.2299 25.5339 32.2299 25.335V25.0275C32.2299 24.8175 32.2299 24.6 32.2299 24.435C32.2299 24.27 32.2299 24.165 32.2299 24.0225C32.2299 23.88 32.2299 23.7525 32.2299 23.64C32.1536 22.1606 31.6564 20.7338 30.7968 19.5274C29.9371 18.321 28.7508 17.3852 27.3774 16.83C26.4447 16.4478 25.4455 16.2541 24.4374 16.26C24.0028 16.2598 23.5689 16.2949 23.1399 16.365C21.8434 16.6034 20.6282 17.1658 19.6074 18C18.6924 18.7245 17.9533 19.6467 17.4454 20.6975C16.9376 21.7483 16.6742 22.9004 16.6749 24.0675C16.6843 26.1256 16.2117 28.1573 15.2949 30C14.7813 31.0316 14.1359 31.9921 13.3749 32.8575C12.6374 33.6942 11.7955 34.4327 10.8699 35.055C9.9116 35.7023 8.87282 36.2217 7.77995 36.6C7.58104 36.6328 7.40331 36.7433 7.28586 36.9072C7.16842 37.0711 7.12088 37.2749 7.1537 37.4738C7.18652 37.6727 7.29701 37.8504 7.46087 37.9679C7.62473 38.0853 7.82854 38.1328 8.02745 38.1C8.11189 38.0991 8.19557 38.0838 8.27495 38.055C9.47618 37.63 10.618 37.0528 11.6724 36.3375C12.707 35.6327 13.645 34.7956 14.4624 33.8475Z" fill="#28293D"/>
<path d="M28.7202 41.7299C28.0603 42.6863 27.3415 43.6006 26.5677 44.4674C26.5016 44.5415 26.4509 44.628 26.4185 44.7218C26.3861 44.8156 26.3727 44.915 26.3789 45.014C26.3852 45.1131 26.4111 45.2099 26.4551 45.2989C26.4991 45.3879 26.5603 45.4673 26.6352 45.5324C26.7719 45.653 26.9479 45.7197 27.1302 45.7199C27.2367 45.7198 27.3419 45.697 27.4389 45.653C27.5359 45.6091 27.6224 45.5449 27.6927 45.4649C28.4989 44.5476 29.2502 43.5834 29.9427 42.5774C30.055 42.4133 30.0976 42.2113 30.0611 42.0158C30.0245 41.8203 29.9118 41.6473 29.7477 41.5349C29.5847 41.4273 29.3862 41.3874 29.1943 41.4238C29.0024 41.4602 28.8323 41.57 28.7202 41.7299Z" fill="#28293D"/>
<path d="M12.4376 30.75C13.8826 28.8197 14.6594 26.4712 14.6501 24.06C14.6579 22.4505 15.0606 20.8675 15.823 19.45C16.5854 18.0324 17.6841 16.8238 19.0226 15.93C19.9395 15.316 20.9539 14.862 22.0226 14.5875C22.8229 14.3733 23.6468 14.2599 24.4751 14.25C24.8438 14.2465 25.2122 14.269 25.5776 14.3175C27.979 14.5801 30.1985 15.7209 31.8099 17.5205C33.4213 19.3202 34.3109 21.6519 34.3076 24.0675V24.6825C34.3007 24.8814 34.373 25.0749 34.5087 25.2205C34.6445 25.3661 34.8325 25.4518 35.0314 25.4587C35.2303 25.4657 35.4238 25.3934 35.5694 25.2576C35.715 25.1219 35.8007 24.9339 35.8076 24.735C35.8076 24.5175 35.8076 24.3 35.8076 24.0675C35.7975 21.2925 34.7682 18.618 32.9153 16.5521C31.0625 14.4863 28.5152 13.1733 25.7576 12.8625C25.3329 12.7985 24.9046 12.7609 24.4751 12.75C22.2382 12.7516 20.0516 13.4144 18.1901 14.655C17.0926 15.3772 16.1347 16.2919 15.3626 17.355C13.9188 19.2801 13.142 21.6236 13.1501 24.03C13.1458 25.6404 12.7453 27.2249 11.9841 28.644C11.2229 30.0631 10.1243 31.2731 8.78514 32.1675C7.86763 32.782 6.85357 33.2384 5.78514 33.5175C5.58622 33.5424 5.40534 33.6452 5.28227 33.8035C5.15919 33.9617 5.10402 34.1623 5.12889 34.3612C5.15375 34.5602 5.25661 34.7411 5.41485 34.8641C5.57308 34.9872 5.77372 35.0424 5.97264 35.0175C6.03492 35.0248 6.09785 35.0248 6.16014 35.0175C7.39519 34.6939 8.56668 34.164 9.62514 33.45C10.7159 32.7246 11.6683 31.8102 12.4376 30.75Z" fill="#28293D"/>
<path d="M11.125 24.0601C11.12 22.0136 11.5952 19.9944 12.5125 18.165C13.0338 17.1193 13.6893 16.1461 14.4625 15.2701C15.2 14.4334 16.0419 13.6949 16.9675 13.0726C18.9557 11.7256 21.2742 10.9476 23.6725 10.8226C23.9391 10.7951 24.207 10.7826 24.475 10.7851C27.3944 10.7817 30.2343 11.7354 32.56 13.5001C34.1973 14.7346 35.5244 16.3338 36.4357 18.1708C37.347 20.0078 37.8176 22.0319 37.81 24.0826V25.3726C37.7991 25.5715 37.8676 25.7666 38.0005 25.915C38.1334 26.0633 38.3198 26.1529 38.5187 26.1638C38.7177 26.1747 38.9128 26.1062 39.0612 25.9733C39.2095 25.8404 39.2991 25.654 39.31 25.455C39.31 24.9975 39.31 24.5401 39.31 24.0826C39.3155 21.7981 38.7875 19.544 37.768 17.4997C36.7484 15.4554 35.2656 13.6775 33.4375 12.3076C30.8446 10.3534 27.6843 9.29992 24.4375 9.30755C24.1319 9.30646 23.8265 9.32148 23.5225 9.35255C20.8616 9.49933 18.2915 10.3707 16.09 11.8726C15.09 12.5495 14.178 13.3481 13.375 14.2501C12.5167 15.2245 11.7881 16.306 11.2075 17.4676C10.1677 19.5096 9.62544 21.7685 9.62499 24.0601C9.62685 25.0029 9.41528 25.934 9.00614 26.7834C8.59699 27.6329 8.00088 28.3787 7.26249 28.965C6.42229 29.6286 5.42982 30.0719 4.37499 30.255C4.17608 30.272 3.99203 30.3672 3.86333 30.5198C3.73464 30.6724 3.67183 30.8699 3.68874 31.0688C3.70565 31.2677 3.80088 31.4518 3.95349 31.5805C4.1061 31.7092 4.30358 31.772 4.50249 31.755H4.62999C5.93375 31.5304 7.16083 30.9838 8.19999 30.1651C9.11735 29.4348 9.85717 28.506 10.3638 27.4486C10.8704 26.3911 11.1307 25.2326 11.125 24.0601Z" fill="#28293D"/>
<path d="M7.60013 24.06C7.59905 22.2765 7.88261 20.5042 8.44013 18.81C8.79384 17.7189 9.26669 16.6701 9.85013 15.6825C10.4081 14.7065 11.0667 13.7915 11.8151 12.9525C13.3782 11.1867 15.2945 9.76868 17.4401 8.79002C20.3569 7.4611 23.5908 6.98681 26.7663 7.42226C29.9419 7.8577 32.9288 9.18499 35.3801 11.25L35.4551 11.325C37.3053 12.8946 38.7916 14.8481 39.8108 17.0498C40.8301 19.2516 41.3579 21.6488 41.3576 24.075C41.3576 25.245 41.3051 26.4375 41.1926 27.63C41.1738 27.8279 41.2344 28.0252 41.3609 28.1785C41.4875 28.3318 41.6698 28.4285 41.8676 28.4475H41.9351C42.1229 28.4483 42.3041 28.3786 42.443 28.2522C42.5818 28.1259 42.6682 27.952 42.6851 27.765C42.7976 26.5275 42.8576 25.2825 42.8576 24.0675C42.8587 21.438 42.2901 18.8394 41.1909 16.4507C40.0917 14.0619 38.488 11.9397 36.4901 10.23L36.4226 10.155C34.7117 8.69196 32.7466 7.55561 30.6251 6.80252C26.1229 5.21682 21.1811 5.43999 16.8401 7.42502C15.6504 7.96632 14.5215 8.63256 13.4726 9.41252C12.4702 10.1632 11.5479 11.0152 10.7201 11.955C9.89967 12.8752 9.18053 13.881 8.57513 14.955C7.94327 16.0349 7.42787 17.1788 7.03763 18.3675C6.42325 20.2028 6.10675 22.1246 6.10013 24.06C6.09711 24.7543 5.8346 25.4225 5.36417 25.9331C4.89374 26.4438 4.24937 26.7601 3.55763 26.82C3.35872 26.8359 3.17428 26.9302 3.04488 27.0821C2.91548 27.234 2.85172 27.4311 2.86763 27.63C2.88355 27.8289 2.97782 28.0134 3.12973 28.1428C3.28163 28.2722 3.47872 28.3359 3.67763 28.32C4.74477 28.2266 5.73852 27.7379 6.46413 26.9499C7.18973 26.1618 7.59487 25.1312 7.60013 24.06Z" fill="#28293D"/>
<path d="M3.4975 21.3075C3.59614 21.3257 3.69744 21.324 3.7954 21.3024C3.89337 21.2808 3.986 21.2397 4.06782 21.1817C4.14963 21.1236 4.21898 21.0498 4.27174 20.9644C4.32451 20.8791 4.35962 20.7841 4.375 20.685C4.55652 19.5615 4.8402 18.4569 5.2225 17.385C5.59984 16.3019 6.06905 15.2531 6.625 14.25C7.19837 13.2149 7.86355 12.2335 8.6125 11.3175C9.37968 10.3655 10.2361 9.48901 11.17 8.69996C12.1321 7.86398 13.1747 7.12537 14.2825 6.49496C16.7107 5.07886 19.4087 4.1872 22.2025 3.87746C23.8093 3.68645 25.4332 3.68645 27.04 3.87746C28.888 4.10667 30.6953 4.5913 32.41 5.31746H32.4625C36.1387 6.88597 39.2741 9.49837 41.4804 12.8311C43.6867 16.1639 44.867 20.0706 44.875 24.0675C44.8775 26.1336 44.5613 28.1877 43.9375 30.1575C43.9074 30.252 43.8963 30.3516 43.9049 30.4504C43.9135 30.5493 43.9416 30.6454 43.9877 30.7333C44.0337 30.8212 44.0967 30.8991 44.1731 30.9625C44.2495 31.0258 44.3376 31.0734 44.4325 31.1025C44.5051 31.1264 44.581 31.139 44.6575 31.14C44.8229 31.1475 44.9862 31.1001 45.1219 31.0052C45.2576 30.9102 45.358 30.773 45.4075 30.615C47.0195 25.424 46.6414 19.8188 44.3468 14.8913C42.0522 9.96386 38.0055 6.06703 32.995 3.95996H32.9425C29.5001 2.51805 25.7473 1.97603 22.0375 2.38496C20.4874 2.54995 18.9605 2.88703 17.485 3.38996C16.11 3.84854 14.7856 4.44666 13.5325 5.17496C11.2074 6.51912 9.14428 8.27228 7.4425 10.35C6.64251 11.3362 5.92983 12.3902 5.3125 13.5C4.71219 14.5829 4.21018 15.7174 3.8125 16.89C3.39034 18.0459 3.07649 19.2385 2.875 20.4525C2.84476 20.6483 2.89325 20.8482 3.00989 21.0084C3.12653 21.1686 3.30183 21.2761 3.4975 21.3075Z" fill="#28293D"/>
<path d="M40.8023 39.1124C42.0675 37.5845 42.6965 35.6285 42.5588 33.6495C42.4212 31.6705 41.5275 29.8203 40.0629 28.4823C38.5984 27.1442 36.6752 26.4209 34.6919 26.4621C32.7085 26.5034 30.8171 27.306 29.4094 28.7038C28.0017 30.1016 27.1857 31.9873 27.1304 33.9703C27.0752 35.9533 27.7849 37.8815 29.1126 39.3555C30.4402 40.8295 32.2841 41.7362 34.262 41.8879C36.24 42.0395 38.2005 41.4244 39.7373 40.1699L45.0923 45.5324C45.2335 45.6737 45.425 45.753 45.6248 45.753C45.8245 45.753 46.016 45.6737 46.1573 45.5324C46.2985 45.3912 46.3778 45.1997 46.3778 44.9999C46.3778 44.8002 46.2985 44.6087 46.1573 44.4674L40.8023 39.1124ZM39.2348 38.6099C38.3706 39.4746 37.2694 40.0635 36.0706 40.3022C34.8717 40.5409 33.6289 40.4187 32.4995 39.9511C31.37 39.4834 30.4046 38.6913 29.7254 37.675C29.0462 36.6586 28.6837 35.4636 28.6837 34.2412C28.6837 33.0188 29.0462 31.8238 29.7254 30.8074C30.4046 29.7911 31.37 28.999 32.4995 28.5313C33.6289 28.0636 34.8717 27.9415 36.0706 28.1802C37.2694 28.4189 38.3706 29.0078 39.2348 29.8724C40.393 31.0313 41.0437 32.6027 41.0437 34.2412C41.0437 35.8797 40.393 37.4511 39.2348 38.6099Z" fill="#28293D"/>
</svg>
