<svg width="49" height="48" viewBox="0 0 49 48" fill="none" xmlns="http://www.w3.org/2000/svg">
<g clip-path="url(#clip0_297_5219)">
<path d="M48.4587 34.9237L43.5387 32.4637L40.4075 24.3187C40.3706 24.2224 40.3143 24.1347 40.242 24.0612C40.1698 23.9876 40.0831 23.9298 39.9875 23.8912L20.5587 16.125C20.4229 16.0709 20.2742 16.0577 20.131 16.087C19.9877 16.1163 19.8562 16.1869 19.7525 16.29L17.1612 18.8812C17.0595 18.985 16.9901 19.1161 16.9615 19.2585C16.9328 19.401 16.9462 19.5487 17 19.6837L24.7662 39.1125C24.8048 39.2081 24.8626 39.2948 24.9362 39.367C25.0098 39.4393 25.0974 39.4956 25.1937 39.5325L33.3387 42.6637L35.7987 47.5837C35.8505 47.6922 35.9276 47.7866 36.0236 47.8591C36.1195 47.9315 36.2315 47.9798 36.35 48C36.3899 48.0037 36.4301 48.0037 36.47 48C36.6686 47.9991 36.8587 47.9196 36.9987 47.7787L48.6537 36.1237C48.7395 36.0409 48.8043 35.9389 48.8428 35.8261C48.8813 35.7133 48.8923 35.5929 48.875 35.475C48.8549 35.3564 48.8065 35.2445 48.7341 35.1486C48.6617 35.0526 48.5672 34.9755 48.4587 34.9237ZM18.5712 19.5862L18.9875 19.1737L28.6587 28.845C28.0214 29.7481 27.7461 30.8576 27.8873 31.9539C28.0286 33.0503 28.5761 34.0537 29.4216 34.7658C30.2671 35.4779 31.349 35.8468 32.4534 35.7996C33.5578 35.7524 34.6043 35.2925 35.3859 34.5109C36.1675 33.7292 36.6274 32.6828 36.6746 31.5784C36.7218 30.474 36.3529 29.392 35.6408 28.5466C34.9287 27.7011 33.9253 27.1536 32.8289 27.0123C31.7326 26.8711 30.6231 27.1463 29.72 27.7837L20.0487 18.1125L20.4612 17.6962L39.125 25.1625L42.0687 32.82L33.695 41.1937L26.0375 38.25L18.5712 19.5862ZM32.2625 28.4737C32.9365 28.4747 33.5894 28.7094 34.1098 29.1378C34.6303 29.5661 34.9861 30.1617 35.1167 30.823C35.2473 31.4842 35.1446 32.1704 34.826 32.7644C34.5075 33.3584 33.9928 33.8237 33.3698 34.0808C32.7467 34.338 32.0537 34.3712 31.4089 34.1747C30.7641 33.9783 30.2074 33.5643 29.8336 33.0034C29.4597 32.4426 29.2919 31.7694 29.3587 31.0987C29.4256 30.4279 29.7228 29.8011 30.2 29.325C30.7475 28.7791 31.4893 28.473 32.2625 28.4737ZM36.6762 45.9825L34.8012 42.2325L43.1 33.9337L46.85 35.8087L36.6762 45.9825Z" fill="#28293D"/>
<path d="M15.2186 40.125C15.0752 39.9895 14.8853 39.914 14.688 39.914C14.4906 39.914 14.3008 39.9895 14.1574 40.125L13.2049 41.0775C10.663 37.6277 9.2608 33.4709 9.19358 29.1863C9.12636 24.9017 10.3975 20.7029 12.8299 17.175C13.5586 17.576 14.3977 17.7301 15.2213 17.6141C16.045 17.4981 16.8088 17.1183 17.3985 16.5316C17.9881 15.9449 18.3717 15.183 18.4919 14.3599C18.612 13.5369 18.4622 12.697 18.0649 11.9663C21.5927 9.53393 25.7915 8.26278 30.0761 8.33C34.3607 8.39722 38.5176 9.79946 41.9674 12.3413L40.9999 13.2825C40.8604 13.4232 40.7822 13.6132 40.7824 13.8113C40.7818 13.91 40.8007 14.0078 40.838 14.0992C40.8754 14.1906 40.9304 14.2737 40.9999 14.3438L44.3074 17.625C44.4479 17.7647 44.638 17.8431 44.8361 17.8431C45.0343 17.8431 45.2243 17.7647 45.3649 17.625L48.6536 14.3363C48.7233 14.2666 48.7787 14.1839 48.8164 14.0929C48.8542 14.0018 48.8736 13.9042 48.8736 13.8057C48.8736 13.7071 48.8542 13.6095 48.8164 13.5185C48.7787 13.4274 48.7233 13.3447 48.6536 13.275L45.3649 9.98629C45.2243 9.8466 45.0343 9.7682 44.8361 9.7682C44.638 9.7682 44.4479 9.8466 44.3074 9.98629L43.0361 11.25C39.903 8.8924 36.1988 7.41115 32.304 6.9584C28.4092 6.50565 24.464 7.09771 20.8736 8.67379L25.1974 4.36129C25.6876 4.59554 26.245 4.64857 26.7706 4.51096C27.2963 4.37335 27.7562 4.054 28.0687 3.60956C28.3813 3.16513 28.5263 2.62434 28.4781 2.08314C28.4299 1.54194 28.1915 1.03532 27.8053 0.653147C27.4191 0.270976 26.91 0.0379657 26.3683 -0.0045465C25.8266 -0.0470587 25.2874 0.103676 24.8463 0.420916C24.4052 0.738156 24.0907 1.20139 23.9586 1.72844C23.8266 2.25549 23.8855 2.81229 24.1249 3.30004L16.8274 10.6088C16.0864 10.1118 15.1959 9.88742 14.3079 9.97407C13.4199 10.0607 12.5896 10.453 11.9587 11.0839C11.3278 11.7148 10.9355 12.5451 10.8489 13.4331C10.7622 14.3211 10.9866 15.2116 11.4836 15.9525L4.17487 23.25C3.6852 23.0114 3.1268 22.9542 2.59889 23.0884C2.07098 23.2226 1.60776 23.5396 1.29153 23.9832C0.975297 24.4267 0.826543 24.9679 0.871698 25.5108C0.916854 26.0536 1.15299 26.5628 1.53816 26.948C1.92332 27.3332 2.43257 27.5693 2.9754 27.6145C3.51823 27.6596 4.05949 27.5109 4.503 27.1946C4.94651 26.8784 5.26355 26.4152 5.39777 25.8873C5.532 25.3594 5.47472 24.801 5.23612 24.3113L9.55986 19.9988C7.98221 23.5882 7.38828 27.5328 7.83905 31.4276C8.28982 35.3225 9.76905 39.0271 12.1249 42.1613L10.8574 43.4325C10.7177 43.5731 10.6393 43.7632 10.6393 43.9613C10.6393 44.1594 10.7177 44.3495 10.8574 44.49L14.1461 47.7788C14.2861 47.9196 14.4763 47.9992 14.6749 48C14.7738 48.0001 14.8718 47.9806 14.9632 47.9426C15.0546 47.9047 15.1376 47.849 15.2074 47.7788L18.4999 44.49C18.6396 44.3495 18.718 44.1594 18.718 43.9613C18.718 43.7632 18.6396 43.5731 18.4999 43.4325L15.2186 40.125ZM44.8436 11.5688L47.0711 13.7963L44.8436 16.0238L42.6161 13.7963L44.8436 11.5688ZM25.6249 1.73629C25.7363 1.62393 25.8786 1.54721 26.0337 1.51587C26.1889 1.48452 26.3498 1.49996 26.4961 1.56022C26.6425 1.62049 26.7676 1.72286 26.8556 1.85435C26.9437 1.98585 26.9907 2.14054 26.9907 2.29879C26.9907 2.45705 26.9437 2.61173 26.8556 2.74323C26.7676 2.87472 26.6425 2.9771 26.4961 3.03736C26.3498 3.09762 26.1889 3.11306 26.0337 3.08171C25.8786 3.05037 25.7363 2.97365 25.6249 2.86129C25.5509 2.78746 25.4923 2.69977 25.4523 2.60325C25.4123 2.50673 25.3917 2.40328 25.3917 2.29879C25.3917 2.19431 25.4123 2.09085 25.4523 1.99433C25.4923 1.89781 25.5509 1.81013 25.6249 1.73629ZM13.0249 12.15C13.2426 11.9312 13.5015 11.7576 13.7866 11.6391C14.0717 11.5206 14.3774 11.4596 14.6861 11.4596C14.9948 11.4596 15.3005 11.5206 15.5856 11.6391C15.8707 11.7576 16.1296 11.9312 16.3474 12.15C16.6766 12.4787 16.9009 12.8977 16.9919 13.3539C17.0829 13.8101 17.0366 14.283 16.8587 14.7129C16.6809 15.1427 16.3795 15.5102 15.9928 15.7687C15.6061 16.0272 15.1513 16.1652 14.6861 16.1652C14.2209 16.1652 13.7662 16.0272 13.3794 15.7687C12.9927 15.5102 12.6913 15.1427 12.5135 14.7129C12.3356 14.283 12.2893 13.8101 12.3803 13.3539C12.4713 12.8977 12.6957 12.4787 13.0249 12.15ZM3.73987 25.875C3.58675 26.0027 3.39142 26.0685 3.19225 26.0595C2.99308 26.0505 2.80448 25.9674 2.6635 25.8264C2.52252 25.6854 2.43937 25.4968 2.43037 25.2977C2.42137 25.0985 2.48718 24.9032 2.61487 24.75C2.76494 24.6026 2.96694 24.5199 3.17737 24.5199C3.38779 24.5199 3.58979 24.6026 3.73987 24.75C3.81379 24.8239 3.87244 24.9116 3.91246 25.0081C3.95247 25.1046 3.97307 25.2081 3.97307 25.3125C3.97307 25.417 3.95247 25.5205 3.91246 25.617C3.87244 25.7135 3.81379 25.8012 3.73987 25.875ZM14.6861 46.1738L12.4586 43.9463L14.6861 41.7188L16.9136 43.9463L14.6861 46.1738Z" fill="#28293D"/>
</g>
<defs>
<clipPath id="clip0_297_5219">
<rect width="48" height="48" fill="white" transform="translate(0.875)"/>
</clipPath>
</defs>
</svg>
