<svg width="49" height="48" viewBox="0 0 49 48" fill="none" xmlns="http://www.w3.org/2000/svg">
<path d="M12.625 16H8.625C8.35978 16 8.10543 16.1054 7.91789 16.2929C7.73036 16.4804 7.625 16.7348 7.625 17C7.625 17.2652 7.73036 17.5196 7.91789 17.7071C8.10543 17.8946 8.35978 18 8.625 18H10.625V19C10.625 19.2652 10.7304 19.5196 10.9179 19.7071C11.1054 19.8946 11.3598 20 11.625 20C11.8902 20 12.1446 19.8946 12.3321 19.7071C12.5196 19.5196 12.625 19.2652 12.625 19V18C13.4206 18 14.1837 17.6839 14.7463 17.1213C15.3089 16.5587 15.625 15.7957 15.625 15C15.625 14.2044 15.3089 13.4413 14.7463 12.8787C14.1837 12.3161 13.4206 12 12.625 12H10.625C10.3598 12 10.1054 11.8946 9.91789 11.7071C9.73036 11.5196 9.625 11.2652 9.625 11C9.625 10.7348 9.73036 10.4804 9.91789 10.2929C10.1054 10.1054 10.3598 10 10.625 10H14.625C14.8902 10 15.1446 9.89464 15.3321 9.70711C15.5196 9.51957 15.625 9.26522 15.625 9C15.625 8.73478 15.5196 8.48043 15.3321 8.29289C15.1446 8.10536 14.8902 8 14.625 8H12.625V7C12.625 6.73478 12.5196 6.48043 12.3321 6.29289C12.1446 6.10536 11.8902 6 11.625 6C11.3598 6 11.1054 6.10536 10.9179 6.29289C10.7304 6.48043 10.625 6.73478 10.625 7V8C9.82935 8 9.06629 8.31607 8.50368 8.87868C7.94107 9.44129 7.625 10.2044 7.625 11C7.625 11.7957 7.94107 12.5587 8.50368 13.1213C9.06629 13.6839 9.82935 14 10.625 14H12.625C12.8902 14 13.1446 14.1054 13.3321 14.2929C13.5196 14.4804 13.625 14.7348 13.625 15C13.625 15.2652 13.5196 15.5196 13.3321 15.7071C13.1446 15.8946 12.8902 16 12.625 16Z" fill="#28293D"/>
<path d="M44.625 17H37.625V4C37.6241 3.20463 37.3077 2.44209 36.7453 1.87967C36.1829 1.31726 35.4204 1.0009 34.625 1H4.625C3.82963 1.0009 3.06709 1.31726 2.50467 1.87967C1.94226 2.44209 1.6259 3.20463 1.625 4V44C1.6259 44.7954 1.94226 45.5579 2.50467 46.1203C3.06709 46.6827 3.82963 46.9991 4.625 47H44.625C45.4204 46.9991 46.1829 46.6827 46.7453 46.1203C47.3077 45.5579 47.6241 44.7954 47.625 44V20C47.6241 19.2046 47.3077 18.4421 46.7453 17.8797C46.1829 17.3173 45.4204 17.0009 44.625 17V17ZM3.625 44V4C3.62532 3.73488 3.73078 3.48071 3.91824 3.29324C4.10571 3.10578 4.35988 3.00032 4.625 3H34.625C34.8901 3.00032 35.1443 3.10578 35.3318 3.29324C35.5192 3.48071 35.6247 3.73488 35.625 4V17H24.625C23.8296 17.0009 23.0671 17.3173 22.5047 17.8797C21.9423 18.4421 21.6259 19.2046 21.625 20V44C21.6284 44.3414 21.6907 44.6797 21.8092 45H4.625C4.35988 44.9997 4.10571 44.8942 3.91824 44.7068C3.73078 44.5193 3.62532 44.2651 3.625 44V44ZM45.625 44C45.6247 44.2651 45.5192 44.5193 45.3318 44.7068C45.1443 44.8942 44.8901 44.9997 44.625 45H24.625C24.3599 44.9997 24.1057 44.8942 23.9182 44.7068C23.7308 44.5193 23.6253 44.2651 23.625 44V20C23.6253 19.7349 23.7308 19.4807 23.9182 19.2932C24.1057 19.1058 24.3599 19.0003 24.625 19H44.625C44.8901 19.0003 45.1443 19.1058 45.3318 19.2932C45.5192 19.4807 45.6247 19.7349 45.625 20V44Z" fill="#28293D"/>
<path d="M40.625 23H28.625C28.0947 23.0005 27.5863 23.2113 27.2113 23.5863C26.8363 23.9613 26.6255 24.4697 26.625 25V29C26.6255 29.5303 26.8363 30.0387 27.2113 30.4137C27.5863 30.7887 28.0947 30.9995 28.625 31H40.625C41.1553 30.9995 41.6637 30.7887 42.0387 30.4137C42.4137 30.0387 42.6245 29.5303 42.625 29V25C42.6245 24.4697 42.4137 23.9613 42.0387 23.5863C41.6637 23.2113 41.1553 23.0005 40.625 23V23ZM40.625 30V29H28.625V25H40.625V29H40.627L40.625 30Z" fill="#28293D"/>
<path d="M32.625 37H28.625C28.3598 37 28.1054 37.1054 27.9179 37.2929C27.7304 37.4804 27.625 37.7348 27.625 38C27.625 38.2652 27.7304 38.5196 27.9179 38.7071C28.1054 38.8946 28.3598 39 28.625 39H32.625C32.8902 39 33.1446 38.8946 33.3321 38.7071C33.5196 38.5196 33.625 38.2652 33.625 38C33.625 37.7348 33.5196 37.4804 33.3321 37.2929C33.1446 37.1054 32.8902 37 32.625 37Z" fill="#28293D"/>
<path d="M40.625 37H36.625C36.3598 37 36.1054 37.1054 35.9179 37.2929C35.7304 37.4804 35.625 37.7348 35.625 38C35.625 38.2652 35.7304 38.5196 35.9179 38.7071C36.1054 38.8946 36.3598 39 36.625 39H40.625C40.8902 39 41.1446 38.8946 41.3321 38.7071C41.5196 38.5196 41.625 38.2652 41.625 38C41.625 37.7348 41.5196 37.4804 41.3321 37.2929C41.1446 37.1054 40.8902 37 40.625 37Z" fill="#28293D"/>
<path d="M32.625 33H28.625C28.3598 33 28.1054 33.1054 27.9179 33.2929C27.7304 33.4804 27.625 33.7348 27.625 34C27.625 34.2652 27.7304 34.5196 27.9179 34.7071C28.1054 34.8946 28.3598 35 28.625 35H32.625C32.8902 35 33.1446 34.8946 33.3321 34.7071C33.5196 34.5196 33.625 34.2652 33.625 34C33.625 33.7348 33.5196 33.4804 33.3321 33.2929C33.1446 33.1054 32.8902 33 32.625 33Z" fill="#28293D"/>
<path d="M40.625 33H36.625C36.3598 33 36.1054 33.1054 35.9179 33.2929C35.7304 33.4804 35.625 33.7348 35.625 34C35.625 34.2652 35.7304 34.5196 35.9179 34.7071C36.1054 34.8946 36.3598 35 36.625 35H40.625C40.8902 35 41.1446 34.8946 41.3321 34.7071C41.5196 34.5196 41.625 34.2652 41.625 34C41.625 33.7348 41.5196 33.4804 41.3321 33.2929C41.1446 33.1054 40.8902 33 40.625 33Z" fill="#28293D"/>
<path d="M18.625 23H8.625C8.35978 23 8.10543 23.1054 7.91789 23.2929C7.73036 23.4804 7.625 23.7348 7.625 24C7.625 24.2652 7.73036 24.5196 7.91789 24.7071C8.10543 24.8946 8.35978 25 8.625 25H18.625C18.8902 25 19.1446 24.8946 19.3321 24.7071C19.5196 24.5196 19.625 24.2652 19.625 24C19.625 23.7348 19.5196 23.4804 19.3321 23.2929C19.1446 23.1054 18.8902 23 18.625 23Z" fill="#28293D"/>
<path d="M18.625 29H8.625C8.35978 29 8.10543 29.1054 7.91789 29.2929C7.73036 29.4804 7.625 29.7348 7.625 30C7.625 30.2652 7.73036 30.5196 7.91789 30.7071C8.10543 30.8946 8.35978 31 8.625 31H18.625C18.8902 31 19.1446 30.8946 19.3321 30.7071C19.5196 30.5196 19.625 30.2652 19.625 30C19.625 29.7348 19.5196 29.4804 19.3321 29.2929C19.1446 29.1054 18.8902 29 18.625 29Z" fill="#28293D"/>
<path d="M18.625 35H8.625C8.35978 35 8.10543 35.1054 7.91789 35.2929C7.73036 35.4804 7.625 35.7348 7.625 36C7.625 36.2652 7.73036 36.5196 7.91789 36.7071C8.10543 36.8946 8.35978 37 8.625 37H18.625C18.8902 37 19.1446 36.8946 19.3321 36.7071C19.5196 36.5196 19.625 36.2652 19.625 36C19.625 35.7348 19.5196 35.4804 19.3321 35.2929C19.1446 35.1054 18.8902 35 18.625 35Z" fill="#28293D"/>
<path d="M31.625 14C31.625 13.7348 31.5196 13.4804 31.3321 13.2929C31.1446 13.1054 30.8902 13 30.625 13H20.625C20.3598 13 20.1054 13.1054 19.9179 13.2929C19.7304 13.4804 19.625 13.7348 19.625 14C19.625 14.2652 19.7304 14.5196 19.9179 14.7071C20.1054 14.8946 20.3598 15 20.625 15H30.625C30.8902 15 31.1446 14.8946 31.3321 14.7071C31.5196 14.5196 31.625 14.2652 31.625 14Z" fill="#28293D"/>
</svg>
