<svg width="39" height="43" viewBox="0 0 39 43" fill="none" xmlns="http://www.w3.org/2000/svg">
<path d="M5.90142 15.3586L2.51859 15.3586C2.52334 17.0075 2.53518 18.5478 2.55876 19.97C2.5871 21.7014 2.63201 23.3834 2.68634 24.9968C2.69818 25.3417 2.42643 25.6298 2.08401 25.6392C1.7391 25.6511 1.45326 25.3817 1.44143 25.0368C1.3871 23.4352 1.34218 21.7463 1.31385 19.991C1.28777 18.3753 1.27127 16.7902 1.26893 15.2501C0.997266 15.1532 0.753931 14.9925 0.553182 14.7895C0.210682 14.4421 0.000433193 13.9626 0.000433238 13.4382C0.000433284 12.9138 0.210683 12.4366 0.553182 12.087C0.704348 11.9335 0.883848 11.8036 1.0776 11.7091C0.420932 10.8916 0.163432 9.83339 0.158682 8.74439C0.153932 7.3129 0.591016 5.81523 1.0941 4.79223C1.1791 4.62215 1.25235 4.4804 1.31852 4.3694C1.54768 3.97732 1.57126 3.54257 1.49568 3.1269C1.3681 2.44415 0.978265 1.79699 0.697182 1.40249C0.595599 1.27957 0.517683 1.10949 0.489267 0.951323C0.458517 0.767074 0.486934 0.589825 0.571934 0.431658C0.65935 0.266325 0.798682 0.13866 0.980599 0.0654098C1.12477 0.00874324 1.2641 -0.00542402 1.41768 0.00174265C2.57751 0.0914093 3.66185 0.452908 4.60909 1.02207C5.58234 1.61032 6.41151 2.41824 7.02809 3.38207C7.21467 3.67257 7.13201 4.05749 6.84142 4.24424C6.55092 4.43074 6.16584 4.34582 5.97926 4.05524C5.46426 3.25449 4.77443 2.58115 3.96418 2.09216C3.40668 1.75674 2.79493 1.50866 2.14526 1.36691C2.38618 1.80632 2.61535 2.33549 2.72168 2.9024C2.84685 3.58749 2.79726 4.31499 2.3956 5.00007C2.32476 5.12298 2.26335 5.2364 2.21368 5.33798C1.77901 6.2239 1.39876 7.51356 1.40343 8.73964C1.41051 9.86398 1.75068 10.927 2.71685 11.4917L2.76643 11.5201L5.52084 11.5201C5.95784 10.9979 6.30984 10.4026 6.55551 9.76014C6.82717 9.05623 6.976 8.28606 6.976 7.47581C6.976 7.1334 6.95001 6.78607 6.89567 6.44832C6.84134 6.10815 7.07284 5.78915 7.413 5.7349C7.75317 5.6804 8.07209 5.91198 8.12642 6.25215C8.19025 6.6584 8.22559 7.06481 8.22559 7.47581C8.22559 8.43248 8.04609 9.35373 7.71775 10.2041C7.53117 10.6931 7.29492 11.1538 7.01851 11.5861C7.24525 11.6476 7.4555 11.7515 7.63975 11.8908C9.23433 10.3104 11.1264 9.02789 13.2218 8.13481C15.3762 7.21606 17.7432 6.70806 20.2283 6.70806C22.3897 6.70806 24.4639 7.09315 26.3867 7.7994C28.3781 8.53165 30.2042 9.60656 31.794 10.9553C32.0561 11.1775 32.0893 11.5697 31.8672 11.8342C31.6451 12.0965 31.2507 12.1295 30.9884 11.9075C29.5096 10.6531 27.8111 9.65148 25.9568 8.97115C24.1733 8.31681 22.2433 7.95781 20.2283 7.95781C17.9109 7.95781 15.7092 8.43015 13.7108 9.28298C11.6887 10.1428 9.87217 11.3948 8.35558 12.9397C8.39808 13.0981 8.41942 13.2657 8.41942 13.4382C8.41942 13.9626 8.20917 14.4421 7.86659 14.7895C7.66584 14.9926 7.4225 15.1532 7.15084 15.2501C7.14142 20.4045 7.01384 25.214 6.79409 29.3008C7.28783 28.8402 7.85708 28.4598 8.47842 28.1763C9.27917 27.81 10.1651 27.6069 11.0934 27.6069C11.6674 27.6069 12.2273 27.6849 12.7659 27.8339C13.3162 27.9849 13.836 28.2094 14.3156 28.4952C14.6108 28.6702 14.7101 29.0505 14.5329 29.3458C14.3581 29.641 13.9777 29.7403 13.6824 29.563C13.2974 29.3363 12.8817 29.1568 12.4375 29.0339C12.017 28.9181 11.5658 28.8568 11.0934 28.8568C10.3422 28.8568 9.63116 29.0197 8.99575 29.3079C8.332 29.6102 7.74375 30.0544 7.27134 30.5977C7.09184 30.8033 6.89809 30.9992 6.6855 31.1693C6.61934 32.2039 6.54842 33.1795 6.4705 34.0938C6.02192 39.39 5.23284 42.6665 4.21001 42.6665C3.41393 42.6665 2.80684 41.0861 2.41468 38.3317C2.05326 35.8206 1.75801 32.2016 1.55485 27.8739C1.54068 27.5289 1.80759 27.2384 2.15009 27.2243C2.49501 27.2079 2.78551 27.4748 2.79976 27.8197C3.00051 32.0954 3.29343 35.6742 3.64776 38.1569C3.94542 40.2264 4.14626 41.4168 4.21001 41.4168C4.46742 41.4168 4.83601 38.5798 5.22567 33.9922C5.63209 29.2039 5.88726 22.6345 5.90142 15.3586V15.3586ZM13.4394 23.4C15.4261 23.8487 17.2002 24.8526 18.5916 26.244C19.9806 27.633 20.9845 29.4071 21.4334 31.3962C22.0759 30.9473 22.6216 30.3709 23.035 29.707C23.5759 28.8307 23.8901 27.7959 23.8901 26.6857C23.8901 25.0983 23.2476 23.6644 22.2082 22.625C21.1688 21.5855 19.7349 20.943 18.1475 20.943C17.0372 20.943 16.0026 21.2571 15.1262 21.7981C14.4622 22.2116 13.8858 22.7572 13.4394 23.4V23.4ZM17.7057 27.1274C16.3025 25.722 14.4575 24.7629 12.4 24.477C11.963 24.444 11.6866 23.9762 11.8851 23.5747C12.4662 22.4075 13.3662 21.425 14.4717 20.7399C15.5418 20.0761 16.8033 19.6933 18.1474 19.6933C20.0797 19.6933 21.8278 20.4752 23.0916 21.7415C24.3578 23.0053 25.1397 24.7534 25.1397 26.6856C25.1397 28.0297 24.7571 29.2913 24.0932 30.3614C23.4294 31.4338 22.4845 32.3125 21.3624 32.8936C21.2632 32.9457 21.1805 32.9904 21.0624 33.007C20.7222 33.0519 20.4081 32.8134 20.3631 32.4707C20.0821 30.3993 19.1183 28.5402 17.7057 27.1274V27.1274ZM29.2831 35.6057C28.2201 35.6057 27.2563 35.1733 26.5571 34.4766C25.8602 33.7797 25.4279 32.8135 25.4279 31.7505C25.4279 30.6851 25.8602 29.7214 26.5571 29.0244C27.2563 28.325 28.2201 27.8952 29.2831 27.8952C30.3485 27.8952 31.3124 28.325 32.0092 29.0244C32.7085 29.7214 33.1407 30.6851 33.1407 31.7505C33.1407 32.8135 32.7085 33.7797 32.0092 34.4766C31.3123 35.1733 30.3485 35.6057 29.2831 35.6057ZM27.4406 33.5929C27.913 34.063 28.565 34.3561 29.2831 34.3561C30.0036 34.3561 30.6556 34.0629 31.1257 33.5929C31.5981 33.1206 31.8887 32.4686 31.8887 31.7505C31.8887 31.03 31.5981 30.3779 31.1257 29.9079C30.6556 29.4354 30.0036 29.1449 29.2831 29.1449C28.565 29.1449 27.9131 29.4354 27.4406 29.9079C26.9705 30.378 26.6776 31.03 26.6776 31.7505C26.6776 32.4686 26.9705 33.1206 27.4406 33.5929ZM30.9745 25.5897C29.9091 25.5897 28.9453 25.1597 28.2484 24.4605C27.5491 23.7637 27.1193 22.7998 27.1193 21.7344C27.1193 20.6714 27.5492 19.7075 28.2484 19.0083C28.9453 18.3115 29.9091 17.8792 30.9745 17.8792C32.0375 17.8792 33.0013 18.3115 33.7005 19.0083C34.3975 19.7075 34.8297 20.6714 34.8297 21.7344C34.8297 22.7998 34.3974 23.7637 33.7005 24.4605C33.0013 25.1597 32.0375 25.5897 30.9745 25.5897V25.5897ZM29.1319 23.577C29.602 24.0495 30.254 24.34 30.9745 24.34C31.6926 24.34 32.3445 24.0495 32.817 23.577C33.2871 23.107 33.58 22.455 33.58 21.7345C33.58 21.0164 33.2871 20.3643 32.817 19.8919C32.3445 19.4218 31.6925 19.129 30.9745 19.129C30.254 19.129 29.602 19.4219 29.1319 19.8919C28.6595 20.3644 28.3689 21.0164 28.3689 21.7345C28.369 22.455 28.6595 23.107 29.1319 23.577ZM23.8664 17.962C22.8011 17.962 21.8372 17.5296 21.1403 16.8327C20.4435 16.1335 20.0112 15.1696 20.0112 14.1066C20.0112 13.0414 20.4436 12.0775 21.1403 11.3806C21.8372 10.6813 22.8011 10.2513 23.8664 10.2513C24.9318 10.2513 25.8956 10.6813 26.5925 11.3806C27.2894 12.0775 27.7216 13.0414 27.7216 14.1066C27.7216 15.1696 27.2894 16.1335 26.5925 16.8327C25.8956 17.5296 24.9318 17.962 23.8664 17.962ZM22.0238 15.9493C22.4962 16.4194 23.1459 16.7123 23.8664 16.7123C24.5869 16.7123 25.2365 16.4193 25.709 15.9493C26.1814 15.4768 26.472 14.8248 26.472 14.1067C26.472 13.3862 26.1815 12.7343 25.709 12.2643C25.2365 11.7918 24.5869 11.5013 23.8664 11.5013C23.1459 11.5013 22.4963 11.7918 22.0238 12.2643C21.5537 12.7344 21.2608 13.3862 21.2608 14.1067C21.2609 14.8247 21.5538 15.4768 22.0238 15.9493ZM13.7512 19.0557C12.6882 19.0557 11.7243 18.6234 11.0251 17.9265C10.3282 17.2272 9.89592 16.2634 9.89592 15.2004C9.89592 14.135 10.3282 13.1712 11.0251 12.4721C11.7243 11.7751 12.6882 11.3428 13.7512 11.3428C14.8166 11.3428 15.7804 11.7751 16.4796 12.4721C17.1765 13.1713 17.6087 14.135 17.6087 15.2004C17.6087 16.2634 17.1765 17.2272 16.4796 17.9265C15.7804 18.6234 14.8166 19.0557 13.7512 19.0557ZM11.911 17.0429C12.3811 17.5131 13.0331 17.806 13.7512 17.806C14.4717 17.806 15.1237 17.513 15.5937 17.0429C16.0662 16.5705 16.3567 15.9186 16.3567 15.2005C16.3567 14.48 16.0662 13.8279 15.5937 13.3579C15.1236 12.8856 14.4717 12.5949 13.7512 12.5949C13.0331 12.5949 12.3811 12.8856 11.911 13.3579C11.4386 13.828 11.148 14.48 11.148 15.2005C11.148 15.9185 11.4386 16.5705 11.911 17.0429ZM32.914 13.8351C32.6919 13.5706 32.725 13.1783 32.9872 12.9541C33.2518 12.7319 33.6439 12.7649 33.866 13.0271C35.2148 14.617 36.292 16.443 37.022 18.4345C37.7283 20.3574 38.1133 22.4313 38.1133 24.5952C38.1133 29.5324 36.1101 34.0042 32.8738 37.2405C29.6375 40.4768 25.1656 42.4798 20.2286 42.4798C19.3309 42.4798 18.4426 42.3948 17.5545 42.2792C16.8529 42.187 16.2576 41.9743 15.7852 41.6649C14.7906 41.0153 14.3512 39.9523 14.5024 38.7853C14.5875 38.1262 14.8591 37.4175 15.3362 36.6899C15.6008 36.2837 15.8087 35.8395 15.9505 35.3694C16.0852 34.9135 16.1583 34.4268 16.1583 33.9214C16.1583 33.4489 16.0969 32.9977 15.9812 32.5771C15.8583 32.1331 15.6788 31.7174 15.452 31.3324C15.2772 31.0369 15.374 30.6568 15.6693 30.4819C15.9647 30.3047 16.3449 30.4039 16.5197 30.6992C16.8079 31.1787 17.0301 31.6985 17.1812 32.2489C17.3301 32.7874 17.408 33.3474 17.408 33.9214C17.408 34.5426 17.3159 35.1474 17.1458 35.7215C16.9687 36.3167 16.7087 36.8719 16.3804 37.375C16.0096 37.9419 15.7993 38.4735 15.7379 38.946C15.6482 39.6453 15.8702 40.2288 16.4678 40.6208C16.7915 40.8311 17.2096 40.9776 17.7152 41.0437C18.5466 41.1524 19.3876 41.2303 20.2286 41.2303C24.8209 41.2303 28.9808 39.3687 31.9904 36.357C35.0023 33.3474 36.8637 29.1876 36.8637 24.5951C36.8637 22.5777 36.5046 20.6479 35.8503 18.8643C35.1699 17.0098 34.1683 15.3114 32.914 13.8351V13.8351ZM1.89501 14.1066L6.52509 14.1066C6.70225 14.1066 6.86292 14.0334 6.97867 13.9152C7.09676 13.7948 7.17 13.6247 7.17 13.4381C7.17 13.2515 7.09676 13.0814 6.97867 12.9609C6.86292 12.8427 6.70225 12.7695 6.52509 12.7695L1.89501 12.7695C1.71785 12.7695 1.55726 12.8427 1.44151 12.9609C1.32343 13.0813 1.25018 13.2514 1.25018 13.4381C1.25018 13.6246 1.32343 13.7947 1.44151 13.9152C1.55718 14.0334 1.71785 14.1066 1.89501 14.1066Z" fill="white"/>
</svg>
