<svg width="49" height="48" viewBox="0 0 49 48" fill="none" xmlns="http://www.w3.org/2000/svg">
<g clip-path="url(#clip0_297_5200)">
<path d="M38.775 19.2C44.0688 19.2 48.375 14.8938 48.375 9.6C48.375 4.30625 44.0688 0 38.775 0C34.9309 0 31.6164 2.27617 30.0848 5.54727L27.5141 4.59844C27.5445 4.40156 27.575 4.20469 27.575 4C27.575 1.79453 25.7805 0 23.575 0C21.3695 0 19.575 1.79453 19.575 4C19.575 6.20547 21.3695 8 23.575 8C25.0078 8 26.2574 7.23594 26.9637 6.10078L29.5301 7.04805C29.3047 7.8625 29.175 8.71523 29.175 9.6C29.175 10.648 29.3492 11.6543 29.6613 12.5992L20.8629 16.3281C19.252 13.2824 16.0543 11.2 12.375 11.2C11.1828 11.2 10.0453 11.4289 8.99102 11.8273L6.77813 7.17695C7.74219 6.4457 8.375 5.3 8.375 4C8.375 1.79453 6.58047 0 4.375 0C2.16953 0 0.375 1.79453 0.375 4C0.375 6.20547 2.16953 8 4.375 8C4.70781 8 5.02695 7.94727 5.33672 7.86953L7.54688 12.5152C4.69805 14.1824 2.775 17.2672 2.775 20.8C2.775 24.1184 4.46797 27.0473 7.03438 28.7719L5.57109 31.4023C5.19023 31.2824 4.79414 31.2 4.375 31.2C2.16953 31.2 0.375 32.9945 0.375 35.2C0.375 37.4055 2.16953 39.2 4.375 39.2C6.58047 39.2 8.375 37.4055 8.375 35.2C8.375 33.9887 7.82227 32.9145 6.96953 32.1809L8.43594 29.5449C9.63906 30.0895 10.9703 30.4 12.375 30.4C14.5703 30.4 16.5895 29.6512 18.2086 28.4062L21.3574 31.8703C19.7605 33.5855 18.775 35.877 18.775 38.4C18.775 38.8895 18.8238 39.3664 18.8941 39.8359L15.1895 40.7152C14.552 39.352 13.1766 38.4 11.575 38.4C9.36953 38.4 7.575 40.1945 7.575 42.4C7.575 44.6055 9.36953 46.4 11.575 46.4C13.7805 46.4 15.575 44.6055 15.575 42.4C15.575 42.3559 15.5629 42.3145 15.5621 42.2703L19.2598 41.3937C20.5207 45.2246 24.127 48 28.375 48C33.6688 48 37.975 43.6938 37.975 38.4C37.975 36.7586 37.5598 35.2129 36.8301 33.8609L41.5293 30.8055C42.2559 31.5414 43.2621 32 44.375 32C46.5805 32 48.375 30.2055 48.375 28C48.375 25.7945 46.5805 24 44.375 24C42.1695 24 40.375 25.7945 40.375 28C40.375 28.5168 40.4813 29.0078 40.6605 29.4617L35.9504 32.5238C35.0078 31.3121 33.784 30.3336 32.375 29.684L36.2797 18.8594C37.0766 19.0742 37.9109 19.2 38.775 19.2ZM23.575 6.4C22.252 6.4 21.175 5.32305 21.175 4C21.175 2.67695 22.252 1.6 23.575 1.6C24.898 1.6 25.975 2.67695 25.975 4C25.975 5.32305 24.898 6.4 23.575 6.4ZM1.975 4C1.975 2.67695 3.05195 1.6 4.375 1.6C5.69805 1.6 6.775 2.67695 6.775 4C6.775 5.32305 5.69805 6.4 4.375 6.4C3.05195 6.4 1.975 5.32305 1.975 4ZM4.375 37.6C3.05195 37.6 1.975 36.523 1.975 35.2C1.975 33.877 3.05195 32.8 4.375 32.8C5.69805 32.8 6.775 33.877 6.775 35.2C6.775 36.523 5.69805 37.6 4.375 37.6ZM11.575 44.8C10.252 44.8 9.175 43.723 9.175 42.4C9.175 41.077 10.252 40 11.575 40C12.898 40 13.975 41.077 13.975 42.4C13.975 43.723 12.898 44.8 11.575 44.8ZM44.375 25.6C45.698 25.6 46.775 26.677 46.775 28C46.775 29.323 45.698 30.4 44.375 30.4C43.052 30.4 41.975 29.323 41.975 28C41.975 26.677 43.052 25.6 44.375 25.6ZM34.0637 16.0512C34.4207 14.2008 36.052 12.8 37.975 12.8H39.575C41.498 12.8 43.1293 14.2008 43.4863 16.0512C42.1629 17.0199 40.5375 17.6 38.775 17.6C37.0125 17.6 35.3871 17.0199 34.0637 16.0512ZM38.775 11.2C37.452 11.2 36.375 10.123 36.375 8.8C36.375 7.47695 37.452 6.4 38.775 6.4C40.098 6.4 41.175 7.47695 41.175 8.8C41.175 10.123 40.098 11.2 38.775 11.2ZM38.775 1.6C43.1863 1.6 46.775 5.18867 46.775 9.6C46.775 11.6 46.0316 13.4273 44.8133 14.8313C44.2527 13.3551 43.084 12.177 41.6277 11.5953C42.3359 10.8734 42.775 9.88789 42.775 8.8C42.775 6.59453 40.9805 4.8 38.775 4.8C36.5695 4.8 34.775 6.59453 34.775 8.8C34.775 9.88789 35.2141 10.8734 35.9223 11.5953C34.466 12.177 33.2973 13.3551 32.7367 14.8313C31.5184 13.4273 30.775 11.6 30.775 9.6C30.775 5.18867 34.3637 1.6 38.775 1.6ZM4.375 20.8C4.375 16.3887 7.96367 12.8 12.375 12.8C16.7863 12.8 20.375 16.3887 20.375 20.8C20.375 22.8062 19.627 24.6383 18.4023 26.0441C17.8438 24.5625 16.6727 23.3785 15.2125 22.7953C15.9199 22.0734 16.359 21.0879 16.359 20C16.359 17.7945 14.5645 16 12.359 16C10.1535 16 8.35898 17.7945 8.35898 20C8.35898 21.0879 8.79805 22.0734 9.50625 22.7953C8.0543 23.3742 6.88711 24.548 6.32461 26.0184C5.11328 24.616 4.375 22.7945 4.375 20.8ZM9.95898 20C9.95898 18.677 11.0359 17.6 12.359 17.6C13.682 17.6 14.759 18.677 14.759 20C14.759 21.323 13.682 22.4 12.359 22.4C11.0359 22.4 9.95898 21.323 9.95898 20ZM7.65039 27.2406C8.01094 25.3953 9.63984 24 11.559 24H13.159C15.0855 24 16.7199 25.4055 17.0719 27.2617C15.7512 28.2246 14.1309 28.8 12.375 28.8C10.6062 28.8 8.97578 28.216 7.65039 27.2406ZM23.6504 44.8406C24.0109 42.9953 25.6398 41.6 27.559 41.6H29.159C31.0855 41.6 32.7199 43.0055 33.0719 44.8617C31.7512 45.8246 30.1309 46.4 28.375 46.4C26.6063 46.4 24.9758 45.816 23.6504 44.8406ZM28.359 40C27.0359 40 25.959 38.923 25.959 37.6C25.959 36.277 27.0359 35.2 28.359 35.2C29.682 35.2 30.759 36.277 30.759 37.6C30.759 38.923 29.682 40 28.359 40ZM36.375 38.4C36.375 40.4062 35.627 42.2383 34.4023 43.6441C33.8438 42.1625 32.6727 40.9785 31.2125 40.3953C31.9199 39.6734 32.359 38.6879 32.359 37.6C32.359 35.3945 30.5645 33.6 28.359 33.6C26.1535 33.6 24.359 35.3945 24.359 37.6C24.359 38.6879 24.798 39.6734 25.5063 40.3953C24.0543 40.9742 22.8871 42.148 22.3246 43.6184C21.1133 42.216 20.375 40.3945 20.375 38.4C20.375 33.9887 23.9637 30.4 28.375 30.4C32.7863 30.4 36.375 33.9887 36.375 38.4ZM30.8703 29.1406C30.0734 28.9258 29.2391 28.8 28.375 28.8C26.1797 28.8 24.1605 29.5488 22.5414 30.7938L19.3926 27.3297C20.9895 25.6145 21.975 23.323 21.975 20.8C21.975 19.752 21.8008 18.7457 21.4887 17.8008L30.2871 14.0719C31.2727 15.9352 32.8543 17.4305 34.7758 18.316L30.8703 29.1406Z" fill="#28293D"/>
</g>
<defs>
<clipPath id="clip0_297_5200">
<rect width="48" height="48" fill="white" transform="translate(0.375)"/>
</clipPath>
</defs>
</svg>
