<svg width="42" height="43" viewBox="0 0 42 43" fill="none" xmlns="http://www.w3.org/2000/svg">
<path d="M41.7727 10.2859C41.6328 10.1452 41.443 10.0655 41.2447 10.0642C41.0463 10.0628 40.8554 10.1399 40.7136 10.2786C40.3033 10.632 39.8543 10.9378 39.3752 11.1902L35.0834 6.89845C34.9419 6.7621 34.7526 6.68674 34.556 6.68857C34.3595 6.6904 34.1716 6.76928 34.0326 6.90824C33.8937 7.0472 33.8148 7.23514 33.813 7.43165C33.8112 7.62816 33.8866 7.81753 34.0229 7.95903L37.9386 11.8747C37.1009 12.2094 36.239 12.4798 35.3602 12.6838L29.3079 6.63139C30.1929 2.91646 31.6821 1.31245 31.7143 1.27931C31.8538 1.13847 31.9318 0.948123 31.9312 0.749921C31.9307 0.551719 31.8517 0.3618 31.7114 0.221717C30.6761 -1.17789 26.9736 4.15374 27.1717 13.2486C24.9396 13.0336 22.2403 12.6931 20.2466 13.3662C18.8048 13.8069 17.482 14.5694 16.378 15.5961C15.274 16.6229 14.4177 17.887 13.8738 19.2931C12.7274 22.1164 12.1672 25.1435 12.2275 28.1902C9.37479 27.7642 4.04651 28.1184 1.17648 30.5806C0.58204 31.1416 -0.618628 32.2581 0.38857 32.939C1.06282 33.2663 1.36628 32.684 1.68788 32.2002L6.01181 36.5235C6.08145 36.5931 6.16412 36.6483 6.25511 36.686C6.34609 36.7237 6.44361 36.7431 6.54209 36.7431C6.64057 36.7431 6.73808 36.7237 6.82907 36.686C6.92005 36.6483 7.00272 36.5931 7.07236 36.5235C7.142 36.4538 7.19723 36.3712 7.23492 36.2802C7.27261 36.1892 7.29201 36.0917 7.29201 35.9932C7.29201 35.8947 7.27261 35.7972 7.23492 35.7062C7.19723 35.6152 7.142 35.5326 7.07236 35.4629L2.83173 31.2229C3.57029 30.7774 4.36539 30.4331 5.19567 30.1994L11.7937 36.7968C11.281 38.5264 10.4756 39.9983 9.36374 40.5899C9.27657 40.636 9.19935 40.6989 9.13651 40.7749C9.07366 40.8509 9.02644 40.9386 8.99752 41.0329C8.96861 41.1272 8.95858 41.2263 8.968 41.3244C8.97743 41.4226 9.00613 41.518 9.05246 41.605C9.09879 41.6921 9.16184 41.7692 9.238 41.8319C9.31416 41.8945 9.40193 41.9416 9.49629 41.9703C9.59066 41.999 9.68975 42.0088 9.78791 41.9992C9.88607 41.9895 9.98136 41.9606 10.0683 41.9141C13.5993 40.0354 14.2801 33.2246 13.8483 30.1646C13.8326 30.053 13.8172 29.9184 13.8029 29.7656C17.5696 29.841 24.3048 28.8507 27.2291 24.6153C29.2515 22.0904 29.2219 18.2778 28.7436 14.8215C37.8352 15.0188 43.1571 11.3257 41.7727 10.2859V10.2859ZM12.363 30.374C12.5412 31.941 12.4842 33.5259 12.194 35.076L6.91658 29.7992C8.46697 29.509 10.052 29.452 11.6192 29.6299C11.8083 29.6566 12.0407 29.68 12.2918 29.7011C12.3129 29.9524 12.3363 30.1849 12.363 30.374V30.374ZM13.7355 28.258C13.6938 25.7529 14.0735 23.2586 14.8588 20.8793L19.1936 25.2141C19.2632 25.2838 19.3459 25.339 19.4369 25.3767C19.5279 25.4144 19.6254 25.4338 19.7239 25.4338C19.8224 25.4338 19.9199 25.4144 20.0109 25.3767C20.1019 25.339 20.1845 25.2838 20.2542 25.2141C20.3238 25.1445 20.379 25.0618 20.4167 24.9708C20.4544 24.8798 20.4738 24.7823 20.4738 24.6839C20.4738 24.5854 20.4544 24.4879 20.4167 24.3969C20.379 24.3059 20.3238 24.2232 20.2542 24.1536L15.4805 19.3799C15.6636 19.0133 15.8666 18.6571 16.0886 18.3127L23.6805 25.9048C22.4907 26.6415 21.1947 27.191 19.8379 27.5339L16.8773 24.5733C16.7357 24.4372 16.5464 24.3621 16.3501 24.364C16.1537 24.366 15.966 24.4448 15.8271 24.5837C15.6883 24.7225 15.6094 24.9103 15.6075 25.1066C15.6056 25.303 15.6807 25.4923 15.8168 25.6338L18.0937 27.9107C16.654 28.1547 15.1956 28.2709 13.7355 28.258H13.7355ZM27.4465 17.0513C27.7592 19.034 27.4484 21.0649 26.5569 22.8634L21.1821 17.4885C21.0415 17.3479 20.8507 17.2689 20.6518 17.2689C20.4529 17.2689 20.2622 17.3479 20.1216 17.4885C19.9809 17.6292 19.9019 17.8199 19.9019 18.0188C19.9019 18.2177 19.9809 18.4084 20.1216 18.5491L25.7097 24.1372C25.5372 24.3452 24.9755 24.9039 24.8833 24.9866L17.0068 17.1098C17.8854 16.0974 19.0233 15.3436 20.2982 14.9295L23.6811 18.3118C23.8227 18.4479 24.012 18.5231 24.2084 18.5211C24.4047 18.5192 24.5925 18.4403 24.7314 18.3015C24.8702 18.1626 24.9491 17.9748 24.951 17.7784C24.9529 17.582 24.8777 17.3928 24.7416 17.2512L22.0304 14.5405C23.621 14.2872 25.602 14.6667 27.2359 14.7572C27.2826 15.4906 27.3508 16.2535 27.4465 17.0513V17.0513ZM28.6807 13.3114C28.6314 11.6709 28.725 10.0293 28.9604 8.40504L33.5863 13.0309C31.9624 13.2665 30.321 13.3603 28.6807 13.3114V13.3114Z" fill="white"/>
</svg>
