<svg width="49" height="48" viewBox="0 0 49 48" fill="none" xmlns="http://www.w3.org/2000/svg">
<g clip-path="url(#clip0_297_5237)">
<path d="M46.5471 17.5643L27.0695 9.21661C25.3571 8.48277 23.3919 8.48334 21.6774 9.21805L2.20405 17.5639C1.0759 18.0473 0.375 19.11 0.375 20.3373C0.375 21.5639 1.07542 22.6261 2.2029 23.1093L4.50481 24.0959C4.50242 24.1196 4.50117 24.1438 4.50117 24.1681V35.0612C3.6114 35.3617 2.96874 36.2038 2.96874 37.1938C2.96874 37.7676 3.185 38.2918 3.53986 38.6899C3.14736 39.0746 2.88675 39.5962 2.83293 40.1873L2.28144 46.254C2.2438 46.6684 2.38316 47.0822 2.66369 47.3894C2.94422 47.6967 3.3438 47.8729 3.75986 47.8729H6.67904C7.0951 47.8729 7.49468 47.6967 7.77521 47.3894C8.05584 47.0822 8.1951 46.6683 8.15746 46.254L7.60597 40.1873C7.55224 39.5963 7.29154 39.0747 6.89904 38.6899C7.2539 38.2919 7.47016 37.7677 7.47016 37.1938C7.47016 36.2039 6.8275 35.3618 5.93773 35.0612V24.71L9.86823 26.3945C9.86583 26.4183 9.86459 26.4423 9.86459 26.4666V31.9511C9.86459 34.2401 11.4319 36.3576 14.2779 37.9138C16.9867 39.3949 20.5726 40.2106 24.3748 40.2106C28.1771 40.2106 31.763 39.3949 34.4717 37.9138C37.3176 36.3576 38.885 34.2401 38.885 31.9511V26.4666C38.885 26.4423 38.8838 26.4183 38.8814 26.3946L46.5459 23.1098C47.674 22.6264 48.3749 21.5635 48.3749 20.3363C48.375 19.1097 47.6746 18.0475 46.5471 17.5643ZM6.71439 46.4206C6.70021 46.4362 6.68479 46.4362 6.67904 46.4362H3.75986C3.75401 46.4362 3.73869 46.4362 3.72451 46.4206C3.71024 46.405 3.71168 46.3898 3.71216 46.384L4.26364 40.3173C4.30895 39.8198 4.71983 39.4445 5.2195 39.4445C5.71907 39.4445 6.12995 39.8198 6.17526 40.3173L6.72674 46.3839C6.72732 46.3898 6.72866 46.405 6.71439 46.4206ZM5.2195 38.0079C4.77059 38.0079 4.40539 37.6427 4.40539 37.1938C4.40539 36.7448 4.77059 36.3796 5.2195 36.3796C5.66841 36.3796 6.0336 36.7448 6.0336 37.1938C6.0336 37.6427 5.66841 38.0079 5.2195 38.0079ZM37.4485 28.8863C37.4485 30.7438 35.9197 32.5574 33.2541 33.862C32.8977 34.0364 32.7503 34.4666 32.9247 34.8229C33.0493 35.0777 33.3048 35.2256 33.5705 35.2256C33.6765 35.2256 33.784 35.2021 33.8858 35.1523C35.3643 34.4287 36.5488 33.5471 37.3934 32.567C37.1241 34.0818 35.8662 35.5141 33.7827 36.6534C31.2816 38.021 27.9406 38.7741 24.375 38.7741C20.8094 38.7741 17.4684 38.021 14.9673 36.6534C12.8913 35.5182 11.6347 34.0921 11.3593 32.5833C12.0854 33.4203 13.0651 34.1858 14.278 34.849C16.9868 36.3301 20.5727 37.1459 24.3749 37.1459C25.4386 37.1459 26.4995 37.0811 27.5282 36.9535C27.9219 36.9047 28.2015 36.546 28.1526 36.1523C28.1038 35.7585 27.7456 35.4789 27.3514 35.5278C26.3811 35.6482 25.3797 35.7092 24.3749 35.7092C20.8093 35.7092 17.4683 34.9561 14.9672 33.5885C12.6032 32.2959 11.3013 30.626 11.3013 28.8863V27.0087L21.6805 31.4571C22.5362 31.8238 23.4549 32.0071 24.374 32.0071C25.2943 32.0071 26.2149 31.8233 27.0726 31.4558L37.4485 27.0089V28.8863ZM45.98 21.7894L26.5065 30.1351C25.1518 30.7157 23.5991 30.7162 22.2465 30.1365L7.36366 23.7581L21.0003 21.3864C21.6137 22.1123 22.8636 22.5877 24.3749 22.5877C26.5317 22.5877 28.1581 21.62 28.1581 20.3369C28.1581 19.0538 26.5317 18.0861 24.3749 18.0861C22.4161 18.0861 20.8949 18.8843 20.6322 19.9921L5.09643 22.694C5.05084 22.7019 5.00726 22.7143 4.9655 22.7301L2.76895 21.7886C2.16948 21.5319 1.81166 20.9892 1.81166 20.3373C1.81166 19.6847 2.16996 19.1414 2.77 18.8843L22.2434 10.5384C22.9214 10.2479 23.6488 10.1026 24.3761 10.1026C25.102 10.1026 25.8278 10.2475 26.5035 10.537L45.9812 18.8847C46.5805 19.1416 46.9383 19.6843 46.9383 20.3362C46.9383 20.989 46.58 21.5322 45.98 21.7894ZM22.0284 20.337C22.0284 20.1277 22.8352 19.5229 24.3749 19.5229C25.9146 19.5229 26.7214 20.1277 26.7214 20.337C26.7214 20.5463 25.9146 21.1511 24.3749 21.1511C22.8352 21.1511 22.0284 20.5462 22.0284 20.337Z" fill="#28293D"/>
<path d="M29.7379 36.5545C29.7914 36.5545 29.8458 36.5485 29.9002 36.536C30.4423 36.4107 30.9764 36.2653 31.4875 36.1035C31.8657 35.9839 32.0754 35.5803 31.9558 35.2021C31.8361 34.8239 31.4326 34.614 31.0542 34.7337C30.5792 34.884 30.0821 35.0193 29.5769 35.1361C29.1903 35.2254 28.9493 35.611 29.0386 35.9976C29.1154 36.3299 29.411 36.5545 29.7379 36.5545Z" fill="#28293D"/>
</g>
<defs>
<clipPath id="clip0_297_5237">
<rect width="48" height="48" fill="white" transform="translate(0.375)"/>
</clipPath>
</defs>
</svg>
