<svg width="49" height="48" viewBox="0 0 49 48" fill="none" xmlns="http://www.w3.org/2000/svg">
<g clip-path="url(#clip0_297_5151)">
<path d="M47.3978 23.2724H43.7614V12.3633C43.7579 12.2473 43.7265 12.1338 43.6697 12.0325C43.613 11.9312 43.5327 11.8451 43.4356 11.7815L34.7083 5.96329C34.5993 5.8896 34.4722 5.84735 34.3408 5.84119C34.2095 5.83503 34.0789 5.8652 33.9636 5.92838C33.8473 5.98991 33.7501 6.08206 33.6824 6.19486C33.6147 6.30767 33.5791 6.43683 33.5796 6.56838V17.4542H32.125V0.726923C32.1245 0.606442 32.094 0.487984 32.0364 0.382191C31.9787 0.276399 31.8957 0.186586 31.7947 0.120824C31.6938 0.0550613 31.5781 0.0154086 31.458 0.00542903C31.3379 -0.00455053 31.2173 0.0154554 31.1068 0.0636494L18.0159 5.88183C17.8867 5.93821 17.7767 6.03092 17.6992 6.14867C17.6218 6.26643 17.5802 6.40416 17.5796 6.54511V8.72692H15.3977C15.2049 8.72692 15.0199 8.80355 14.8835 8.93994C14.7471 9.07633 14.6705 9.26131 14.6705 9.4542V29.0906H13.2159V17.1866C13.217 17.043 13.1748 16.9024 13.0949 16.783C13.0151 16.6637 12.9011 16.5712 12.7679 16.5175L1.13155 11.6942C1.01996 11.65 0.898981 11.6348 0.779934 11.6501C0.660886 11.6654 0.547652 11.7106 0.450819 11.7815C0.353706 11.8451 0.273377 11.9312 0.216655 12.0325C0.159932 12.1338 0.128491 12.2473 0.125 12.3633V47.2724C0.125 47.4653 0.201623 47.6503 0.338013 47.7867C0.474404 47.923 0.659388 47.9997 0.852273 47.9997H47.3978C47.5906 47.9997 47.7756 47.923 47.912 47.7867C48.0484 47.6503 48.125 47.4653 48.125 47.2724V23.9997C48.125 23.8068 48.0484 23.6218 47.912 23.4854C47.7756 23.349 47.5906 23.2724 47.3978 23.2724ZM35.0341 7.90656L42.3068 12.7531V23.2724H37.9432V18.1815C37.9432 17.9886 37.8666 17.8036 37.7302 17.6672C37.5938 17.5308 37.4088 17.4542 37.2159 17.4542H35.0341V7.90656ZM19.0341 7.01638L30.6705 1.84401V8.72692H19.0341V7.01638ZM5.94318 29.8178V46.5451H1.57955V13.4513L11.7614 17.6695V29.0906H6.67046C6.47757 29.0906 6.29259 29.1672 6.1562 29.3036C6.01981 29.44 5.94318 29.625 5.94318 29.8178ZM7.39773 30.5451H17.5796V46.5451H15.2872V41.5066C15.2872 41.3137 15.2106 41.1287 15.0742 40.9923C14.9378 40.8559 14.7528 40.7793 14.5599 40.7793H10.4174C10.2245 40.7793 10.0395 40.8559 9.90311 40.9923C9.76672 41.1287 9.6901 41.3137 9.6901 41.5066V46.5451H7.39773V30.5451ZM11.1446 46.4928V42.2338H13.8326V46.4928H11.1446ZM23.3977 18.1815V46.5451H19.0341V29.8178C19.0341 29.625 18.9575 29.44 18.8211 29.3036C18.6847 29.1672 18.4997 29.0906 18.3068 29.0906H16.125V10.1815H30.6705V17.4542H24.125C23.9321 17.4542 23.7471 17.5308 23.6108 17.6672C23.4744 17.8036 23.3977 17.9886 23.3977 18.1815ZM24.8523 18.9087H36.4887V46.5451H33.469V41.5066C33.469 41.3137 33.3924 41.1287 33.256 40.9923C33.1196 40.8559 32.9346 40.7793 32.7417 40.7793H28.5992C28.4063 40.7793 28.2213 40.8559 28.0849 40.9923C27.9485 41.1287 27.8719 41.3137 27.8719 41.5066V46.5451H24.8523V18.9087ZM29.3265 46.4928V42.2338H32.0145V46.4928H29.3265ZM46.6705 46.5451H37.9432V24.7269H46.6705V46.5451Z" fill="#28293D"/>
<path d="M26.3591 23.2723H29.2682C29.4611 23.2723 29.6461 23.1957 29.7825 23.0593C29.9189 22.9229 29.9955 22.7379 29.9955 22.545C29.9955 22.3521 29.9189 22.1672 29.7825 22.0308C29.6461 21.8944 29.4611 21.8177 29.2682 21.8177H26.3591C26.1662 21.8177 25.9812 21.8944 25.8448 22.0308C25.7085 22.1672 25.6318 22.3521 25.6318 22.545C25.6318 22.7379 25.7085 22.9229 25.8448 23.0593C25.9812 23.1957 26.1662 23.2723 26.3591 23.2723Z" fill="#28293D"/>
<path d="M32.0725 23.2723H34.9816C35.1745 23.2723 35.3594 23.1957 35.4958 23.0593C35.6322 22.9229 35.7089 22.7379 35.7089 22.545C35.7089 22.3521 35.6322 22.1672 35.4958 22.0308C35.3594 21.8944 35.1745 21.8177 34.9816 21.8177H32.0725C31.8796 21.8177 31.6946 21.8944 31.5582 22.0308C31.4218 22.1672 31.3452 22.3521 31.3452 22.545C31.3452 22.7379 31.4218 22.9229 31.5582 23.0593C31.6946 23.1957 31.8796 23.2723 32.0725 23.2723Z" fill="#28293D"/>
<path d="M26.3591 27.2463H29.2682C29.4611 27.2463 29.6461 27.1697 29.7825 27.0333C29.9189 26.8969 29.9955 26.7119 29.9955 26.519C29.9955 26.3261 29.9189 26.1412 29.7825 26.0048C29.6461 25.8684 29.4611 25.7917 29.2682 25.7917H26.3591C26.1662 25.7917 25.9812 25.8684 25.8448 26.0048C25.7085 26.1412 25.6318 26.3261 25.6318 26.519C25.6318 26.7119 25.7085 26.8969 25.8448 27.0333C25.9812 27.1697 26.1662 27.2463 26.3591 27.2463Z" fill="#28293D"/>
<path d="M32.0725 27.2463H34.9816C35.1745 27.2463 35.3594 27.1697 35.4958 27.0333C35.6322 26.8969 35.7089 26.7119 35.7089 26.519C35.7089 26.3261 35.6322 26.1412 35.4958 26.0048C35.3594 25.8684 35.1745 25.7917 34.9816 25.7917H32.0725C31.8796 25.7917 31.6946 25.8684 31.5582 26.0048C31.4218 26.1412 31.3452 26.3261 31.3452 26.519C31.3452 26.7119 31.4218 26.8969 31.5582 27.0333C31.6946 27.1697 31.8796 27.2463 32.0725 27.2463Z" fill="#28293D"/>
<path d="M26.3591 31.2259H29.2682C29.4611 31.2259 29.6461 31.1493 29.7825 31.0129C29.9189 30.8765 29.9955 30.6915 29.9955 30.4986C29.9955 30.3058 29.9189 30.1208 29.7825 29.9844C29.6461 29.848 29.4611 29.7714 29.2682 29.7714H26.3591C26.1662 29.7714 25.9812 29.848 25.8448 29.9844C25.7085 30.1208 25.6318 30.3058 25.6318 30.4986C25.6318 30.6915 25.7085 30.8765 25.8448 31.0129C25.9812 31.1493 26.1662 31.2259 26.3591 31.2259Z" fill="#28293D"/>
<path d="M32.0725 31.2259H34.9816C35.1745 31.2259 35.3594 31.1493 35.4958 31.0129C35.6322 30.8765 35.7089 30.6915 35.7089 30.4986C35.7089 30.3058 35.6322 30.1208 35.4958 29.9844C35.3594 29.848 35.1745 29.7714 34.9816 29.7714H32.0725C31.8796 29.7714 31.6946 29.848 31.5582 29.9844C31.4218 30.1208 31.3452 30.3058 31.3452 30.4986C31.3452 30.6915 31.4218 30.8765 31.5582 31.0129C31.6946 31.1493 31.8796 31.2259 32.0725 31.2259Z" fill="#28293D"/>
<path d="M29.2682 35.2055C29.4611 35.2055 29.6461 35.1289 29.7825 34.9925C29.9189 34.8561 29.9955 34.6711 29.9955 34.4782C29.9955 34.2854 29.9189 34.1004 29.7825 33.964C29.6461 33.8276 29.4611 33.751 29.2682 33.751H26.3591C26.1662 33.751 25.9812 33.8276 25.8448 33.964C25.7085 34.1004 25.6318 34.2854 25.6318 34.4782C25.6318 34.6711 25.7085 34.8561 25.8448 34.9925C25.9812 35.1289 26.1662 35.2055 26.3591 35.2055H29.2682Z" fill="#28293D"/>
<path d="M32.0725 35.2055H34.9816C35.1745 35.2055 35.3594 35.1289 35.4958 34.9925C35.6322 34.8561 35.7089 34.6711 35.7089 34.4782C35.7089 34.2854 35.6322 34.1004 35.4958 33.964C35.3594 33.8276 35.1745 33.751 34.9816 33.751H32.0725C31.8796 33.751 31.6946 33.8276 31.5582 33.964C31.4218 34.1004 31.3452 34.2854 31.3452 34.4782C31.3452 34.6711 31.4218 34.8561 31.5582 34.9925C31.6946 35.1289 31.8796 35.2055 32.0725 35.2055Z" fill="#28293D"/>
<path d="M9.57932 33.4542H15.3975C15.5904 33.4542 15.7754 33.3776 15.9118 33.2412C16.0482 33.1048 16.1248 32.9198 16.1248 32.7269C16.1248 32.534 16.0482 32.349 15.9118 32.2126C15.7754 32.0763 15.5904 31.9996 15.3975 31.9996H9.57932C9.38644 31.9996 9.20145 32.0763 9.06506 32.2126C8.92867 32.349 8.85205 32.534 8.85205 32.7269C8.85205 32.9198 8.92867 33.1048 9.06506 33.2412C9.20145 33.3776 9.38644 33.4542 9.57932 33.4542Z" fill="#28293D"/>
<path d="M9.57932 36.3634H15.3975C15.5904 36.3634 15.7754 36.2867 15.9118 36.1503C16.0482 36.014 16.1248 35.829 16.1248 35.6361C16.1248 35.4432 16.0482 35.2582 15.9118 35.1218C15.7754 34.9854 15.5904 34.9088 15.3975 34.9088H9.57932C9.38644 34.9088 9.20145 34.9854 9.06506 35.1218C8.92867 35.2582 8.85205 35.4432 8.85205 35.6361C8.85205 35.829 8.92867 36.014 9.06506 36.1503C9.20145 36.2867 9.38644 36.3634 9.57932 36.3634Z" fill="#28293D"/>
<path d="M15.3975 39.2724C15.5904 39.2724 15.7754 39.1958 15.9118 39.0594C16.0482 38.923 16.1248 38.738 16.1248 38.5451C16.1248 38.3523 16.0482 38.1673 15.9118 38.0309C15.7754 37.8945 15.5904 37.8179 15.3975 37.8179H9.57932C9.38644 37.8179 9.20145 37.8945 9.06506 38.0309C8.92867 38.1673 8.85205 38.3523 8.85205 38.5451C8.85205 38.738 8.92867 38.923 9.06506 39.0594C9.20145 39.1958 9.38644 39.2724 9.57932 39.2724H15.3975Z" fill="#28293D"/>
<path d="M3.76145 18.9088H7.74109C7.93398 18.9088 8.11896 18.8321 8.25535 18.6958C8.39174 18.5594 8.46836 18.3744 8.46836 18.1815C8.46836 17.9886 8.39174 17.8036 8.25535 17.6672C8.11896 17.5308 7.93398 17.4542 7.74109 17.4542H3.76145C3.56857 17.4542 3.38358 17.5308 3.24719 17.6672C3.1108 17.8036 3.03418 17.9886 3.03418 18.1815C3.03418 18.3744 3.1108 18.5594 3.24719 18.6958C3.38358 18.8321 3.56857 18.9088 3.76145 18.9088Z" fill="#28293D"/>
<path d="M3.76145 21.6723H7.74109C7.93398 21.6723 8.11896 21.5957 8.25535 21.4593C8.39174 21.3229 8.46836 21.1379 8.46836 20.945C8.46836 20.7522 8.39174 20.5672 8.25535 20.4308C8.11896 20.2944 7.93398 20.2178 7.74109 20.2178H3.76145C3.56857 20.2178 3.38358 20.2944 3.24719 20.4308C3.1108 20.5672 3.03418 20.7522 3.03418 20.945C3.03418 21.1379 3.1108 21.3229 3.24719 21.4593C3.38358 21.5957 3.56857 21.6723 3.76145 21.6723Z" fill="#28293D"/>
<path d="M3.76145 24.471H7.74109C7.93398 24.471 8.11896 24.3944 8.25535 24.258C8.39174 24.1216 8.46836 23.9366 8.46836 23.7438C8.46836 23.5509 8.39174 23.3659 8.25535 23.2295C8.11896 23.0931 7.93398 23.0165 7.74109 23.0165H3.76145C3.56857 23.0165 3.38358 23.0931 3.24719 23.2295C3.1108 23.3659 3.03418 23.5509 3.03418 23.7438C3.03418 23.9366 3.1108 24.1216 3.24719 24.258C3.38358 24.3944 3.56857 24.471 3.76145 24.471Z" fill="#28293D"/>
<path d="M8.46836 26.519C8.46836 26.3261 8.39174 26.1412 8.25535 26.0048C8.11896 25.8684 7.93398 25.7917 7.74109 25.7917H3.76145C3.56857 25.7917 3.38358 25.8684 3.24719 26.0048C3.1108 26.1412 3.03418 26.3261 3.03418 26.519C3.03418 26.7119 3.1108 26.8969 3.24719 27.0333C3.38358 27.1697 3.56857 27.2463 3.76145 27.2463H7.74109C7.83681 27.2471 7.93173 27.2288 8.02032 27.1925C8.10891 27.1562 8.18939 27.1027 8.25708 27.035C8.32477 26.9673 8.37831 26.8868 8.41458 26.7982C8.45086 26.7097 8.46914 26.6147 8.46836 26.519Z" fill="#28293D"/>
<path d="M40.8521 27.1008C40.8521 27.2937 40.9287 27.4787 41.0651 27.6151C41.2015 27.7515 41.3864 27.8281 41.5793 27.8281H44.4884C44.6813 27.8281 44.8663 27.7515 45.0027 27.6151C45.1391 27.4787 45.2157 27.2937 45.2157 27.1008C45.2157 26.9079 45.1391 26.7229 45.0027 26.5865C44.8663 26.4502 44.6813 26.3735 44.4884 26.3735H41.5793C41.3864 26.3735 41.2015 26.4502 41.0651 26.5865C40.9287 26.7229 40.8521 26.9079 40.8521 27.1008Z" fill="#28293D"/>
<path d="M44.4884 30.1902H41.5793C41.3864 30.1902 41.2015 30.2668 41.0651 30.4032C40.9287 30.5396 40.8521 30.7246 40.8521 30.9175C40.8521 31.1103 40.9287 31.2953 41.0651 31.4317C41.2015 31.5681 41.3864 31.6447 41.5793 31.6447H44.4884C44.6813 31.6447 44.8663 31.5681 45.0027 31.4317C45.1391 31.2953 45.2157 31.1103 45.2157 30.9175C45.2157 30.7246 45.1391 30.5396 45.0027 30.4032C44.8663 30.2668 44.6813 30.1902 44.4884 30.1902Z" fill="#28293D"/>
<path d="M44.4884 34.0011H41.5793C41.3864 34.0011 41.2015 34.0777 41.0651 34.2141C40.9287 34.3505 40.8521 34.5355 40.8521 34.7284C40.8521 34.9213 40.9287 35.1062 41.0651 35.2426C41.2015 35.379 41.3864 35.4556 41.5793 35.4556H44.4884C44.6813 35.4556 44.8663 35.379 45.0027 35.2426C45.1391 35.1062 45.2157 34.9213 45.2157 34.7284C45.2157 34.5355 45.1391 34.3505 45.0027 34.2141C44.8663 34.0777 44.6813 34.0011 44.4884 34.0011Z" fill="#28293D"/>
<path d="M44.4884 37.8179H41.5793C41.3864 37.8179 41.2015 37.8945 41.0651 38.0309C40.9287 38.1673 40.8521 38.3523 40.8521 38.5451C40.8521 38.738 40.9287 38.923 41.0651 39.0594C41.2015 39.1958 41.3864 39.2724 41.5793 39.2724H44.4884C44.6813 39.2724 44.8663 39.1958 45.0027 39.0594C45.1391 38.923 45.2157 38.738 45.2157 38.5451C45.2157 38.3523 45.1391 38.1673 45.0027 38.0309C44.8663 37.8945 44.6813 37.8179 44.4884 37.8179Z" fill="#28293D"/>
</g>
<defs>
<clipPath id="clip0_297_5151">
<rect width="48" height="48" fill="white" transform="translate(0.125)"/>
</clipPath>
</defs>
</svg>
