<svg width="46" height="48" viewBox="0 0 46 48" fill="none" xmlns="http://www.w3.org/2000/svg">
<path d="M44.5227 30.186C42.4503 26.5967 37.8682 25.3683 34.2782 27.4411L30.4703 29.6395V21.4987C30.4703 20.4923 30.1375 19.4935 29.5329 18.6863L24.8456 12.4369V9.77569C25.9367 9.38869 26.7206 8.34675 26.7206 7.12453V2.81231C26.7204 1.26159 25.4588 0 23.9081 0H7.0339C5.48318 0 4.22149 1.26159 4.22149 2.81231V7.12463C4.22149 8.34666 5.00534 9.38878 6.0964 9.77578V12.437L1.4088 18.6868C0.804492 19.4936 0.47168 20.4923 0.47168 21.4987V39.6543C0.47168 42.2389 2.5744 44.3415 5.1589 44.3415H20.2247C22.3267 47.8649 26.8591 49.0441 30.412 46.9927L41.7778 40.4304C45.3361 38.3756 46.6054 33.7949 44.5227 30.186ZM6.0964 2.81231C6.0964 2.29537 6.51696 1.87481 7.0338 1.87481H23.908C24.4249 1.87481 24.8455 2.29537 24.8455 2.81231V7.12463C24.8455 7.64156 24.4249 8.06203 23.908 8.06203H7.0339C6.51696 8.06203 6.09649 7.64147 6.09649 7.12463V2.81231H6.0964ZM2.90918 19.8112L7.7838 13.3118C7.90549 13.1497 7.9713 12.9522 7.9713 12.7493V9.93703H22.9706V11.8119H14.5335C14.0158 11.8119 13.596 12.2318 13.596 12.7494C13.596 13.2671 14.0158 13.6869 14.5335 13.6869H23.4393L28.0324 19.8109C28.3326 20.2117 28.5191 20.6912 28.5754 21.1866H2.36655C2.4228 20.6911 2.60927 20.2116 2.90918 19.8112ZM5.15899 42.4666C3.60827 42.4666 2.34668 41.205 2.34668 39.6543V38.7075H19.3787C19.0814 39.923 19.0834 41.2212 19.4238 42.4667H5.15899V42.4666ZM20.114 36.8419H2.34659V23.0613H28.5953V30.7219L22.9122 34.0033C21.7273 34.6878 20.7696 35.6621 20.114 36.8419ZM29.4747 45.3689C26.7843 46.9224 23.3465 46.0037 21.7919 43.3115C20.23 40.5933 21.1766 37.171 23.8499 35.6269L28.9384 32.6889L34.5631 42.431L29.4747 45.3689ZM40.8403 38.8068L36.1869 41.4936L30.5621 31.7513L35.2156 29.0648C37.9077 27.5107 41.3443 28.431 42.8989 31.1233C44.4603 33.8291 43.5108 37.2647 40.8403 38.8068Z" fill="black"/>
</svg>
