<svg width="48" height="38" viewBox="0 0 48 38" fill="none" xmlns="http://www.w3.org/2000/svg">
<path d="M44.25 0.25H3.75C2.95462 0.250893 2.19208 0.567251 1.62967 1.12967C1.06725 1.69208 0.750893 2.45462 0.75 3.25V28.75C0.750893 29.5454 1.06725 30.3079 1.62967 30.8703C2.19208 31.4327 2.95462 31.7491 3.75 31.75H18.3919L17.4919 34H15C14.8011 34 14.6103 34.079 14.4697 34.2197C14.329 34.3603 14.25 34.5511 14.25 34.75V36.25H8.25C8.05109 36.25 7.86032 36.329 7.71967 36.4697C7.57902 36.6103 7.5 36.8011 7.5 37C7.5 37.1989 7.57902 37.3897 7.71967 37.5303C7.86032 37.671 8.05109 37.75 8.25 37.75H39.75C39.9489 37.75 40.1397 37.671 40.2803 37.5303C40.421 37.3897 40.5 37.1989 40.5 37C40.5 36.8011 40.421 36.6103 40.2803 36.4697C40.1397 36.329 39.9489 36.25 39.75 36.25H33.75V34.75C33.75 34.5511 33.671 34.3603 33.5303 34.2197C33.3897 34.079 33.1989 34 33 34H30.5081L29.6081 31.75H44.25C45.0454 31.7491 45.8079 31.4327 46.3703 30.8703C46.9327 30.3079 47.2491 29.5454 47.25 28.75V3.25C47.2491 2.45462 46.9327 1.69208 46.3703 1.12967C45.8079 0.567251 45.0454 0.250893 44.25 0.25ZM32.25 35.5V36.25H15.75V35.5H32.25ZM19.1081 34L20.0081 31.75H27.9919L28.8919 34H19.1081ZM45.75 28.75C45.7495 29.1477 45.5913 29.5289 45.3101 29.8101C45.0289 30.0913 44.6477 30.2495 44.25 30.25H3.75C3.35234 30.2495 2.97111 30.0913 2.68992 29.8101C2.40872 29.5289 2.25052 29.1477 2.25 28.75V28H45.75V28.75ZM45.75 26.5H2.25V3.25C2.25052 2.85234 2.40872 2.47111 2.68992 2.18992C2.97111 1.90872 3.35234 1.75052 3.75 1.75H44.25C44.6477 1.75052 45.0289 1.90872 45.3101 2.18992C45.5913 2.47111 45.7495 2.85234 45.75 3.25V26.5Z" fill="black"/>
<path d="M12.3641 21.8931L16.1141 24.1431C16.2307 24.2131 16.3641 24.25 16.5 24.25C16.6359 24.25 16.7693 24.2131 16.8859 24.1431L20.6359 21.8931C20.7469 21.8265 20.8388 21.7322 20.9027 21.6195C20.9665 21.5068 21 21.3795 21 21.25V16.75C21 16.6205 20.9665 16.4932 20.9027 16.3805C20.8388 16.2678 20.7469 16.1735 20.6359 16.1069L16.8859 13.8569C16.7693 13.7869 16.6359 13.75 16.5 13.75C16.3641 13.75 16.2307 13.7869 16.1141 13.8569L12.3641 16.1069C12.2531 16.1735 12.1612 16.2678 12.0973 16.3805C12.0335 16.4932 12 16.6205 12 16.75V21.25C12 21.3795 12.0335 21.5068 12.0973 21.6195C12.1612 21.7322 12.2531 21.8265 12.3641 21.8931ZM13.5 17.1746L16.5 15.3746L19.5 17.1746V20.8254L16.5 22.6254L13.5 20.8254V17.1746Z" fill="black"/>
<path d="M35.25 24.25H31.0603L29.3344 22.5241L30.3862 21.8931C30.4972 21.8264 30.5891 21.7322 30.6528 21.6195C30.7166 21.5068 30.75 21.3795 30.75 21.25V16.75C30.75 16.6205 30.7166 16.4932 30.6528 16.3805C30.5891 16.2678 30.4972 16.1736 30.3862 16.1069L26.6362 13.8569C26.5195 13.7869 26.3861 13.75 26.25 13.75C26.1139 13.75 25.9805 13.7869 25.8638 13.8569L22.1138 16.1069C22.0028 16.1736 21.9109 16.2678 21.8472 16.3805C21.7834 16.4932 21.75 16.6205 21.75 16.75V21.25C21.75 21.3795 21.7834 21.5068 21.8472 21.6195C21.9109 21.7322 22.0028 21.8264 22.1138 21.8931L25.8638 24.1431C25.9805 24.2131 26.1139 24.25 26.25 24.25C26.3861 24.25 26.5195 24.2131 26.6362 24.1431L28.0088 23.3191L30.2194 25.5306C30.3602 25.6712 30.551 25.7501 30.75 25.75H35.25C35.4489 25.75 35.6397 25.671 35.7803 25.5303C35.921 25.3897 36 25.1989 36 25C36 24.8011 35.921 24.6103 35.7803 24.4697C35.6397 24.329 35.4489 24.25 35.25 24.25ZM29.25 20.8253L28.2412 21.4309L26.7806 19.9694C26.6399 19.8286 26.449 19.7496 26.25 19.7496C26.051 19.7496 25.8601 19.8286 25.7194 19.9694C25.5786 20.1101 25.4996 20.301 25.4996 20.5C25.4996 20.699 25.5786 20.8899 25.7194 21.0306L26.9156 22.2259L26.25 22.6253L23.25 20.8253V17.1747L26.25 15.3747L29.25 17.1747V20.8253Z" fill="black"/>
<path d="M26.6141 12.8931L30.3641 15.1431C30.4807 15.2131 30.6141 15.25 30.75 15.25C30.8859 15.25 31.0193 15.2131 31.1359 15.1431L34.8859 12.8931C34.9969 12.8265 35.0888 12.7322 35.1527 12.6195C35.2165 12.5068 35.25 12.3795 35.25 12.25V7.75001C35.25 7.62049 35.2165 7.49318 35.1527 7.38048C35.0888 7.26778 34.9969 7.17352 34.8859 7.10688L31.1359 4.85688C31.0193 4.78694 30.8859 4.75 30.75 4.75C30.6141 4.75 30.4807 4.78694 30.3641 4.85688L26.6141 7.10688C26.5031 7.17352 26.4112 7.26778 26.3473 7.38048C26.2835 7.49318 26.25 7.62049 26.25 7.75001V12.25C26.25 12.3795 26.2835 12.5068 26.3473 12.6195C26.4112 12.7322 26.5031 12.8265 26.6141 12.8931ZM27.75 8.1746L30.75 6.3746L33.75 8.1746V11.8254L30.75 13.6254L27.75 11.8254V8.1746Z" fill="black"/>
<path d="M12.75 4H16.114L17.8925 6.48981L16.8641 7.10687C16.7531 7.17351 16.6612 7.26777 16.5973 7.38047C16.5335 7.49318 16.5 7.62049 16.5 7.75V12.25C16.5 12.3795 16.5335 12.5068 16.5973 12.6195C16.6612 12.7322 16.7531 12.8265 16.8641 12.8931L20.6141 15.1431C20.7307 15.2131 20.8641 15.25 21 15.25C21.1359 15.25 21.2693 15.2131 21.3859 15.1431L25.1359 12.8931C25.2469 12.8265 25.3388 12.7322 25.4027 12.6195C25.4665 12.5068 25.5 12.3795 25.5 12.25V7.75C25.5 7.62049 25.4665 7.49318 25.4027 7.38047C25.3388 7.26777 25.2469 7.17351 25.1359 7.10687L21.3859 4.85687C21.2693 4.78694 21.1359 4.74999 21 4.74999C20.8641 4.74999 20.7307 4.78694 20.6141 4.85687L19.1828 5.71563L17.1103 2.81406C17.0409 2.71692 16.9493 2.63774 16.8432 2.58312C16.737 2.52849 16.6194 2.5 16.5 2.5H12.75C12.5511 2.5 12.3603 2.57902 12.2197 2.71967C12.079 2.86032 12 3.05109 12 3.25C12 3.44891 12.079 3.63968 12.2197 3.78033C12.3603 3.92098 12.5511 4 12.75 4ZM21 6.37469L24 8.17469V11.8255L21 13.6255L18 11.8255V8.17459L18.7672 7.71437L19.6397 8.93594C19.7553 9.0978 19.9305 9.20711 20.1267 9.23981C20.3229 9.27251 20.5241 9.22593 20.6859 9.11031C20.8478 8.99469 20.9571 8.81951 20.9898 8.6233C21.0225 8.42709 20.9759 8.22593 20.8603 8.06406L20.0575 6.94019L21 6.37469Z" fill="black"/>
<path d="M5.25 4H10.5C10.6989 4 10.8897 3.92098 11.0303 3.78033C11.171 3.63968 11.25 3.44891 11.25 3.25C11.25 3.05109 11.171 2.86032 11.0303 2.71967C10.8897 2.57902 10.6989 2.5 10.5 2.5H5.25C5.05109 2.5 4.86032 2.57902 4.71967 2.71967C4.57902 2.86032 4.5 3.05109 4.5 3.25C4.5 3.44891 4.57902 3.63968 4.71967 3.78033C4.86032 3.92098 5.05109 4 5.25 4Z" fill="black"/>
<path d="M5.25 6.25H10.5C10.6989 6.25 10.8897 6.17098 11.0303 6.03033C11.171 5.88968 11.25 5.69891 11.25 5.5C11.25 5.30109 11.171 5.11032 11.0303 4.96967C10.8897 4.82902 10.6989 4.75 10.5 4.75H5.25C5.05109 4.75 4.86032 4.82902 4.71967 4.96967C4.57902 5.11032 4.5 5.30109 4.5 5.5C4.5 5.69891 4.57902 5.88968 4.71967 6.03033C4.86032 6.17098 5.05109 6.25 5.25 6.25Z" fill="black"/>
<path d="M5.25 8.5H10.5C10.6989 8.5 10.8897 8.42098 11.0303 8.28033C11.171 8.13968 11.25 7.94891 11.25 7.75C11.25 7.55109 11.171 7.36032 11.0303 7.21967C10.8897 7.07902 10.6989 7 10.5 7H5.25C5.05109 7 4.86032 7.07902 4.71967 7.21967C4.57902 7.36032 4.5 7.55109 4.5 7.75C4.5 7.94891 4.57902 8.13968 4.71967 8.28033C4.86032 8.42098 5.05109 8.5 5.25 8.5Z" fill="black"/>
<path d="M37.5 21.25H42.75C42.9489 21.25 43.1397 21.171 43.2803 21.0303C43.421 20.8897 43.5 20.6989 43.5 20.5C43.5 20.3011 43.421 20.1103 43.2803 19.9697C43.1397 19.829 42.9489 19.75 42.75 19.75H37.5C37.3011 19.75 37.1103 19.829 36.9697 19.9697C36.829 20.1103 36.75 20.3011 36.75 20.5C36.75 20.6989 36.829 20.8897 36.9697 21.0303C37.1103 21.171 37.3011 21.25 37.5 21.25Z" fill="black"/>
<path d="M37.5 23.5H42.75C42.9489 23.5 43.1397 23.421 43.2803 23.2803C43.421 23.1397 43.5 22.9489 43.5 22.75C43.5 22.5511 43.421 22.3603 43.2803 22.2197C43.1397 22.079 42.9489 22 42.75 22H37.5C37.3011 22 37.1103 22.079 36.9697 22.2197C36.829 22.3603 36.75 22.5511 36.75 22.75C36.75 22.9489 36.829 23.1397 36.9697 23.2803C37.1103 23.421 37.3011 23.5 37.5 23.5Z" fill="black"/>
<path d="M37.5 25.75H39.75C39.9489 25.75 40.1397 25.671 40.2803 25.5303C40.421 25.3897 40.5 25.1989 40.5 25C40.5 24.8011 40.421 24.6103 40.2803 24.4697C40.1397 24.329 39.9489 24.25 39.75 24.25H37.5C37.3011 24.25 37.1103 24.329 36.9697 24.4697C36.829 24.6103 36.75 24.8011 36.75 25C36.75 25.1989 36.829 25.3897 36.9697 25.5303C37.1103 25.671 37.3011 25.75 37.5 25.75Z" fill="black"/>
<path d="M42.75 24.25H42C41.8011 24.25 41.6103 24.329 41.4697 24.4697C41.329 24.6103 41.25 24.8011 41.25 25C41.25 25.1989 41.329 25.3897 41.4697 25.5303C41.6103 25.671 41.8011 25.75 42 25.75H42.75C42.9489 25.75 43.1397 25.671 43.2803 25.5303C43.421 25.3897 43.5 25.1989 43.5 25C43.5 24.8011 43.421 24.6103 43.2803 24.4697C43.1397 24.329 42.9489 24.25 42.75 24.25Z" fill="black"/>
</svg>
