<svg width="48" height="39" viewBox="0 0 48 39" fill="none" xmlns="http://www.w3.org/2000/svg">
<path d="M47.3681 32.6906L45.5994 30.9094C45.2347 30.542 44.641 30.5399 44.2736 30.9047C43.9062 31.2696 43.9041 31.8631 44.2689 32.2305L44.4508 32.4137H30.2334C30.2657 32.3953 30.2981 32.3779 30.3304 32.3591C32.3019 31.2166 34.1345 29.5641 35.7775 27.4476C39.0069 23.2872 41.3557 17.4465 42.3912 11.0012C42.3913 11.0007 42.3914 11.0004 42.3915 10.9999C42.5927 9.74532 42.7467 8.45888 42.8493 7.17638C42.9436 6.0016 42.9965 4.79195 43.007 3.57966C43.0128 2.81298 43.0014 2.03495 42.9737 1.26723C42.9554 0.761351 42.5395 0.363664 42.0375 0.363664C42.0259 0.363664 42.0144 0.363851 42.0029 0.364226C41.4854 0.382976 41.0812 0.817695 41.1 1.3351C41.1268 2.07573 41.1376 2.8262 41.1321 3.56457C41.1222 4.73129 41.0712 5.89604 40.9805 7.02657C40.9033 7.99266 40.7946 8.96016 40.6587 9.91388H24.6937V8.03888H25.618C26.1357 8.03888 26.5555 7.61916 26.5555 7.10138C26.5555 6.5836 26.1357 6.16388 25.618 6.16388H24.6937V3.1937L24.8915 3.38785C25.2611 3.75057 25.8546 3.74485 26.2174 3.37529C26.5801 3.00573 26.5744 2.4122 26.2048 2.04957L24.3896 0.26832C24.0216 -0.092711 23.4311 -0.088961 23.0677 0.276851L21.2989 2.0581C20.9341 2.42551 20.9362 3.01904 21.3036 3.38391C21.4864 3.56551 21.7253 3.65616 21.9642 3.65616C22.2051 3.65616 22.4463 3.56382 22.6294 3.37923L22.8188 3.18854V9.91379H6.7407C6.59801 8.95604 6.4826 7.98638 6.39888 7.02038C6.35407 6.50448 5.89741 6.12235 5.38395 6.16735C4.86804 6.21207 4.4862 6.66648 4.53082 7.18238C4.64173 8.46141 4.8041 9.74757 5.01354 11.0053C5.01363 11.0057 5.01373 11.006 5.01373 11.0064C6.0927 17.4502 8.48004 23.2896 11.7358 27.449C13.3922 29.5651 15.2351 31.2172 17.2133 32.3594C17.2455 32.378 17.2778 32.3953 17.3101 32.4136H1.29785C0.780164 32.4136 0.360352 32.8333 0.360352 33.3511C0.360352 33.3537 0.37582 35.2338 0.37582 35.2338C0.380133 35.7489 0.799008 36.1635 1.31313 36.1635C1.31576 36.1635 1.31848 36.1635 1.3211 36.1635C1.83879 36.1593 2.25504 35.736 2.25082 35.2183L2.24313 34.2886H4.12123V35.2261C4.12123 35.7439 4.54104 36.1636 5.05873 36.1636C5.57641 36.1636 5.99623 35.7439 5.99623 35.2261V34.2886H7.84479V35.2261C7.84479 35.7439 8.2646 36.1636 8.78229 36.1636C9.29998 36.1636 9.71979 35.7439 9.71979 35.2261V34.2886H11.5684V35.2261C11.5684 35.7439 11.9883 36.1636 12.5059 36.1636C13.0236 36.1636 13.4434 35.7439 13.4434 35.2261V34.2886H15.3712V35.2261C15.3712 35.7439 15.791 36.1636 16.3087 36.1636C16.8264 36.1636 17.2462 35.7439 17.2462 35.2261V34.2886H19.0948V35.2261C19.0948 35.7439 19.5146 36.1636 20.0323 36.1636C20.55 36.1636 20.9698 35.7439 20.9698 35.2261V34.2886H22.8187V37.1011C22.8187 37.6189 23.2385 38.0386 23.7562 38.0386C24.2739 38.0386 24.6937 37.6189 24.6937 37.1011V34.2886H26.5421V35.2261C26.5421 35.7439 26.9619 36.1636 27.4796 36.1636C27.9973 36.1636 28.4171 35.7439 28.4171 35.2261V34.2886H30.2657V35.2261C30.2657 35.7439 30.6855 36.1636 31.2032 36.1636C31.7208 36.1636 32.1407 35.7439 32.1407 35.2261V34.2886H33.9893V35.2261C33.9893 35.7439 34.4091 36.1636 34.9268 36.1636C35.4445 36.1636 35.8643 35.7439 35.8643 35.2261V34.2886H37.713V35.2261C37.713 35.7439 38.1328 36.1636 38.6505 36.1636C39.1682 36.1636 39.588 35.7439 39.588 35.2261V34.2886H41.463V35.2261C41.463 35.7439 41.8828 36.1636 42.4005 36.1636C42.9182 36.1636 43.338 35.7439 43.338 35.2261V34.2886H44.4916L44.2606 34.5274C43.9005 34.8995 43.9103 35.493 44.2824 35.853C44.4644 36.0291 44.6994 36.1167 44.9342 36.1167C45.1792 36.1167 45.4242 36.0212 45.608 35.8311L47.3767 34.0029C47.7316 33.6362 47.7278 33.0528 47.3681 32.6906ZM22.8187 32.2578C19.3502 31.9594 16.0458 29.9131 13.2123 26.2933C10.3289 22.6097 8.16307 17.4924 7.05991 11.7889H22.8187V32.2578ZM24.7399 32.2582L24.6937 32.2822V30.5387H25.618C26.1357 30.5387 26.5555 30.119 26.5555 29.6012C26.5555 29.0834 26.1357 28.6637 25.618 28.6637H24.6937V26.7887H25.618C26.1357 26.7887 26.5555 26.369 26.5555 25.8512C26.5555 25.3334 26.1357 24.9137 25.618 24.9137H24.6937V23.0387H25.618C26.1357 23.0387 26.5555 22.619 26.5555 22.1012C26.5555 21.5834 26.1357 21.1637 25.618 21.1637H24.6937V19.2887H25.618C26.1357 19.2887 26.5555 18.869 26.5555 18.3512C26.5555 17.8334 26.1357 17.4137 25.618 17.4137H24.6937V15.5387H25.618C26.1357 15.5387 26.5555 15.119 26.5555 14.6012C26.5555 14.0834 26.1357 13.6637 25.618 13.6637H24.6937V11.7656L24.7399 11.7887H40.3517C39.2877 17.4942 37.156 22.6137 34.2964 26.2976C31.49 29.9133 28.2027 31.9585 24.7399 32.2582Z" fill="black"/>
</svg>
