<svg width="48" height="48" viewBox="0 0 48 48" fill="none" xmlns="http://www.w3.org/2000/svg">
<g clip-path="url(#clip0_364_5911)">
<path d="M47.2899 10.4675H44.6649L44.1284 10.1097C44.8008 7.62675 45.1135 5.03837 44.4441 3.01835C44.3298 2.67265 43.9724 2.4694 43.6172 2.54814C39.746 3.40068 36.5233 6.03886 34.5015 8.10173C34.3458 8.2603 34.1957 8.41777 34.0492 8.57377H27.4622C26.2606 8.57377 25.1312 9.04179 24.282 9.8914L24 10.1734L23.7177 9.89104C22.8684 9.04179 21.739 8.57377 20.5378 8.57377H6.39038C6.25049 8.57377 6.11316 8.61552 5.9967 8.69316L3.33545 10.4675H0.710083C0.317871 10.4675 0 10.7853 0 11.1775V43.7454C0 44.1376 0.317871 44.4555 0.710083 44.4555H21.8698V44.6924C21.8698 45.0846 22.1876 45.4025 22.5798 45.4025H25.4202C25.8124 45.4025 26.1302 45.0846 26.1302 44.6924V44.4555H47.2899C47.6821 44.4555 48 44.1376 48 43.7454V11.1772C48 10.7853 47.6821 10.4675 47.2899 10.4675ZM6.68481 38.7748H20.0797C21.1249 38.7748 22.1078 39.3186 22.6732 40.195H5.26465L6.68481 38.7748ZM25.3268 40.195C25.8922 39.3186 26.8755 38.7748 27.9203 38.7748H41.3152L42.7354 40.195H25.3268ZM43.7032 11.5328L43.7395 11.5573V39.1908L42.3193 37.7707V15.1253C42.7855 14.0662 43.2792 12.8339 43.7032 11.5328ZM43.2638 4.10087C44.217 8.80119 40.0309 16.6901 39.46 17.736L36.4406 20.1849C36.2329 20.3533 36.1377 20.6236 36.1934 20.8847C36.249 21.1458 36.4464 21.3534 36.7042 21.4227L37.5883 21.6589L34.433 25.882L30.3812 27.4578C32.2375 21.9181 35.3313 14.7074 40.2678 8.09916C40.5026 7.78496 40.4381 7.34001 40.1239 7.10527C39.8101 6.87053 39.3647 6.93498 39.1304 7.24919C34.2905 13.7278 31.1869 20.7642 29.2712 26.3134L27.7841 21.3981L29.84 16.6037L30.4871 17.2508C30.676 17.4394 30.9547 17.5064 31.2085 17.424C31.4623 17.3416 31.6483 17.1237 31.6904 16.86L32.298 13.0328C32.9191 12.0931 37.2708 5.79423 43.2638 4.10087ZM27.4622 9.99394H32.799C31.6831 11.3431 31.0554 12.3366 31.0184 12.3952C30.9679 12.4761 30.9338 12.5666 30.9188 12.6611L30.5061 15.2615L30.1025 14.858C29.9359 14.6913 29.6979 14.6185 29.4661 14.6628C29.235 14.7074 29.0409 14.8638 28.9479 15.0802L28.084 17.0948H27.0769C26.6847 17.0948 26.3668 17.4126 26.3668 17.8049C26.3668 18.1967 26.6847 18.5149 27.0769 18.5149H27.4753L26.3771 21.0762C26.3112 21.23 26.3016 21.4018 26.35 21.5618L27.2897 24.6687H27.0769C26.6847 24.6687 26.3668 24.9866 26.3668 25.3788C26.3668 25.7707 26.6847 26.0889 27.0769 26.0889H27.7192L28.4352 28.4557H27.0769C26.6847 28.4557 26.3668 28.7736 26.3668 29.1658C26.3668 29.558 26.6847 29.8759 27.0769 29.8759H28.1323C27.8804 30.7321 27.6628 31.5249 27.4768 32.2427H27.0769C26.6847 32.2427 26.3668 32.5606 26.3668 32.9528C26.3668 33.345 26.6847 33.6629 27.0769 33.6629H28.0287H28.0309H38.4379C38.8297 33.6629 39.1476 33.345 39.1476 32.9528C39.1476 32.5606 38.8297 32.2427 38.4379 32.2427H28.9449C29.1365 31.5206 29.3584 30.7281 29.6136 29.8759H38.4379C38.8301 29.8759 39.1479 29.558 39.1479 29.1658C39.1479 28.7736 38.8301 28.4557 38.4379 28.4557H31.734L35.1372 27.1319C35.2614 27.0839 35.369 27.0019 35.4489 26.8953L36.0513 26.0889H38.4379C38.8301 26.0889 39.1479 25.771 39.1479 25.3788C39.1479 24.9866 38.8301 24.6687 38.4379 24.6687H37.1122L39.3538 21.6691C39.4948 21.4801 39.5328 21.2337 39.4556 21.0114C39.3787 20.7887 39.1959 20.6188 38.9681 20.558L38.417 20.4104L40.4619 18.7519C40.5311 18.6958 40.589 18.6274 40.6329 18.5497C40.6593 18.5029 40.7549 18.3322 40.8995 18.0608V37.355H27.9203C26.6982 37.355 25.5476 37.8476 24.7101 38.7023V11.4716L25.2861 10.8956C25.8673 10.314 26.6404 9.99394 27.4622 9.99394ZM22.7135 10.8952L23.2899 11.4716V38.702C22.4528 37.8472 21.3018 37.355 20.0797 37.355H7.10046V9.99394H20.5378C21.3596 9.99394 22.1323 10.314 22.7135 10.8952ZM4.2605 11.5573L5.68066 10.6106V37.7707L4.2605 39.1908V11.5573ZM1.42017 11.8873H2.84033V40.9051C2.84033 41.2918 3.16296 41.6152 3.55042 41.6152H21.8698V43.0353H1.42017V11.8873ZM24.7101 43.982H23.2899V41.6152H24.7101V43.982ZM46.5798 43.0353H26.1302V41.6152H44.4496C44.837 41.6152 45.1597 41.2918 45.1597 40.9051V11.8873H46.5798V43.0353Z" fill="black"/>
<path d="M11.5031 14.7275H18.9822C19.3744 14.7275 19.6923 14.4097 19.6923 14.0175C19.6923 13.6252 19.3744 13.3074 18.9822 13.3074H11.5031C11.1108 13.3074 10.793 13.6252 10.793 14.0175C10.793 14.4097 11.1108 14.7275 11.5031 14.7275Z" fill="black"/>
<path d="M9.56165 18.5145H20.9226C21.3148 18.5145 21.6327 18.1967 21.6327 17.8044C21.6327 17.4126 21.3148 17.0944 20.9226 17.0944H9.56165C9.16943 17.0944 8.85156 17.4126 8.85156 17.8044C8.85156 18.1967 9.16943 18.5145 9.56165 18.5145Z" fill="black"/>
<path d="M9.56165 22.3015H20.9226C21.3148 22.3015 21.6327 21.9836 21.6327 21.5914C21.6327 21.1992 21.3148 20.8813 20.9226 20.8813H9.56165C9.16943 20.8813 8.85156 21.1992 8.85156 21.5914C8.85156 21.9836 9.16943 22.3015 9.56165 22.3015Z" fill="black"/>
<path d="M9.56165 26.0885H20.9226C21.3148 26.0885 21.6327 25.7706 21.6327 25.3784C21.6327 24.9862 21.3148 24.6683 20.9226 24.6683H9.56165C9.16943 24.6683 8.85156 24.9862 8.85156 25.3784C8.85156 25.7706 9.16943 26.0885 9.56165 26.0885Z" fill="black"/>
<path d="M9.56165 29.8755H20.9226C21.3148 29.8755 21.6327 29.5576 21.6327 29.1654C21.6327 28.7732 21.3148 28.4553 20.9226 28.4553H9.56165C9.16943 28.4553 8.85156 28.7732 8.85156 29.1654C8.85156 29.5576 9.16943 29.8755 9.56165 29.8755Z" fill="black"/>
<path d="M20.9226 32.2423H9.56165C9.16943 32.2423 8.85156 32.5602 8.85156 32.9524C8.85156 33.3446 9.16943 33.6625 9.56165 33.6625H20.9226C21.3148 33.6625 21.6327 33.3446 21.6327 32.9524C21.6327 32.5602 21.3148 32.2423 20.9226 32.2423Z" fill="black"/>
</g>
<defs>
<clipPath id="clip0_364_5911">
<rect width="48" height="48" fill="white"/>
</clipPath>
</defs>
</svg>
