<svg width="48" height="48" viewBox="0 0 48 48" fill="none" xmlns="http://www.w3.org/2000/svg">
<g clip-path="url(#clip0_364_6042)">
<path d="M45 0H23C22.2044 0 21.4413 0.31607 20.8787 0.87868C20.3161 1.44129 20 2.20435 20 3V18H3C2.20435 18 1.44129 18.3161 0.87868 18.8787C0.31607 19.4413 0 20.2044 0 21L0 41C0 41.7957 0.31607 42.5587 0.87868 43.1213C1.44129 43.6839 2.20435 44 3 44H5V47C5 47.2652 5.10536 47.5196 5.29289 47.7071C5.48043 47.8946 5.73478 48 6 48C6.43 48 6.06 48.16 12.3 44H25C25.7956 44 26.5587 43.6839 27.1213 43.1213C27.6839 42.5587 28 41.7957 28 41V26H35.7C41.9 30.14 41.58 30 42 30C42.2652 30 42.5196 29.8946 42.7071 29.7071C42.8946 29.5196 43 29.2652 43 29V26H45C45.7957 26 46.5587 25.6839 47.1213 25.1213C47.6839 24.5587 48 23.7956 48 23V3C48 2.20435 47.6839 1.44129 47.1213 0.87868C46.5587 0.31607 45.7957 0 45 0V0ZM26 41C26 41.2652 25.8946 41.5196 25.7071 41.7071C25.5196 41.8946 25.2652 42 25 42H12C11.58 42 11.78 41.94 7 45.13V43C7 41 3.23 42.66 2.29 41.69C1.87 41.29 2 42.76 2 21C2 20.7348 2.10536 20.4804 2.29289 20.2929C2.48043 20.1054 2.73478 20 3 20H20V23C20 23.7956 20.3161 24.5587 20.8787 25.1213C21.4413 25.6839 22.2044 26 23 26H26V41ZM46 23C46 23.2652 45.8946 23.5196 45.7071 23.7071C45.5196 23.8946 45.2652 24 45 24H42C41.7348 24 41.4804 24.1054 41.2929 24.2929C41.1054 24.4804 41 24.7348 41 25V27.13C36.21 23.94 36.42 24 36 24H23C22.7348 24 22.4804 23.8946 22.2929 23.7071C22.1054 23.5196 22 23.2652 22 23V3C22 2.73478 22.1054 2.48043 22.2929 2.29289C22.4804 2.10536 22.7348 2 23 2H45C45.2652 2 45.5196 2.10536 45.7071 2.29289C45.8946 2.48043 46 2.73478 46 3V23Z" fill="black"/>
<path d="M14.9401 26.65C14.87 26.457 14.7422 26.2902 14.5741 26.1723C14.4059 26.0544 14.2055 25.9912 14.0001 25.9912C13.7947 25.9912 13.5943 26.0544 13.4262 26.1723C13.258 26.2902 13.1302 26.457 13.0601 26.65L10.0601 34.65C9.96729 34.8993 9.9773 35.1753 10.0879 35.4172C10.1986 35.6592 10.4008 35.8472 10.6501 35.94C10.8994 36.0329 11.1754 36.0228 11.4173 35.9122C11.6592 35.8016 11.8473 35.5993 11.9401 35.35L12.4401 34H15.5601L16.0601 35.35C16.1529 35.5993 16.341 35.8016 16.5829 35.9122C16.8248 36.0228 17.1008 36.0329 17.3501 35.94C17.5994 35.8472 17.8016 35.6592 17.9123 35.4172C18.0229 35.1753 18.0329 34.8993 17.9401 34.65L14.9401 26.65ZM13.1901 32L14.0001 29.85L14.8101 32H13.1901Z" fill="black"/>
<path d="M38 8H35V7C35 6.73478 34.8946 6.48043 34.7071 6.29289C34.5196 6.10536 34.2652 6 34 6C33.7348 6 33.4804 6.10536 33.2929 6.29289C33.1054 6.48043 33 6.73478 33 7V8H30C29.7348 8 29.4804 8.10536 29.2929 8.29289C29.1054 8.48043 29 8.73478 29 9C29 9.26522 29.1054 9.51957 29.2929 9.70711C29.4804 9.89464 29.7348 10 30 10H35.89C35.5932 11.3063 34.9388 12.5043 34 13.46C33.6972 13.1465 33.4165 12.8124 33.16 12.46C33.003 12.2575 32.7743 12.123 32.521 12.0842C32.2678 12.0454 32.0093 12.1053 31.7989 12.2516C31.5885 12.3978 31.4423 12.6192 31.3904 12.8701C31.3385 13.121 31.3849 13.3823 31.52 13.6C31.8237 14.0364 32.1579 14.4508 32.52 14.84C31.8911 15.3288 31.222 15.7637 30.52 16.14C30.3037 16.2702 30.1446 16.4774 30.0747 16.72C30.0048 16.9626 30.0292 17.2227 30.1432 17.4481C30.2571 17.6734 30.4521 17.8473 30.6889 17.9348C30.9257 18.0224 31.1869 18.0171 31.42 17.92C32.3363 17.4361 33.2008 16.8597 34 16.2C34.7902 16.8488 35.6446 17.415 36.55 17.89C36.7831 17.9871 37.0443 17.9924 37.2811 17.9048C37.5179 17.8173 37.7129 17.6434 37.8268 17.4181C37.9408 17.1927 37.9652 16.9326 37.8953 16.69C37.8254 16.4474 37.6663 16.2402 37.45 16.11C36.7483 15.7369 36.0793 15.3054 35.45 14.82C36.7524 13.5064 37.6183 11.8234 37.93 10C38.0613 10.0046 38.1923 9.98328 38.3153 9.93727C38.4384 9.89127 38.5512 9.82146 38.6474 9.73186C38.7435 9.64225 38.821 9.53459 38.8755 9.41502C38.93 9.29545 38.9604 9.16632 38.965 9.035C38.9696 8.90368 38.9483 8.77274 38.9023 8.64965C38.8563 8.52657 38.7865 8.41375 38.6969 8.31764C38.6072 8.22153 38.4996 8.14402 38.38 8.08951C38.2605 8.03501 38.1313 8.0046 38 8Z" fill="black"/>
</g>
<defs>
<clipPath id="clip0_364_6042">
<rect width="48" height="48" fill="white"/>
</clipPath>
</defs>
</svg>
