<svg width="48" height="48" viewBox="0 0 48 48" fill="none" xmlns="http://www.w3.org/2000/svg">
<g clip-path="url(#clip0_364_5887)">
<path d="M48 5.28324C48 2.37002 45.63 0 42.7169 0H5.28324C2.37002 0 0 2.37002 0 5.28324V42.7168C0 45.6299 2.37002 48 5.28324 48H42.7169C45.63 48 48.0001 45.63 48.0001 42.7168V5.28324H48ZM5.28324 1.40626H42.7169C44.8547 1.40626 46.5938 3.14544 46.5938 5.28324V7.06094C44.579 7.07829 42.5605 7.14907 40.5832 7.27273C40.1956 7.29691 39.901 7.63076 39.9252 8.01833C39.9485 8.39099 40.258 8.67758 40.6264 8.67758C40.6411 8.67758 40.6559 8.67712 40.6709 8.67618C42.6193 8.5544 44.6083 8.48455 46.5939 8.46721V18.7674C42.2811 19.079 39.9437 20.8172 37.6812 22.502C35.1602 24.3793 32.7791 26.1525 27.6067 26.1525C22.1772 26.1525 17.6616 25.0997 13.2946 24.0818C9.36018 23.1647 5.6318 22.2972 1.40626 22.1832V14.9257C6.79141 14.8315 11.9171 13.6733 17.8132 12.34C23.5242 11.0485 29.997 9.58491 37.8998 8.88581C38.2867 8.85159 38.5725 8.51024 38.5383 8.12342C38.5042 7.73661 38.1625 7.45085 37.7759 7.48498C29.779 8.19233 23.2573 9.66713 17.5031 10.9683C11.6928 12.2822 6.64085 13.4237 1.40626 13.5192V5.28324C1.40626 3.14544 3.14544 1.40626 5.28324 1.40626ZM42.7169 46.5937H5.28324C3.14544 46.5937 1.40626 44.8546 1.40626 42.7168V39.6294C4.15888 39.5321 6.92894 38.8903 9.33843 38.2844C9.71503 38.1897 9.9436 37.8077 9.84881 37.431C9.75413 37.0543 9.372 36.8257 8.9954 36.9206C6.06081 37.6586 3.71779 38.1404 1.40626 38.2232V23.5898C5.47758 23.7048 9.12581 24.554 12.9751 25.4514C17.4195 26.4874 22.0152 27.5588 27.6065 27.5588C33.2449 27.5588 35.927 25.5616 38.5208 23.63C40.6944 22.0114 42.7552 20.4779 46.5936 20.1771V38.875C42.8671 38.7155 39.4644 37.7424 35.8745 36.7156C31.9544 35.5943 27.9006 34.4348 23.3917 34.4348C19.112 34.4348 15.2776 35.3185 11.7172 36.2238C11.3408 36.3195 11.1133 36.7021 11.209 37.0784C11.3046 37.4549 11.6875 37.6821 12.0636 37.5866C15.5379 36.7034 19.2743 35.8411 23.3917 35.8411C27.7036 35.8411 31.6608 36.973 35.4878 38.0677C39.0189 39.0776 42.6638 40.1197 46.5936 40.2819V42.7169C46.5937 44.8546 44.8546 46.5937 42.7169 46.5937Z" fill="black"/>
<path d="M12.1141 16.605H9.61621C9.2278 16.605 8.91309 16.9198 8.91309 17.3081C8.91309 17.6964 9.2278 18.0112 9.61621 18.0112H12.1141C12.5025 18.0112 12.8172 17.6964 12.8172 17.3081C12.8172 16.9198 12.5025 16.605 12.1141 16.605Z" fill="black"/>
<path d="M17.7645 20.2931H15.2666C14.8782 20.2931 14.5635 20.6079 14.5635 20.9962C14.5635 21.3845 14.8782 21.6993 15.2666 21.6993H17.7645C18.1529 21.6993 18.4676 21.3845 18.4676 20.9962C18.4676 20.6079 18.1529 20.2931 17.7645 20.2931Z" fill="black"/>
<path d="M25.2498 15.1664H22.752C22.3635 15.1664 22.0488 15.4812 22.0488 15.8695C22.0488 16.2578 22.3635 16.5726 22.752 16.5726H25.2498C25.6382 16.5726 25.953 16.2578 25.953 15.8695C25.953 15.4812 25.6382 15.1664 25.2498 15.1664Z" fill="black"/>
<path d="M32.8689 18.7294H30.3711C29.9827 18.7294 29.668 19.0442 29.668 19.4325C29.668 19.8208 29.9827 20.1356 30.3711 20.1356H32.8689C33.2573 20.1356 33.572 19.8208 33.572 19.4325C33.572 19.0442 33.2572 18.7294 32.8689 18.7294Z" fill="black"/>
<path d="M39.4385 13.9414H41.9363C42.3247 13.9414 42.6394 13.6266 42.6394 13.2383C42.6394 12.85 42.3247 12.5352 41.9363 12.5352H39.4385C39.0501 12.5352 38.7354 12.85 38.7354 13.2383C38.7354 13.6266 39.0501 13.9414 39.4385 13.9414Z" fill="black"/>
<path d="M40.9678 16.8312C40.9678 17.2195 41.2825 17.5343 41.6709 17.5343H44.1687C44.5571 17.5343 44.8718 17.2195 44.8718 16.8312C44.8718 16.4429 44.5571 16.1281 44.1687 16.1281H41.6709C41.2826 16.1281 40.9678 16.4429 40.9678 16.8312Z" fill="black"/>
<path d="M11.0789 40.5144C9.88471 40.5144 8.91309 41.4859 8.91309 42.6802C8.91309 43.8745 9.88462 44.846 11.0789 44.846C12.2732 44.846 13.2448 43.8744 13.2448 42.6802C13.2448 41.486 12.2732 40.5144 11.0789 40.5144ZM11.0789 43.4398C10.6601 43.4398 10.3193 43.099 10.3193 42.6802C10.3193 42.2614 10.6601 41.9207 11.0789 41.9207C11.4978 41.9207 11.8386 42.2613 11.8386 42.6802C11.8386 43.0991 11.4978 43.4398 11.0789 43.4398Z" fill="black"/>
<path d="M28.2303 40.6747C27.0361 40.6747 26.0645 41.6463 26.0645 42.8405C26.0645 44.0347 27.036 45.0063 28.2303 45.0063C29.4245 45.0063 30.3961 44.0348 30.3961 42.8405C30.3961 41.6462 29.4245 40.6747 28.2303 40.6747ZM28.2303 43.6C27.8115 43.6 27.4707 43.2593 27.4707 42.8404C27.4707 42.4215 27.8115 42.0808 28.2303 42.0808C28.649 42.0808 28.9898 42.4216 28.9898 42.8404C28.9898 43.2592 28.649 43.6 28.2303 43.6Z" fill="black"/>
<path d="M38.8609 40.5144C37.3901 40.5144 36.1934 41.7111 36.1934 43.1821C36.1934 44.6529 37.3901 45.8496 38.8609 45.8496C40.3318 45.8496 41.5285 44.6529 41.5285 43.1821C41.5285 41.7111 40.3318 40.5144 38.8609 40.5144ZM38.8609 44.4434C38.1654 44.4434 37.5996 43.8775 37.5996 43.1821C37.5996 42.4865 38.1654 41.9207 38.8609 41.9207C39.5565 41.9207 40.1222 42.4865 40.1222 43.1821C40.1222 43.8775 39.5565 44.4434 38.8609 44.4434Z" fill="black"/>
<path d="M22.2354 36.7352C20.5096 36.7352 19.1055 38.1393 19.1055 39.8652C19.1055 41.591 20.5096 42.9951 22.2354 42.9951C23.9613 42.9951 25.3653 41.591 25.3653 39.8652C25.3653 38.1393 23.9613 36.7352 22.2354 36.7352ZM22.2354 41.5888C21.285 41.5888 20.5117 40.8155 20.5117 39.8651C20.5117 38.9146 21.285 38.1414 22.2354 38.1414C23.1858 38.1414 23.9591 38.9146 23.9591 39.8651C23.9591 40.8155 23.1858 41.5888 22.2354 41.5888Z" fill="black"/>
<path d="M7.29688 28.0461C6.90847 28.0461 6.59375 28.361 6.59375 28.7493V28.7961C6.59375 29.1845 6.90847 29.4993 7.29688 29.4993C7.68528 29.4993 8 29.1845 8 28.7961V28.7493C8 28.361 7.68528 28.0461 7.29688 28.0461Z" fill="black"/>
<path d="M11.0781 32.5603C11.4665 32.5603 11.7812 32.2455 11.7812 31.8572V31.8103C11.7812 31.422 11.4665 31.1072 11.0781 31.1072C10.6897 31.1072 10.375 31.422 10.375 31.8103V31.8572C10.375 32.2455 10.6897 32.5603 11.0781 32.5603Z" fill="black"/>
<path d="M15.2666 29.4758C15.655 29.4758 15.9697 29.161 15.9697 28.7727V28.7258C15.9697 28.3375 15.655 28.0227 15.2666 28.0227C14.8782 28.0227 14.5635 28.3375 14.5635 28.7258V28.7727C14.5635 29.161 14.8782 29.4758 15.2666 29.4758Z" fill="black"/>
<path d="M4.56055 34.4114C4.17214 34.4114 3.85742 34.7262 3.85742 35.1145V35.1614C3.85742 35.5497 4.17214 35.8645 4.56055 35.8645C4.94895 35.8645 5.26367 35.5497 5.26367 35.1614V35.1145C5.26367 34.7262 4.94895 34.4114 4.56055 34.4114Z" fill="black"/>
<path d="M19.9541 32.5837C20.3425 32.5837 20.6572 32.2689 20.6572 31.8806V31.8337C20.6572 31.4454 20.3425 31.1306 19.9541 31.1306C19.5657 31.1306 19.251 31.4454 19.251 31.8337V31.8806C19.251 32.2689 19.5657 32.5837 19.9541 32.5837Z" fill="black"/>
<path d="M28.2305 30.2422C28.6189 30.2422 28.9336 29.9274 28.9336 29.5391V29.4922C28.9336 29.1039 28.6189 28.7891 28.2305 28.7891C27.8421 28.7891 27.5273 29.1039 27.5273 29.4922V29.5391C27.5273 29.9275 27.8421 30.2422 28.2305 30.2422Z" fill="black"/>
<path d="M31.6201 33.8007C32.0085 33.8007 32.3232 33.4858 32.3232 33.0975V33.0507C32.3232 32.6623 32.0085 32.3475 31.6201 32.3475C31.2317 32.3475 30.917 32.6623 30.917 33.0507V33.0975C30.917 33.4858 31.2318 33.8007 31.6201 33.8007Z" fill="black"/>
<path d="M34.8906 29.7308C35.279 29.7308 35.5938 29.416 35.5938 29.0277V28.9808C35.5938 28.5925 35.279 28.2777 34.8906 28.2777C34.5022 28.2777 34.1875 28.5925 34.1875 28.9808V29.0277C34.1875 29.416 34.5022 29.7308 34.8906 29.7308Z" fill="black"/>
<path d="M42.0215 26.1439C42.4099 26.1439 42.7246 25.8291 42.7246 25.4408V25.3939C42.7246 25.0056 42.4099 24.6908 42.0215 24.6908C41.6331 24.6908 41.3184 25.0056 41.3184 25.3939V25.4408C41.3184 25.8291 41.6331 26.1439 42.0215 26.1439Z" fill="black"/>
<path d="M40.6865 31.1694C41.0749 31.1694 41.3896 30.8546 41.3896 30.4663V30.4194C41.3896 30.0311 41.0749 29.7163 40.6865 29.7163C40.2981 29.7163 39.9834 30.0311 39.9834 30.4194V30.4663C39.9834 30.8546 40.2982 31.1694 40.6865 31.1694Z" fill="black"/>
<path d="M42.2168 35.1379V35.1848C42.2168 35.5731 42.5315 35.8879 42.9199 35.8879C43.3083 35.8879 43.623 35.5731 43.623 35.1848V35.1379C43.623 34.7496 43.3083 34.4348 42.9199 34.4348C42.5315 34.4348 42.2168 34.7496 42.2168 35.1379Z" fill="black"/>
</g>
<defs>
<clipPath id="clip0_364_5887">
<rect width="48" height="48" fill="white"/>
</clipPath>
</defs>
</svg>
