<svg width="48" height="48" viewBox="0 0 48 48" fill="none" xmlns="http://www.w3.org/2000/svg">
<g clip-path="url(#clip0_364_6072)">
<path d="M11.7842 11.812C11.2667 11.812 10.8467 12.232 10.8467 12.7495C10.8467 13.267 11.2667 13.687 11.7842 13.687C12.3017 13.687 12.7217 13.267 12.7217 12.7495C12.7217 12.232 12.3017 11.812 11.7842 11.812Z" fill="black"/>
<path d="M20.2212 29.3423H17.4089V26.53C17.4089 26.0123 16.9891 25.5925 16.4714 25.5925C15.9537 25.5925 15.534 26.0123 15.534 26.53V29.3423H12.7217C12.204 29.3423 11.7842 29.7622 11.7842 30.2797C11.7842 30.7973 12.204 31.2172 12.7217 31.2172H15.534V34.0296C15.534 34.5472 15.9538 34.9671 16.4714 34.9671C16.989 34.9671 17.4089 34.5472 17.4089 34.0296V31.2172H20.2212C20.7389 31.2172 21.1587 30.7974 21.1587 30.2797C21.1587 29.7621 20.739 29.3423 20.2212 29.3423Z" fill="black"/>
<path d="M45.5226 30.186C43.4503 26.5967 38.8682 25.3683 35.2782 27.4411L31.4703 29.6395V21.4987C31.4703 20.4923 31.1375 19.4935 30.5329 18.6863L25.8456 12.4369V9.77569C26.9367 9.38869 27.7206 8.34675 27.7206 7.12453V2.81231C27.7204 1.26159 26.4588 0 24.9081 0H8.0339C6.48318 0 5.22149 1.26159 5.22149 2.81231V7.12463C5.22149 8.34666 6.00534 9.38878 7.0964 9.77578V12.437L2.4088 18.6868C1.80449 19.4936 1.47168 20.4923 1.47168 21.4987V39.6543C1.47168 42.2389 3.5744 44.3415 6.1589 44.3415H21.2247C23.3267 47.8649 27.8591 49.0441 31.412 46.9927L42.7778 40.4304C46.3361 38.3756 47.6054 33.7949 45.5226 30.186ZM7.0964 2.81231C7.0964 2.29537 7.51696 1.87481 8.0338 1.87481H24.908C25.4249 1.87481 25.8455 2.29537 25.8455 2.81231V7.12463C25.8455 7.64156 25.4249 8.06203 24.908 8.06203H8.0339C7.51696 8.06203 7.09649 7.64147 7.09649 7.12463V2.81231H7.0964ZM3.90918 19.8112L8.7838 13.3118C8.90549 13.1497 8.9713 12.9522 8.9713 12.7493V9.93703H23.9706V11.8119H15.5335C15.0158 11.8119 14.596 12.2318 14.596 12.7494C14.596 13.2671 15.0158 13.6869 15.5335 13.6869H24.4393L29.0324 19.8109C29.3326 20.2117 29.5191 20.6912 29.5754 21.1866H3.36655C3.4228 20.6911 3.60927 20.2116 3.90918 19.8112ZM6.15899 42.4666C4.60827 42.4666 3.34668 41.205 3.34668 39.6543V38.7075H20.3787C20.0814 39.923 20.0834 41.2212 20.4238 42.4667H6.15899V42.4666ZM21.114 36.8419H3.34659V23.0613H29.5953V30.7219L23.9122 34.0033C22.7273 34.6878 21.7696 35.6621 21.114 36.8419ZM30.4747 45.3689C27.7843 46.9224 24.3465 46.0037 22.7919 43.3115C21.23 40.5933 22.1766 37.171 24.8499 35.6269L29.9384 32.6889L35.5631 42.431L30.4747 45.3689ZM41.8403 38.8068L37.1869 41.4936L31.5621 31.7513L36.2156 29.0648C38.9077 27.5107 42.3443 28.431 43.8989 31.1233C45.4603 33.8291 44.5108 37.2647 41.8403 38.8068Z" fill="black"/>
</g>
<defs>
<clipPath id="clip0_364_6072">
<rect width="48" height="48" fill="white"/>
</clipPath>
</defs>
</svg>
