<svg width="48" height="48" viewBox="0 0 48 48" fill="none" xmlns="http://www.w3.org/2000/svg">
<g clip-path="url(#clip0_364_6082)">
<path d="M24 20.25C21.9323 20.25 20.25 21.9323 20.25 24C20.25 26.0677 21.9323 27.75 24 27.75C26.0677 27.75 27.75 26.0677 27.75 24C27.75 21.9323 26.0677 20.25 24 20.25ZM24 25.875C22.9661 25.875 22.125 25.0339 22.125 24C22.125 22.9661 22.9661 22.125 24 22.125C25.0339 22.125 25.875 22.9661 25.875 24C25.875 25.0339 25.0339 25.875 24 25.875Z" fill="black"/>
<path d="M41.1562 16.7678V7.78125C41.1562 7.26356 40.7365 6.84375 40.2187 6.84375H31.2321L24.6629 0.2745C24.2968 -0.0915 23.7032 -0.0915 23.337 0.2745L16.7678 6.84375H7.78123C7.26345 6.84375 6.84373 7.26356 6.84373 7.78125V16.7678L0.27457 23.337C-0.0915234 23.7031 -0.0915234 24.2967 0.27457 24.6629L6.84373 31.2321V40.2188C6.84373 40.7364 7.26345 41.1562 7.78123 41.1562H16.7678L23.337 47.7254C23.5201 47.9084 23.76 48 23.9999 48C24.2398 48 24.4798 47.9084 24.6628 47.7254L31.232 41.1562H40.2187C40.7365 41.1562 41.1562 40.7364 41.1562 40.2188V31.2322L47.7254 24.663C48.0915 24.2969 48.0915 23.7033 47.7254 23.3371L41.1562 16.7678ZM39.2812 8.71875V14.8928L33.107 8.71875H39.2812ZM39.2812 17.5446V30.4554L30.4553 39.2812H17.5445L8.71873 30.4554V17.5446L17.5445 8.71875H30.4553L39.2812 17.5446ZM24 2.26331L28.5803 6.84375H19.4195L24 2.26331ZM8.71873 8.71875H14.8928L8.71873 14.8928V8.71875ZM2.26329 24L6.84373 19.4196V28.5804L2.26329 24ZM8.71873 39.2812V33.1072L14.8928 39.2812H8.71873ZM24 45.7366L19.4195 41.1562H28.5803L24 45.7366ZM39.2812 39.2812H33.1071L39.2812 33.1071V39.2812ZM41.1562 28.5804V19.4196L45.7367 24L41.1562 28.5804Z" fill="black"/>
<path d="M24 33.375C24.5178 33.375 24.9375 32.9553 24.9375 32.4375C24.9375 31.9197 24.5178 31.5 24 31.5C23.4822 31.5 23.0625 31.9197 23.0625 32.4375C23.0625 32.9553 23.4822 33.375 24 33.375Z" fill="black"/>
<path d="M9.18612 23.4393C8.93796 23.7719 8.93796 24.228 9.18612 24.5606C9.3634 24.7981 13.5947 30.4018 19.5318 32.5522C20.0185 32.7285 20.5561 32.4768 20.7326 31.9899C20.9089 31.5032 20.6572 30.9655 20.1703 30.7892C15.8139 29.2113 12.3411 25.4297 11.141 23.9995C12.6746 22.1704 17.9201 16.5 24 16.5C30.0666 16.5 35.3221 22.1716 36.8585 24.0003C35.6574 25.4315 32.1851 29.2118 27.8297 30.7893C27.3429 30.9656 27.0911 31.5032 27.2675 31.99C27.4443 32.4783 27.9827 32.7281 28.4682 32.5522C34.4053 30.4018 38.6367 24.7982 38.8139 24.5607C39.0621 24.2281 39.0621 23.772 38.8139 23.4394C35.622 19.1617 29.6862 14.625 24 14.625C18.3068 14.625 12.3714 19.1706 9.18612 23.4393Z" fill="black"/>
</g>
<defs>
<clipPath id="clip0_364_6082">
<rect width="48" height="48" fill="white"/>
</clipPath>
</defs>
</svg>
