<svg width="48" height="48" viewBox="0 0 48 48" fill="none" xmlns="http://www.w3.org/2000/svg">
<g clip-path="url(#clip0_364_6103)">
<path d="M44.3291 20.3289C43.4862 20.3306 42.6695 20.6216 42.0156 21.1534C41.3617 21.6851 40.9101 22.4253 40.7366 23.2501H34.4703C34.3102 20.9888 33.4192 18.8408 31.9316 17.1301L36.3753 12.6939C37.135 13.1892 38.0513 13.3856 38.9472 13.245C39.8432 13.1044 40.6552 12.6368 41.2266 11.9325C41.798 11.2283 42.0882 10.3373 42.0412 9.43161C41.9942 8.52592 41.6132 7.66978 40.9719 7.0285C40.3307 6.38722 39.4745 6.00629 38.5688 5.95925C37.6632 5.91222 36.7722 6.20242 36.0679 6.77382C35.3636 7.34522 34.8961 8.1573 34.7555 9.05324C34.6149 9.94918 34.8112 10.8654 35.3066 11.6251L30.8703 16.0689C29.1597 14.5812 27.0117 13.6902 24.7503 13.5301V7.26385C25.6396 7.07828 26.4285 6.5696 26.9645 5.83617C27.5004 5.10274 27.7455 4.19664 27.6522 3.29304C27.5589 2.38943 27.1339 1.5525 26.4594 0.944033C25.7849 0.335566 24.9088 -0.0012207 24.0003 -0.0012207C23.0919 -0.0012207 22.2158 0.335566 21.5413 0.944033C20.8668 1.5525 20.4418 2.38943 20.3485 3.29304C20.2552 4.19664 20.5003 5.10274 21.0362 5.83617C21.5722 6.5696 22.3611 7.07828 23.2503 7.26385V13.5301C20.989 13.6902 18.841 14.5812 17.1303 16.0689L12.6941 11.6251C13.1909 10.864 13.388 9.94578 13.2474 9.04783C13.1068 8.14988 12.6384 7.33588 11.9327 6.76308C11.227 6.19027 10.3341 5.89928 9.42644 5.94632C8.51876 5.99336 7.66071 6.37509 7.01803 7.01778C6.37534 7.66047 5.99361 8.51852 5.94657 9.4262C5.89953 10.3339 6.19051 11.2268 6.76332 11.9325C7.33613 12.6381 8.15012 13.1065 9.04807 13.2471C9.94603 13.3878 10.8642 13.1906 11.6253 12.6939L16.0691 17.1301C14.5815 18.8408 13.6904 20.9888 13.5303 23.2501H7.2641C7.07852 22.3609 6.56985 21.572 5.83642 21.036C5.10299 20.5 4.19688 20.255 3.29328 20.3483C2.38968 20.4415 1.55274 20.8665 0.944277 21.541C0.335811 22.2155 -0.000976563 23.0917 -0.000976562 24.0001C-0.000976563 24.9085 0.335811 25.7847 0.944277 26.4592C1.55274 27.1337 2.38968 27.5587 3.29328 27.6519C4.19688 27.7452 5.10299 27.5002 5.83642 26.9642C6.56985 26.4282 7.07852 25.6394 7.2641 24.7501H13.5303C13.6904 27.0115 14.5815 29.1594 16.0691 30.8701L11.6253 35.3064C10.8657 34.811 9.94943 34.6146 9.05348 34.7552C8.15754 34.8958 7.34547 35.3634 6.77407 36.0677C6.20266 36.7719 5.91246 37.6629 5.9595 38.5686C6.00653 39.4743 6.38747 40.3304 7.02875 40.9717C7.67003 41.613 8.52617 41.9939 9.43185 42.041C10.3375 42.088 11.2285 41.7978 11.9328 41.2264C12.6371 40.655 13.1046 39.8429 13.2452 38.947C13.3858 38.051 13.1895 37.1348 12.6941 36.3751L17.1303 31.9314C18.841 33.419 20.989 34.31 23.2503 34.4701V40.7364C22.3611 40.9219 21.5722 41.4306 21.0362 42.164C20.5003 42.8975 20.2552 43.8036 20.3485 44.7072C20.4418 45.6108 20.8668 46.4477 21.5413 47.0562C22.2158 47.6646 23.0919 48.0014 24.0003 48.0014C24.9088 48.0014 25.7849 47.6646 26.4594 47.0562C27.1339 46.4477 27.5589 45.6108 27.6522 44.7072C27.7455 43.8036 27.5004 42.8975 26.9645 42.164C26.4285 41.4306 25.6396 40.9219 24.7503 40.7364V34.4701C27.0117 34.31 29.1597 33.419 30.8703 31.9314L35.3066 36.3751C34.8112 37.1348 34.6149 38.051 34.7555 38.947C34.8961 39.8429 35.3636 40.655 36.0679 41.2264C36.7722 41.7978 37.6632 42.088 38.5688 42.041C39.4745 41.9939 40.3307 41.613 40.9719 40.9717C41.6132 40.3304 41.9942 39.4743 42.0412 38.5686C42.0882 37.6629 41.798 36.7719 41.2266 36.0677C40.6552 35.3634 39.8432 34.8958 38.9472 34.7552C38.0513 34.6146 37.135 34.811 36.3753 35.3064L31.9316 30.8701C33.4192 29.1594 34.3102 27.0115 34.4703 24.7501H40.7366C40.8784 25.4295 41.2098 26.0548 41.6925 26.5535C42.1752 27.0521 42.7894 27.4038 43.4638 27.5676C44.1382 27.7314 44.8453 27.7007 45.5029 27.4791C46.1606 27.2574 46.742 26.8539 47.1797 26.3153C47.6173 25.7766 47.8933 25.125 47.9757 24.4358C48.0581 23.7467 47.9434 23.0484 47.6451 22.4218C47.3467 21.7951 46.8768 21.2659 46.2899 20.8955C45.703 20.5251 45.0231 20.3286 44.3291 20.3289ZM36.8291 8.08885C37.1328 7.78529 37.5197 7.57859 37.9408 7.49488C38.362 7.41118 38.7985 7.45423 39.1952 7.61859C39.5919 7.78296 39.9309 8.06125 40.1695 8.41829C40.408 8.77533 40.5353 9.19509 40.5353 9.62448C40.5353 10.0539 40.408 10.4736 40.1695 10.8307C39.9309 11.1877 39.5919 11.466 39.1952 11.6304C38.7985 11.7947 38.362 11.8378 37.9408 11.7541C37.5197 11.6704 37.1328 11.4637 36.8291 11.1601C36.4241 10.7509 36.1979 10.1979 36.2 9.62215C36.2021 9.04645 36.4324 8.49506 36.8403 8.08885H36.8291ZM21.8291 3.67135C21.8284 3.24176 21.9551 2.82161 22.1932 2.46405C22.4313 2.1065 22.7702 1.82762 23.1668 1.66271C23.5635 1.4978 24.0002 1.45426 24.4216 1.53762C24.8431 1.62097 25.2303 1.82747 25.5343 2.13097C25.8384 2.43448 26.0455 2.82135 26.1296 3.24263C26.2137 3.66392 26.1709 4.10067 26.0067 4.49764C25.8425 4.8946 25.5642 5.23392 25.207 5.47267C24.8499 5.71142 24.4299 5.83885 24.0003 5.83885C23.4254 5.83787 22.8743 5.60931 22.4675 5.20314C22.0606 4.79698 21.8311 4.24625 21.8291 3.67135ZM8.0891 11.1714C7.78553 10.8677 7.57883 10.4808 7.49513 10.0596C7.41142 9.63847 7.45447 9.20195 7.61884 8.80526C7.7832 8.40857 8.06149 8.06952 8.41854 7.83098C8.77558 7.59244 9.19533 7.46512 9.62472 7.46512C10.0541 7.46512 10.4739 7.59244 10.8309 7.83098C11.188 8.06952 11.4662 8.40857 11.6306 8.80526C11.795 9.20195 11.838 9.63847 11.7543 10.0596C11.6706 10.4808 11.4639 10.8677 11.1603 11.1714C10.7507 11.5754 10.1978 11.801 9.6224 11.7989C9.047 11.7968 8.49579 11.5672 8.0891 11.1601V11.1714ZM3.6716 26.1714C3.24201 26.1721 2.82185 26.0454 2.4643 25.8073C2.10674 25.5691 1.82787 25.2303 1.66295 24.8336C1.49804 24.4369 1.45451 24.0002 1.53786 23.5788C1.62122 23.1574 1.82771 22.7702 2.13122 22.4661C2.43472 22.1621 2.82159 21.9549 3.24288 21.8709C3.66416 21.7868 4.10092 21.8295 4.49788 21.9938C4.89484 22.158 5.23417 22.4363 5.47291 22.7934C5.71166 23.1506 5.8391 23.5705 5.8391 24.0001C5.83811 24.575 5.60955 25.1261 5.20339 25.533C4.79722 25.9399 4.24649 26.1694 3.6716 26.1714ZM21.3153 21.8626C21.3153 21.3316 21.4728 20.8124 21.7679 20.3709C22.0629 19.9294 22.4822 19.5852 22.9728 19.382C23.4635 19.1788 24.0033 19.1256 24.5242 19.2292C25.045 19.3328 25.5234 19.5885 25.8989 19.964C26.2744 20.3395 26.5302 20.8179 26.6338 21.3388C26.7374 21.8596 26.6842 22.3995 26.481 22.8901C26.2777 23.3807 25.9336 23.8001 25.4921 24.0951C25.0505 24.3901 24.5314 24.5476 24.0003 24.5476C23.2882 24.5476 22.6053 24.2647 22.1018 23.7612C21.5982 23.2577 21.3153 22.5747 21.3153 21.8626ZM24.0003 33.0001C22.0358 33.0019 20.1251 32.3575 18.5628 31.1664C18.6518 29.7847 19.2633 28.4887 20.2733 27.5417C21.2832 26.5946 22.6158 26.0676 24.0003 26.0676C25.3849 26.0676 26.7175 26.5946 27.7274 27.5417C28.7374 28.4887 29.3489 29.7847 29.4378 31.1664C27.8756 32.3575 25.9649 33.0019 24.0003 33.0001ZM11.1603 39.9114C10.8567 40.2149 10.4698 40.4216 10.0486 40.5053C9.62746 40.589 9.19094 40.546 8.79425 40.3816C8.39756 40.2173 8.05851 39.939 7.81997 39.5819C7.58143 39.2249 7.45411 38.8051 7.45411 38.3757C7.45411 37.9463 7.58143 37.5266 7.81997 37.1695C8.05851 36.8125 8.39756 36.5342 8.79425 36.3698C9.19094 36.2055 9.62746 36.1624 10.0486 36.2461C10.4698 36.3298 10.8567 36.5365 11.1603 36.8401C11.5659 37.2483 11.7935 37.8003 11.7935 38.3757C11.7935 38.9511 11.5659 39.5032 11.1603 39.9114ZM26.1603 44.3289C26.1611 44.7589 26.0341 45.1795 25.7955 45.5373C25.5568 45.8951 25.2173 46.174 24.82 46.3386C24.4226 46.5031 23.9854 46.546 23.5637 46.4617C23.1419 46.3775 22.7547 46.1698 22.4511 45.8652C22.1476 45.5606 21.9413 45.1727 21.8585 44.7506C21.7757 44.3286 21.8201 43.8915 21.986 43.4947C22.152 43.098 22.432 42.7594 22.7906 42.5221C23.1492 42.2847 23.5703 42.1591 24.0003 42.1614C24.5752 42.1623 25.1264 42.3909 25.5332 42.7971C25.9401 43.2032 26.1696 43.754 26.1716 44.3289H26.1603ZM39.9003 36.8289C40.2039 37.1325 40.4106 37.5194 40.4943 37.9406C40.578 38.3617 40.535 38.7983 40.3706 39.195C40.2062 39.5916 39.928 39.9307 39.5709 40.1692C39.2139 40.4078 38.7941 40.5351 38.3647 40.5351C37.9353 40.5351 37.5156 40.4078 37.1585 40.1692C36.8015 39.9307 36.5232 39.5916 36.3588 39.195C36.1945 38.7983 36.1514 38.3617 36.2351 37.9406C36.3188 37.5194 36.5255 37.1325 36.8291 36.8289C37.0322 36.6271 37.273 36.4673 37.5379 36.3587C37.8027 36.25 38.0864 36.1946 38.3727 36.1957C38.659 36.1967 38.9422 36.2542 39.2063 36.3648C39.4703 36.4753 39.71 36.6369 39.9116 36.8401L39.9003 36.8289ZM30.7503 29.9251C30.5009 28.8533 30.0012 27.8558 29.292 27.0143C28.5828 26.1728 27.6844 25.5113 26.6703 25.0839C27.3334 24.5345 27.8109 23.794 28.0376 22.9633C28.2644 22.1326 28.2294 21.2522 27.9374 20.4422C27.6454 19.6321 27.1107 18.9318 26.4061 18.4368C25.7015 17.9418 24.8614 17.6762 24.0003 17.6762C23.1393 17.6762 22.2992 17.9418 21.5946 18.4368C20.89 18.9318 20.3553 19.6321 20.0633 20.4422C19.7713 21.2522 19.7363 22.1326 19.9631 22.9633C20.1898 23.794 20.6673 24.5345 21.3303 25.0839C20.3163 25.5113 19.4179 26.1728 18.7087 27.0143C17.9995 27.8558 17.4998 28.8533 17.2503 29.9251C16.1047 28.6261 15.3583 27.0241 15.1005 25.3113C14.8428 23.5986 15.0848 21.8479 15.7974 20.2692C16.51 18.6906 17.663 17.3511 19.1181 16.4115C20.5731 15.4719 22.2683 14.9722 24.0003 14.9722C25.7324 14.9722 27.4276 15.4719 28.8826 16.4115C30.3377 17.3511 31.4907 18.6906 32.2033 20.2692C32.9159 21.8479 33.1579 23.5986 32.9002 25.3113C32.6424 27.0241 31.896 28.6261 30.7503 29.9251ZM44.3141 26.1751C43.8855 26.1721 43.4673 26.0424 43.1123 25.8022C42.7573 25.562 42.4814 25.2221 42.3192 24.8253C42.1571 24.4285 42.116 23.9926 42.2011 23.5725C42.2863 23.1524 42.4939 22.767 42.7978 22.4646C43.1016 22.1623 43.4882 21.9567 43.9087 21.8737C44.3292 21.7908 44.7649 21.8341 45.1608 21.9983C45.5568 22.1625 45.8952 22.4402 46.1336 22.7964C46.372 23.1527 46.4996 23.5715 46.5003 24.0001C46.5003 24.576 46.2716 25.1282 45.8644 25.5354C45.4572 25.9426 44.9049 26.1714 44.3291 26.1714L44.3141 26.1751Z" fill="black"/>
</g>
<defs>
<clipPath id="clip0_364_6103">
<rect width="48" height="48" fill="white"/>
</clipPath>
</defs>
</svg>
