<svg width="48" height="48" viewBox="0 0 48 48" fill="none" xmlns="http://www.w3.org/2000/svg">
<path d="M14.222 29.3811C14.3867 29.5014 14.585 29.567 14.789 29.5686C14.9123 29.5559 15.0334 29.5275 15.1494 29.4839L18.3845 27.6179C18.5664 28.0409 18.8645 28.4037 19.2441 28.6643C19.6237 28.9249 20.0694 29.0727 20.5295 29.0905L19.4454 31.6338C19.3634 31.816 19.328 32.0157 19.3422 32.2149C19.3564 32.4142 19.4198 32.6069 19.5267 32.7756C19.6142 32.9162 19.7355 33.0326 19.8797 33.1141C20.0239 33.1955 20.1862 33.2394 20.3517 33.2418H27.6462C27.8118 33.2394 27.974 33.1955 28.1182 33.1142C28.2623 33.0328 28.3837 32.9165 28.4713 32.776C28.5776 32.6091 28.641 32.4186 28.6561 32.2213C28.6711 32.024 28.6373 31.8261 28.5575 31.645L27.47 29.0905C27.9301 29.0726 28.3757 28.9248 28.7552 28.6642C29.1347 28.4036 29.4327 28.0408 29.6146 27.6179L32.8497 29.4854C32.9659 29.529 33.0871 29.5575 33.2105 29.5701C33.4143 29.5684 33.6125 29.5028 33.7771 29.3826C33.934 29.2634 34.0639 29.1123 34.1583 28.9394C34.2527 28.7665 34.3095 28.5755 34.325 28.3791C34.3268 28.3614 34.3277 28.3437 34.3276 28.3259C34.3276 27.505 34.2972 24.7705 33.8967 24.0453C33.1546 22.7001 30.818 19.2213 30.2855 18.4311C30.368 16.8505 30.4355 15.4105 30.4647 14.5086C30.5731 11.0403 30.0222 8.13925 28.7397 5.58588C28.7176 5.54163 28.6336 5.36088 28.6051 5.32C27.6784 3.59989 26.4652 2.05043 25.0175 0.738254C24.7369 0.489441 24.3748 0.352051 23.9998 0.352051C23.6247 0.352051 23.2626 0.489441 22.982 0.738254C21.5067 2.07483 20.2758 3.65842 19.3445 5.41788L19.3423 5.42238C17.9998 8.01475 17.4237 10.9653 17.5344 14.5071C17.5625 15.4098 17.6311 16.8513 17.714 18.433C17.1811 19.2205 14.8449 22.6986 14.1024 24.0434C13.721 24.7349 13.6749 27.2493 13.6719 28.1954C13.6719 28.2426 13.6719 28.36 13.6741 28.3776C13.6896 28.574 13.7464 28.765 13.8408 28.9379C13.9353 29.1108 14.0652 29.2619 14.222 29.3811V29.3811ZM30.185 20.3024C31.0948 21.67 32.4091 23.6755 32.912 24.5868C33.0852 24.9141 33.2015 26.7595 33.203 28.2918C33.1987 28.321 33.191 28.3497 33.1801 28.3773L29.831 26.4453C29.8873 25.5318 30.0406 22.9341 30.185 20.3024V20.3024ZM27.5289 32.0999C27.5317 32.1062 27.5336 32.1129 27.5345 32.1198H20.4661C20.4679 32.1092 20.4711 32.0988 20.4755 32.089L21.7498 29.0965H26.2498L27.5289 32.0999ZM23.7474 1.5625C23.8161 1.49912 23.9062 1.46394 23.9998 1.46394C24.0933 1.46394 24.1834 1.49912 24.2521 1.5625C25.3881 2.59052 26.3729 3.77413 27.1771 5.07813H20.8228C21.6269 3.77415 22.6115 2.59054 23.7474 1.5625V1.5625ZM20.207 6.20313H27.7925C28.7915 8.26563 29.4515 10.9255 29.3405 14.4719C29.246 17.4985 28.6929 26.6328 28.6873 26.7288C28.6694 27.0646 28.5232 27.3808 28.279 27.6121C28.0348 27.8433 27.7111 27.972 27.3748 27.9715H20.6248C20.2877 27.9719 19.9635 27.8427 19.7191 27.6106C19.4748 27.3784 19.3291 27.0612 19.3123 26.7246C19.3066 26.6328 18.7535 17.4996 18.659 14.4719C18.548 10.9255 19.208 8.26563 20.207 6.20313V6.20313ZM15.0871 24.5871C15.5904 23.6759 16.9051 21.6715 17.8145 20.3046C17.9593 22.9383 18.1145 25.5366 18.1681 26.4453L14.8194 28.3773C14.8085 28.3497 14.8008 28.321 14.7965 28.2918C14.798 26.7595 14.9143 24.9141 15.0871 24.5871Z" fill="black"/>
<path d="M32.4091 45.891C32.4556 45.9035 32.5035 45.9098 32.5516 45.9098C32.676 45.9097 32.7968 45.8684 32.8952 45.7923C32.9935 45.7162 33.0639 45.6097 33.0954 45.4894C33.1844 45.0671 33.1747 44.63 33.0669 44.2121C32.9591 43.7942 32.7562 43.4069 32.474 43.0804C31.6115 42.1523 30.1752 41.9085 29.2044 42.5239C29.0805 42.6047 28.9934 42.7311 28.962 42.8757C28.9306 43.0203 28.9575 43.1714 29.0367 43.2963C29.116 43.4213 29.2413 43.5099 29.3854 43.5431C29.5296 43.5764 29.6811 43.5514 29.807 43.4738C30.1129 43.3274 30.4582 43.2846 30.7906 43.3518C31.1231 43.4189 31.4246 43.5925 31.6497 43.8461C31.802 44.0344 31.9126 44.2529 31.9742 44.4871C32.0358 44.7213 32.047 44.9659 32.0071 45.2048C31.9694 45.3491 31.9906 45.5024 32.066 45.6311C32.1414 45.7598 32.2648 45.8533 32.4091 45.891Z" fill="black"/>
<path d="M23.9621 42.3986C24.13 42.3522 24.3056 42.3412 24.478 42.3663C24.6503 42.3913 24.8156 42.4519 24.9633 42.5441C25.0217 42.5894 25.0885 42.6226 25.1598 42.6421C25.231 42.6615 25.3054 42.6667 25.3787 42.6574C25.452 42.6481 25.5227 42.6244 25.5869 42.5878C25.651 42.5511 25.7073 42.5022 25.7525 42.4438C25.7978 42.3854 25.831 42.3187 25.8505 42.2474C25.8699 42.1761 25.8751 42.1017 25.8658 42.0284C25.8565 41.9552 25.8328 41.8844 25.7962 41.8203C25.7595 41.7561 25.7106 41.6999 25.6522 41.6546C25.3545 41.4461 25.0125 41.3092 24.6531 41.2547C24.2937 41.2002 23.9265 41.2295 23.5803 41.3404C23.1007 41.505 22.6909 41.827 22.4176 42.2541C22.1443 42.6813 22.0236 43.1883 22.0751 43.6927C22.0967 43.8242 22.1642 43.9438 22.2657 44.0301C22.3672 44.1164 22.4961 44.1639 22.6293 44.1641C22.6601 44.1642 22.6909 44.1617 22.7212 44.1566C22.8684 44.1324 23 44.0508 23.087 43.9296C23.1739 43.8084 23.2092 43.6577 23.1851 43.5105C23.1767 43.266 23.2479 43.0254 23.388 42.8249C23.5282 42.6244 23.7296 42.4748 23.9621 42.3986Z" fill="black"/>
<path d="M16.5955 43.7187C16.7244 43.8357 16.8276 43.9781 16.8986 44.137C16.9696 44.296 17.0068 44.4679 17.008 44.6419C16.9941 44.7905 17.0398 44.9384 17.1351 45.0533C17.2303 45.1681 17.3672 45.2404 17.5158 45.2543C17.6643 45.2682 17.8123 45.2225 17.9271 45.1272C18.042 45.032 18.1143 44.8951 18.1281 44.7465C18.1445 44.3834 18.0767 44.0214 17.93 43.6888C17.7833 43.3561 17.5617 43.062 17.2825 42.8292C16.8864 42.5126 16.3949 42.3394 15.8878 42.3377C15.3808 42.336 14.8881 42.5059 14.4899 42.8198C14.3904 42.9085 14.3257 43.0297 14.3072 43.1617C14.2887 43.2937 14.3177 43.4279 14.389 43.5405C14.4057 43.567 14.4244 43.592 14.4449 43.6155C14.5442 43.7267 14.6837 43.7939 14.8325 43.8024C14.9814 43.8108 15.1275 43.7598 15.2388 43.6605C15.4406 43.5218 15.6821 43.4524 15.9269 43.4628C16.1716 43.4733 16.4063 43.5631 16.5955 43.7187Z" fill="black"/>
<path d="M38.9437 37.9407C39.0265 37.9407 39.1105 37.9366 39.1949 37.9284C39.5571 37.9016 39.9071 37.7857 40.2136 37.5909C40.5201 37.3961 40.7737 37.1285 40.9518 36.812C41.0728 36.5732 41.143 36.312 41.158 36.0447C41.2495 34.871 40.801 34.2635 40.408 33.9609C40.0782 33.7377 39.6983 33.5994 39.3022 33.5585C38.9061 33.5175 38.5059 33.5751 38.1374 33.7261C37.8243 33.875 37.5447 34.0861 37.3157 34.3465C37.0867 34.6069 36.9131 34.9111 36.8054 35.2407C36.7068 35.5814 36.6994 35.9421 36.784 36.2865C36.8686 36.631 37.0421 36.9472 37.2873 37.2035C37.4915 37.4414 37.7461 37.631 38.0325 37.7585C38.319 37.886 38.6302 37.9482 38.9437 37.9407ZM37.8783 35.5812C37.9948 35.2553 38.2156 34.9769 38.5064 34.7892C38.7039 34.718 38.9119 34.68 39.1218 34.6767C39.3353 34.667 39.5461 34.7278 39.7218 34.8496C40.0349 35.0911 40.066 35.5842 40.0368 35.9555C40.0326 36.0692 40.006 36.181 39.9584 36.2844C39.8656 36.4357 39.7376 36.5622 39.5852 36.6533C39.4329 36.7443 39.2607 36.7971 39.0835 36.8071C38.9153 36.8325 38.7434 36.8168 38.5824 36.7615C38.4215 36.7062 38.2763 36.6129 38.1592 36.4895C37.7909 36.0414 37.8224 35.7567 37.8783 35.5812Z" fill="black"/>
<path d="M14.3459 36.3625C15.5512 36.3625 15.9757 35.1756 16.1358 34.729C16.2144 34.5089 16.2376 34.2728 16.2031 34.0416C16.1686 33.8104 16.0776 33.5913 15.9382 33.4038C15.7541 33.1525 15.5148 32.9469 15.2388 32.8027C14.9627 32.6585 14.6573 32.5796 14.3459 32.572C13.8484 32.6049 13.3823 32.8271 13.0435 33.193C12.7048 33.5589 12.519 34.0407 12.5245 34.5393C12.525 35.0224 12.717 35.4855 13.0584 35.8273C13.3998 36.1691 13.8628 36.3615 14.3459 36.3625ZM14.3459 33.697C14.4769 33.7044 14.6048 33.7398 14.7208 33.8011C14.8368 33.8623 14.9383 33.9478 15.0183 34.0518C15.0538 34.0916 15.0779 34.1403 15.0882 34.1927C15.0984 34.2451 15.0943 34.2992 15.0764 34.3495C14.7974 35.1295 14.5604 35.2371 14.3459 35.2371C14.1612 35.2365 13.9842 35.1627 13.8537 35.0319C13.7232 34.9011 13.6498 34.724 13.6495 34.5393C13.6474 34.3392 13.7162 34.1449 13.8437 33.9908C13.9711 33.8366 14.149 33.7325 14.3459 33.697Z" fill="black"/>
<path d="M8.9015 40.152C9.08436 40.2488 9.2845 40.3086 9.49049 40.328C9.69648 40.3475 9.90427 40.3261 10.102 40.2652C10.2997 40.2043 10.4835 40.105 10.6429 39.9731C10.8023 39.8411 10.934 39.679 11.0307 39.4961C11.5182 38.5717 10.7727 37.7539 10.5275 37.485C10.389 37.333 10.2151 37.2176 10.0212 37.1491C9.82738 37.0806 9.61959 37.0611 9.41637 37.0924C9.15088 37.131 8.89783 37.2302 8.67676 37.3822C8.45569 37.5343 8.27251 37.735 8.14137 37.9691C8.04306 38.1644 7.98789 38.3786 7.97961 38.5971C7.97133 38.8156 8.01013 39.0333 8.09337 39.2355C8.24601 39.6269 8.5323 39.9516 8.9015 40.152ZM9.13737 38.4949C9.18327 38.42 9.24454 38.3557 9.31713 38.3062C9.38973 38.2568 9.472 38.2233 9.5585 38.208C9.57168 38.2063 9.58495 38.2054 9.59825 38.2054C9.61643 38.2033 9.63483 38.2057 9.65192 38.2122C9.66901 38.2187 9.68429 38.2292 9.6965 38.2429C10.1551 38.745 10.0779 38.8909 10.0362 38.9692C10.0086 39.0215 9.97097 39.0679 9.92542 39.1056C9.87987 39.1434 9.82733 39.1717 9.77081 39.1892C9.71428 39.2066 9.65487 39.2127 9.59599 39.2071C9.5371 39.2015 9.47989 39.1844 9.42762 39.1567C9.29703 39.0828 9.19636 38.9655 9.143 38.8252C9.11994 38.7734 9.10756 38.7174 9.10659 38.6606C9.10562 38.6039 9.11609 38.5475 9.13737 38.4949Z" fill="black"/>
<path d="M42.1159 40.7625C41.976 40.6094 41.8005 40.4931 41.605 40.4241C41.4095 40.355 41.2 40.3352 40.995 40.3665C40.7272 40.4058 40.472 40.5061 40.2491 40.6596C40.0261 40.8131 39.8414 41.0157 39.7091 41.2518C39.5302 41.6477 39.51 42.0972 39.6526 42.5075C39.7952 42.9179 40.0898 43.2579 40.4756 43.4576C40.8486 43.6545 41.2846 43.6953 41.6877 43.5711C42.0907 43.4468 42.428 43.1677 42.6255 42.795C43.1197 41.8631 42.3904 41.0647 42.1159 40.7625ZM41.6314 42.2688C41.6028 42.3229 41.5638 42.3709 41.5167 42.41C41.4696 42.449 41.4153 42.4784 41.3568 42.4964C41.2983 42.5145 41.2369 42.5208 41.176 42.5151C41.115 42.5094 41.0558 42.4917 41.0017 42.4631C40.8673 42.3868 40.7637 42.2662 40.7085 42.1218C40.6846 42.0679 40.6718 42.0096 40.6709 41.9506C40.67 41.8916 40.681 41.833 40.7032 41.7783C40.7506 41.7011 40.8138 41.6349 40.8887 41.5839C40.9635 41.5329 41.0483 41.4983 41.1375 41.4825C41.1513 41.4807 41.1652 41.4799 41.1791 41.4798C41.1988 41.4778 41.2188 41.4805 41.2373 41.4877C41.2557 41.4949 41.2722 41.5065 41.2852 41.5215C41.7547 42.0375 41.6745 42.1875 41.6314 42.2703V42.2688Z" fill="black"/>
<path d="M31.3497 33.1372C31.1709 33.5331 31.1506 33.9824 31.2932 34.3927C31.4359 34.803 31.7304 35.143 32.1162 35.3426C32.4892 35.5394 32.9251 35.5803 33.3281 35.4561C33.7312 35.3319 34.0685 35.0529 34.2661 34.6803C34.7603 33.7466 34.031 32.9482 33.7565 32.6478C33.6167 32.4946 33.4413 32.3783 33.2457 32.3092C33.0502 32.2401 32.8406 32.2204 32.6356 32.2518C32.3677 32.291 32.1125 32.3912 31.8895 32.5447C31.6665 32.6982 31.4818 32.901 31.3497 33.1372ZM32.3442 33.6622C32.3915 33.5851 32.4547 33.5188 32.5295 33.4678C32.6042 33.4168 32.689 33.3822 32.7781 33.3663C32.7919 33.3646 32.8058 33.3638 32.8197 33.3637C32.8394 33.3616 32.8594 33.3643 32.8779 33.3716C32.8963 33.3788 32.9128 33.3904 32.9258 33.4053C33.3953 33.9195 33.3151 34.0713 33.272 34.1531C33.2141 34.2622 33.1153 34.344 32.9973 34.3803C32.8792 34.4167 32.7516 34.4047 32.6423 34.347C32.5079 34.2708 32.4042 34.1501 32.3491 34.0057C32.3255 33.9518 32.3131 33.8937 32.3124 33.8349C32.3118 33.7761 32.323 33.7177 32.3453 33.6633L32.3442 33.6622Z" fill="black"/>
<path d="M24.0498 39.5715C24.199 39.5715 24.3421 39.5122 24.4476 39.4067C24.553 39.3012 24.6123 39.1581 24.6123 39.009V34.1167C24.6123 33.9675 24.553 33.8244 24.4476 33.719C24.3421 33.6135 24.199 33.5542 24.0498 33.5542C23.9006 33.5542 23.7575 33.6135 23.6521 33.719C23.5466 33.8244 23.4873 33.9675 23.4873 34.1167V39.009C23.4873 39.1581 23.5466 39.3012 23.6521 39.4067C23.7575 39.5122 23.9006 39.5715 24.0498 39.5715Z" fill="black"/>
<path d="M24 14.4649C24.6266 14.4649 25.2391 14.2791 25.7601 13.931C26.2811 13.5829 26.6871 13.0881 26.9269 12.5092C27.1667 11.9304 27.2294 11.2934 27.1072 10.6789C26.9849 10.0643 26.6832 9.49985 26.2401 9.05679C25.7971 8.61374 25.2326 8.31202 24.6181 8.18978C24.0035 8.06754 23.3666 8.13028 22.7877 8.37006C22.2088 8.60984 21.714 9.01589 21.3659 9.53686C21.0178 10.0578 20.832 10.6703 20.832 11.2969C20.833 12.1368 21.1671 12.942 21.761 13.5359C22.3549 14.1298 23.1601 14.4639 24 14.4649ZM24 9.25241C24.4041 9.25241 24.7991 9.37223 25.1351 9.59672C25.471 9.8212 25.7329 10.1403 25.8875 10.5136C26.0421 10.8869 26.0826 11.2977 26.0038 11.694C25.9249 12.0903 25.7304 12.4543 25.4447 12.74C25.1589 13.0257 24.7949 13.2203 24.3986 13.2992C24.0023 13.378 23.5915 13.3375 23.2182 13.1829C22.8449 13.0283 22.5258 12.7664 22.3013 12.4304C22.0769 12.0945 21.957 11.6995 21.957 11.2954C21.958 10.754 22.1736 10.2351 22.5566 9.85241C22.9396 9.46973 23.4586 9.2545 24 9.25391V9.25241Z" fill="black"/>
<path d="M36.5049 41.0624C36.0977 40.4587 35.5329 39.978 34.8718 39.6727C34.0902 39.2941 33.199 39.2077 32.3593 39.4289C32.0752 39.054 31.6976 38.7604 31.2643 38.5773C30.8578 38.3863 30.4175 38.2778 29.9688 38.258C29.5201 38.2383 29.0719 38.3076 28.6502 38.4622C27.992 37.4309 27.6658 35.9021 27.437 34.4366C27.4264 34.3629 27.4013 34.292 27.3632 34.2281C27.325 34.1643 27.2745 34.1086 27.2147 34.0643C27.1548 34.0201 27.0868 33.9881 27.0145 33.9704C26.9423 33.9526 26.8672 33.9494 26.7936 33.9608C26.7201 33.9723 26.6496 33.9982 26.5861 34.0371C26.5227 34.0761 26.4676 34.1272 26.424 34.1875C26.3805 34.2479 26.3494 34.3163 26.3325 34.3888C26.3156 34.4613 26.3132 34.5364 26.3255 34.6098C26.6019 36.3806 27.0253 38.2387 27.9894 39.4634C27.9947 39.4702 28.0918 39.5909 28.1139 39.6164C28.4499 40.0158 28.8714 40.3346 29.3473 40.5491C29.4834 40.6071 29.6368 40.6091 29.7744 40.5548C29.912 40.5005 30.0226 40.3942 30.0824 40.2589C30.1422 40.1236 30.1462 39.9702 30.0937 39.8319C30.0412 39.6936 29.9363 39.5816 29.8018 39.5201C29.7121 39.4802 29.6253 39.4343 29.5419 39.3824C29.9722 39.3443 30.405 39.4197 30.797 39.6011C30.9789 39.6804 31.1471 39.7877 31.2958 39.9191C31.1875 40.0106 31.1177 40.1397 31.1005 40.2805C31.0833 40.4213 31.1199 40.5634 31.2031 40.6783C31.2862 40.7932 31.4097 40.8725 31.5487 40.9003C31.6878 40.9281 31.8323 40.9023 31.9532 40.8281C32.3125 40.5927 32.7274 40.4563 33.1563 40.4324C33.5851 40.4085 34.0127 40.498 34.3959 40.6919C34.7963 40.8629 35.1474 41.1316 35.417 41.4735C35.6866 41.8154 35.8661 42.2194 35.939 42.6487C35.954 42.7865 36.0193 42.9139 36.1224 43.0064C36.2255 43.099 36.3592 43.1503 36.4978 43.1504C36.5183 43.1504 36.5389 43.1493 36.5593 43.1471C36.6706 43.1348 36.7757 43.0896 36.8611 43.0172C36.9466 42.9449 37.0085 42.8487 37.0389 42.7409C38.108 43.6034 39.0699 44.9036 39.2353 46.1219C39.2654 46.2471 39.2458 46.3791 39.1805 46.4902C39.1566 46.5098 39.1288 46.5244 39.0991 46.5331C39.0693 46.5417 39.0381 46.5442 39.0073 46.5404H8.99304C8.96204 46.5442 8.93058 46.5417 8.90059 46.5329C8.87061 46.5241 8.84273 46.5093 8.81867 46.4894C8.75339 46.3802 8.73283 46.25 8.76129 46.1261C8.85874 45.4381 9.10743 44.7802 9.48947 44.1999C9.87151 43.6195 10.3774 43.131 10.9708 42.7694C11.0052 42.8705 11.0677 42.9596 11.1509 43.0265C11.2341 43.0934 11.3346 43.1352 11.4407 43.1471C11.4611 43.1493 11.4816 43.1504 11.5022 43.1504C11.6408 43.1503 11.7744 43.099 11.8775 43.0064C11.9806 42.9139 12.0459 42.7865 12.0609 42.6487C12.1338 42.2194 12.3133 41.8154 12.5829 41.4735C12.8525 41.1316 13.2036 40.8629 13.604 40.6919C13.9873 40.4981 14.4148 40.4086 14.8437 40.4325C15.2725 40.4564 15.6874 40.5929 16.0468 40.8281C16.1671 40.9023 16.311 40.9285 16.4498 40.9015C16.5885 40.8744 16.712 40.7961 16.7957 40.6821C16.8793 40.5681 16.917 40.4268 16.9011 40.2863C16.8853 40.1458 16.8171 40.0164 16.7102 39.9239C16.8513 39.8046 17.009 39.7062 17.1782 39.6318C17.5883 39.4448 18.0398 39.3673 18.4888 39.4068C18.4209 39.4483 18.3506 39.4858 18.2784 39.5193C18.2099 39.5485 18.1479 39.591 18.0959 39.6444C18.044 39.6978 18.0031 39.7609 17.9758 39.8302C17.9484 39.8995 17.9351 39.9735 17.9366 40.048C17.9381 40.1225 17.9543 40.1959 17.9844 40.264C18.0145 40.3322 18.0579 40.3936 18.1119 40.4449C18.1659 40.4961 18.2296 40.5362 18.2993 40.5626C18.3689 40.5891 18.4431 40.6014 18.5175 40.599C18.592 40.5965 18.6652 40.5793 18.7329 40.5483C20.6923 39.6832 21.3107 37.1793 21.6868 34.6027C21.7084 34.455 21.6704 34.3049 21.5813 34.1852C21.4921 34.0655 21.3591 33.9862 21.2115 33.9646C21.0638 33.943 20.9137 33.981 20.794 34.0701C20.6743 34.1593 20.595 34.2923 20.5734 34.4399C20.3578 35.9174 20.0454 37.4587 19.3959 38.4877C18.9628 38.329 18.5024 38.2579 18.0416 38.2785C17.5807 38.2991 17.1286 38.411 16.7113 38.6077C16.2915 38.7855 15.9246 39.0685 15.6459 39.4293C14.8048 39.2065 13.9116 39.2926 13.1285 39.6719C12.3659 40.0206 11.7345 40.6037 11.3263 41.3362C10.3548 41.7125 9.50152 42.3415 8.85452 43.1581C8.20752 43.9746 7.79032 44.9492 7.64604 45.9809C7.60783 46.2006 7.61733 46.426 7.67388 46.6417C7.73043 46.8574 7.83271 47.0585 7.97379 47.2312C8.10138 47.3739 8.25887 47.4868 8.43504 47.5617C8.61121 47.6366 8.80173 47.6718 8.99304 47.6647H39.0077C39.1994 47.6718 39.3903 47.6365 39.5668 47.5613C39.7432 47.486 39.9009 47.3726 40.0284 47.2293C40.1695 47.0548 40.2713 46.8519 40.3269 46.6344C40.3824 46.417 40.3905 46.1901 40.3505 45.9693C40.0715 43.9158 38.2052 41.8983 36.5049 41.0624Z" fill="black"/>
</svg>
