<svg width="48" height="48" viewBox="0 0 48 48" fill="none" xmlns="http://www.w3.org/2000/svg">
<g clip-path="url(#clip0_364_5863)">
<path d="M23.6397 25.5843H20.8703C20.226 25.5843 19.7017 25.06 19.7017 24.4157V18.0734C19.7017 17.6859 20.0158 17.3719 20.4033 17.3719C20.7907 17.3719 21.1048 17.6859 21.1048 18.0734V24.1812H23.4052V11.6013C23.4052 11.06 23.8456 10.6194 24.387 10.6194H29.8648V8.31919H24.387C23.8456 8.31919 23.4052 7.87875 23.4052 7.33734V1.40316H21.1049V7.33734C21.1049 7.87866 20.6645 8.31919 20.1231 8.31919H14.6452V10.6195H20.1231C20.6645 10.6195 21.1049 11.0601 21.1049 11.6014V14.952C21.1049 15.3395 20.7908 15.6535 20.4034 15.6535C20.0159 15.6535 19.7018 15.3395 19.7018 14.952V12.0227H14.4108C13.7664 12.0227 13.2422 11.4984 13.2422 10.8541V8.08472C13.2422 7.44037 13.7664 6.91613 14.4108 6.91613H19.7018V1.16859C19.7017 0.52425 20.226 0 20.8703 0H23.6397C24.2841 0 24.8083 0.52425 24.8083 1.16859V6.91603H30.0994C30.7437 6.91603 31.268 7.44028 31.268 8.08463V10.854C31.268 11.4983 30.7437 12.0226 30.0994 12.0226H24.8083V24.4156C24.8083 25.06 24.2841 25.5843 23.6397 25.5843Z" fill="black"/>
<path d="M38.9176 33.3227C38.5733 33.3227 38.273 33.0691 38.2237 32.7183C38.17 32.3347 38.4374 31.98 38.8211 31.9262C40.7734 31.6526 42.5442 30.7688 43.9422 29.3707C44.3466 28.9665 44.7116 28.5246 45.0311 28.0536C41.5303 28.8732 37.8246 27.8283 35.2732 25.277C32.7217 22.7254 31.6769 19.0202 32.4967 15.5192C31.9086 15.9179 31.3677 16.3869 30.8845 16.9172C27.784 20.3206 27.7812 25.6518 30.878 29.0544C32.2498 30.5617 34.029 31.5398 36.023 31.8828C36.4049 31.9485 36.6612 32.3112 36.5956 32.6931C36.5299 33.0749 36.1677 33.3318 35.7852 33.2657C33.4802 32.8692 31.4245 31.7396 29.8402 29.9988C28.0989 28.0856 27.1409 25.5947 27.1426 22.9847C27.1443 20.3755 28.1047 17.8851 29.8474 15.9723C30.5129 15.2418 31.2742 14.6117 32.1101 14.0994C32.545 13.8331 33.0896 13.8594 33.4977 14.1666C33.9099 14.4769 34.0878 14.9987 33.9505 15.4955C33.0866 18.6252 33.9737 21.9931 36.2655 24.2849C38.557 26.5764 41.9242 27.4635 45.054 26.6001C45.5504 26.4631 46.0714 26.6403 46.3806 27.0515C46.6892 27.4622 46.7148 28.0106 46.4458 28.4488C46.0205 29.1414 45.5121 29.7854 44.9346 30.3629C43.3191 31.9782 41.2726 32.9993 39.0159 33.3156C38.9828 33.3204 38.95 33.3227 38.9176 33.3227Z" fill="black"/>
<path d="M42.3191 23.6944C42.1103 23.6945 41.9003 23.644 41.7064 23.5421L40.4776 22.896L39.2488 23.5421C38.8027 23.7766 38.2723 23.7381 37.8647 23.4419C37.4569 23.1457 37.2567 22.6532 37.342 22.1566L37.5766 20.7883L36.5824 19.8193C36.2216 19.4676 36.0942 18.9514 36.2498 18.4722C36.4054 17.9929 36.8119 17.6501 37.3108 17.5776L38.6847 17.378L39.2992 16.133C39.5223 15.6812 39.9738 15.4004 40.4778 15.4004C40.9817 15.4004 41.4333 15.6811 41.6563 16.133L42.2708 17.378L43.6446 17.5776C44.1435 17.6502 44.55 17.993 44.7057 18.4722C44.8613 18.9515 44.7339 19.4676 44.373 19.8193L43.3789 20.7883L43.6136 22.1567C43.6987 22.6532 43.4985 23.1457 43.0908 23.4419C42.86 23.6093 42.5905 23.6944 42.3191 23.6944ZM40.4775 21.4813C40.6876 21.4813 40.8975 21.5315 41.089 21.6322L42.1998 22.2162L41.9877 20.9794C41.9146 20.5528 42.056 20.1179 42.3659 19.816L43.2644 18.9402L42.0225 18.7597C41.5943 18.6976 41.2244 18.4289 41.0328 18.0408L40.4775 16.9156L39.9221 18.0409C39.7307 18.4289 39.3606 18.6977 38.9324 18.7597L37.6907 18.9402L38.5893 19.8161C38.899 20.118 39.0404 20.5528 38.9673 20.9794L38.7551 22.2162L39.8658 21.6322C40.0574 21.5316 40.2675 21.4813 40.4775 21.4813ZM43.4425 18.966H43.4434H43.4425ZM40.3977 16.754C40.3977 16.754 40.3978 16.7541 40.3979 16.7542L40.3977 16.754Z" fill="black"/>
<path d="M13.1922 47.9999C13.0203 47.9999 12.8467 47.9789 12.6749 47.9353C12.1326 47.7979 11.6547 47.4299 11.3637 46.9259L8.70941 42.3286C8.45882 42.2216 8.28323 41.9728 8.28323 41.6832C8.28323 41.2957 8.59729 40.9816 8.98476 40.9816C9.33435 40.9816 9.66023 41.1697 9.83526 41.4724L12.5788 46.2244C12.6815 46.4023 12.8423 46.5303 13.0199 46.5754C13.3319 46.6542 13.6482 46.5227 13.8071 46.2474L16.5637 41.4728C16.7385 41.1699 17.0645 40.9817 17.4143 40.9817H22.9006C23.1062 40.9817 23.2975 40.9064 23.4254 40.7752C23.65 40.5447 23.694 40.2048 23.535 39.9295L20.7784 35.1548C20.6035 34.852 20.6035 34.4755 20.7785 34.1724L23.5349 29.3981C23.6939 29.1226 23.65 28.7828 23.4254 28.5523C23.2974 28.421 23.1061 28.3457 22.9005 28.3457H17.4142C17.0644 28.3457 16.7384 28.1576 16.5636 27.8547L13.8202 23.1029C13.7174 22.925 13.5566 22.797 13.3791 22.7519C13.067 22.6731 12.7509 22.8046 12.5919 23.08L9.83526 27.8546C9.66013 28.1576 9.33426 28.3456 8.98466 28.3456H3.49832C3.29273 28.3456 3.10148 28.4209 2.9736 28.5522C2.74898 28.7827 2.70491 29.1225 2.86391 29.3979L5.62054 34.1725C5.79538 34.4754 5.79538 34.8519 5.62054 35.1548L2.86391 39.9293C2.70491 40.2047 2.74888 40.5446 2.97351 40.775C3.10148 40.9063 3.29273 40.9816 3.49832 40.9816H5.59223C5.97969 40.9816 6.29376 41.2957 6.29376 41.6832C6.29376 42.0706 5.97969 42.3847 5.59223 42.3847H3.49832C2.91651 42.3847 2.35898 42.1548 1.96851 41.7541C1.31095 41.0793 1.17941 40.0404 1.64882 39.2276L4.28385 34.6636L1.64873 30.0995C1.17941 29.2868 1.31085 28.2478 1.96851 27.5729C2.35888 27.1723 2.91641 26.9425 3.49823 26.9425H8.74157L11.3767 22.3783C11.8457 21.5658 12.8112 21.1605 13.724 21.3919C14.2663 21.5293 14.7442 21.8972 15.0352 22.4012L17.6571 26.9426H22.9004C23.4823 26.9426 24.0398 27.1724 24.4303 27.5731C25.0878 28.2479 25.2194 29.2869 24.7499 30.0997L22.1149 34.6636L24.7499 39.2277C25.2193 40.0405 25.0877 41.0794 24.4302 41.7543C24.0398 42.155 23.4823 42.3848 22.9004 42.3848H17.6571L15.022 46.9489C14.6414 47.6085 13.9335 47.9999 13.1922 47.9999ZM15.4701 39.5785H10.9289C10.5794 39.5785 10.2535 39.3904 10.0784 39.0877L7.80773 35.1548C7.63298 34.8518 7.63298 34.4755 7.80754 34.1728L10.0783 30.2398C10.2534 29.9368 10.5793 29.7488 10.9289 29.7488H15.47C15.8196 29.7488 16.1455 29.9368 16.3205 30.2396L18.5911 34.1726C18.7661 34.4752 18.7661 34.8517 18.5911 35.1548L16.3206 39.0874C16.1456 39.3904 15.8197 39.5785 15.4701 39.5785ZM11.172 38.1754H15.2271L17.2546 34.6637L15.2271 31.1519H11.172L9.14441 34.6637L11.172 38.1754Z" fill="black"/>
<path d="M19.6853 32.4655C19.4023 32.4655 19.1385 32.3133 18.9969 32.0682L18.3464 30.9415C18.2048 30.696 18.2048 30.3913 18.3464 30.1463C18.488 29.9011 18.7519 29.7488 19.0349 29.7488H20.3357C20.6189 29.7488 20.8827 29.9011 21.0243 30.1465C21.1658 30.3916 21.1658 30.6963 21.0243 30.9415L20.3739 32.068C20.2323 32.3132 19.9685 32.4655 19.6853 32.4655Z" fill="black"/>
<path d="M13.8504 28.3456H12.5496C12.2664 28.3456 12.0026 28.1932 11.861 27.948C11.7195 27.7028 11.7195 27.3981 11.8611 27.1529L12.5115 26.0265C12.6531 25.7812 12.9169 25.6289 13.2001 25.6289C13.4832 25.6289 13.747 25.7812 13.8886 26.0264V26.0265L14.5389 27.153C14.6805 27.3981 14.6806 27.7028 14.5389 27.948C14.3974 28.1932 14.1336 28.3456 13.8504 28.3456Z" fill="black"/>
<path d="M6.71468 32.4655C6.43155 32.4655 6.16774 32.3133 6.02618 32.0682L5.37574 30.9415C5.23418 30.6964 5.23408 30.3916 5.37574 30.1465C5.5173 29.9012 5.78111 29.7488 6.06433 29.7488H7.36511C7.64833 29.7488 7.91214 29.9011 8.05371 30.1465C8.19527 30.3916 8.19527 30.6964 8.05361 30.9416L7.40327 32.068C7.26152 32.3132 6.99771 32.4655 6.71468 32.4655Z" fill="black"/>
<path d="M7.36508 39.5785H6.0643C5.78108 39.5785 5.51727 39.4262 5.3757 39.1808C5.23414 38.9357 5.23414 38.631 5.3757 38.3858L6.02605 37.2593C6.1677 37.0141 6.43152 36.8618 6.71464 36.8618C6.99767 36.8618 7.26148 37.014 7.40305 37.2591L8.05348 38.3858C8.19505 38.6309 8.19514 38.9357 8.05348 39.1808C7.91211 39.4262 7.6483 39.5785 7.36508 39.5785Z" fill="black"/>
<path d="M13.1999 43.6985C12.9168 43.6985 12.653 43.5462 12.5114 43.301V43.3009L11.8611 42.1744C11.7195 41.9293 11.7194 41.6245 11.8611 41.3794C12.0027 41.1341 12.2665 40.9817 12.5497 40.9817H13.8505C14.1337 40.9817 14.3975 41.134 14.5391 41.3794C14.6806 41.6245 14.6806 41.9293 14.539 42.1745L13.8886 43.3009C13.7468 43.5462 13.483 43.6985 13.1999 43.6985Z" fill="black"/>
<path d="M20.3357 39.5785H19.035C18.7519 39.5785 18.4881 39.4263 18.3465 39.181C18.2048 38.9359 18.2048 38.6313 18.3463 38.386C18.3463 38.386 18.3464 38.3859 18.3464 38.3858L18.9968 37.2594C19.1384 37.0142 19.4022 36.8618 19.6853 36.8618H19.6855C19.9687 36.8619 20.2325 37.0143 20.3739 37.2595L21.0242 38.3857C21.1658 38.6308 21.1658 38.9356 21.0242 39.1807C20.8827 39.4262 20.6188 39.5785 20.3357 39.5785Z" fill="black"/>
</g>
<defs>
<clipPath id="clip0_364_5863">
<rect width="48" height="48" fill="white"/>
</clipPath>
</defs>
</svg>
