<svg width="22" height="34" viewBox="0 0 22 34" fill="none" xmlns="http://www.w3.org/2000/svg">
<path d="M1.222 29.3811C1.38673 29.5014 1.58504 29.567 1.789 29.5686C1.91226 29.5559 2.03338 29.5275 2.14937 29.4839L5.3845 27.6179C5.56643 28.0409 5.86446 28.4037 6.24408 28.6643C6.6237 28.9249 7.06937 29.0727 7.5295 29.0905L6.44537 31.6338C6.36345 31.816 6.32799 32.0157 6.3422 32.2149C6.3564 32.4142 6.41981 32.6069 6.52675 32.7756C6.61417 32.9162 6.73555 33.0326 6.87971 33.1141C7.02387 33.1955 7.18619 33.2394 7.35175 33.2418H14.6462C14.8118 33.2394 14.974 33.1955 15.1182 33.1142C15.2623 33.0328 15.3837 32.9165 15.4713 32.776C15.5776 32.6091 15.641 32.4186 15.6561 32.2213C15.6711 32.024 15.6373 31.8261 15.5575 31.645L14.47 29.0905C14.9301 29.0726 15.3757 28.9248 15.7552 28.6642C16.1347 28.4036 16.4327 28.0408 16.6146 27.6179L19.8498 29.4854C19.9659 29.529 20.0871 29.5575 20.2105 29.5701C20.4143 29.5684 20.6125 29.5028 20.7771 29.3826C20.934 29.2634 21.0639 29.1123 21.1583 28.9394C21.2527 28.7665 21.3095 28.5755 21.325 28.3791C21.3268 28.3614 21.3277 28.3437 21.3276 28.3259C21.3276 27.505 21.2972 24.7705 20.8967 24.0453C20.1546 22.7001 17.818 19.2213 17.2855 18.4311C17.368 16.8505 17.4355 15.4105 17.4647 14.5086C17.5731 11.0403 17.0222 8.13925 15.7397 5.58588C15.7176 5.54163 15.6336 5.36088 15.6051 5.32C14.6784 3.59989 13.4652 2.05043 12.0175 0.738254C11.7369 0.489441 11.3748 0.352051 10.9998 0.352051C10.6247 0.352051 10.2626 0.489441 9.982 0.738254C8.5067 2.07483 7.27576 3.65842 6.3445 5.41788L6.34225 5.42238C4.99975 8.01475 4.42375 10.9653 4.53437 14.5071C4.5625 15.4098 4.63112 16.8513 4.714 18.433C4.18112 19.2205 1.84487 22.6986 1.10237 24.0434C0.721 24.7349 0.674875 27.2493 0.671875 28.1954C0.671875 28.2426 0.671875 28.36 0.674125 28.3776C0.689619 28.574 0.746434 28.765 0.84085 28.9379C0.935266 29.1108 1.06515 29.2619 1.222 29.3811ZM17.185 20.3024C18.0948 21.67 19.4091 23.6755 19.912 24.5868C20.0852 24.9141 20.2015 26.7595 20.203 28.2918C20.1987 28.321 20.191 28.3497 20.1801 28.3773L16.831 26.4453C16.8873 25.5318 17.0406 22.9341 17.185 20.3024ZM14.5289 32.0999C14.5317 32.1062 14.5336 32.1129 14.5345 32.1198H7.46613C7.46795 32.1092 7.4711 32.0988 7.4755 32.089L8.74975 29.0965H13.2498L14.5289 32.0999ZM10.7474 1.5625C10.8161 1.49912 10.9062 1.46394 10.9998 1.46394C11.0933 1.46394 11.1834 1.49912 11.2521 1.5625C12.3881 2.59052 13.3729 3.77413 14.1771 5.07813H7.82275C8.6269 3.77415 9.61153 2.59054 10.7474 1.5625ZM7.207 6.20313H14.7925C15.7915 8.26563 16.4515 10.9255 16.3405 14.4719C16.246 17.4985 15.6929 26.6328 15.6873 26.7288C15.6694 27.0646 15.5232 27.3808 15.279 27.6121C15.0348 27.8433 14.7111 27.972 14.3748 27.9715H7.62475C7.28773 27.9719 6.96346 27.8427 6.71912 27.6106C6.47479 27.3784 6.3291 27.0612 6.31225 26.7246C6.30663 26.6328 5.7535 17.4996 5.659 14.4719C5.548 10.9255 6.208 8.26563 7.207 6.20313ZM2.08713 24.5871C2.59038 23.6759 3.90513 21.6715 4.8145 20.3046C4.95925 22.9383 5.1145 25.5366 5.16813 26.4453L1.81938 28.3773C1.80846 28.3497 1.80078 28.321 1.7965 28.2918C1.798 26.7595 1.91425 24.9141 2.08713 24.5871Z" fill="black"/>
</svg>
